<?xml version="1.0" encoding="UTF-8"?><svg id="Layer_1" xmlns="http://www.w3.org/2000/svg" viewBox="0 0 2587 307"><defs><style>.cls-1{fill:#fff;}</style></defs><rect class="cls-1" x="1518.49" y=".75" width="2" height="306.25"/><g><g><path class="cls-1" d="M406.72,123.48c-.71,1.14-1.46,1.99-2.24,2.56-.78,.57-1.79,.85-3.02,.85-1.09,0-2.26-.34-3.52-1.03-1.26-.69-2.68-1.46-4.26-2.31-1.59-.85-3.4-1.62-5.44-2.31s-4.36-1.03-6.96-1.03c-4.5,0-7.85,.96-10.05,2.88-2.2,1.92-3.3,4.51-3.3,7.78,0,2.09,.66,3.81,1.99,5.19,1.33,1.37,3.07,2.56,5.22,3.55,2.16,.99,4.62,1.91,7.39,2.74,2.77,.83,5.6,1.75,8.49,2.77,2.89,1.02,5.72,2.21,8.49,3.59s5.23,3.13,7.39,5.26c2.15,2.13,3.89,4.72,5.22,7.78,1.33,3.05,1.99,6.74,1.99,11.05,0,4.78-.83,9.26-2.49,13.43-1.66,4.17-4.06,7.8-7.21,10.91s-7.03,5.54-11.65,7.32-9.86,2.66-15.74,2.66c-3.22,0-6.5-.33-9.84-.99-3.34-.66-6.57-1.6-9.7-2.81-3.13-1.21-6.06-2.64-8.81-4.3-2.75-1.66-5.14-3.5-7.17-5.54l7.1-11.22c.52-.85,1.26-1.54,2.2-2.06,.95-.52,1.96-.78,3.05-.78,1.42,0,2.85,.45,4.3,1.35,1.44,.9,3.08,1.9,4.9,2.98,1.82,1.09,3.92,2.09,6.29,2.98,2.37,.9,5.16,1.35,8.38,1.35,4.36,0,7.74-.96,10.16-2.88,2.42-1.92,3.62-4.96,3.62-9.13,0-2.42-.66-4.38-1.99-5.9-1.33-1.52-3.07-2.77-5.22-3.77s-4.61-1.87-7.35-2.63c-2.75-.76-5.57-1.6-8.45-2.52-2.89-.92-5.71-2.06-8.45-3.41-2.75-1.35-5.2-3.13-7.35-5.33-2.16-2.2-3.9-4.95-5.22-8.24-1.33-3.29-1.99-7.35-1.99-12.18,0-3.88,.78-7.67,2.34-11.37,1.56-3.69,3.86-6.98,6.89-9.87,3.03-2.89,6.75-5.2,11.15-6.93,4.4-1.73,9.45-2.59,15.13-2.59,3.17,0,6.26,.25,9.27,.75,3.01,.5,5.86,1.23,8.56,2.2,2.7,.97,5.22,2.13,7.57,3.48,2.34,1.35,4.44,2.88,6.29,4.58l-5.97,11.15Z"/><path class="cls-1" d="M475.89,205.96c-2.02,0-3.55-.28-4.59-.83-1.03-.55-1.9-1.7-2.59-3.45l-1.52-3.93c-1.79,1.52-3.52,2.85-5.17,4-1.65,1.15-3.37,2.13-5.14,2.93-1.77,.8-3.66,1.4-5.66,1.79-2,.39-4.22,.59-6.66,.59-3.27,0-6.23-.43-8.9-1.28-2.67-.85-4.93-2.11-6.79-3.77s-3.3-3.73-4.31-6.19c-1.01-2.47-1.52-5.32-1.52-8.55,0-2.54,.64-5.14,1.93-7.82,1.29-2.67,3.52-5.11,6.69-7.3,3.17-2.19,7.45-4.02,12.83-5.5,5.38-1.48,12.16-2.21,20.35-2.21v-3.06c0-4.22-.86-7.27-2.59-9.15-1.72-1.88-4.17-2.82-7.35-2.82-2.53,0-4.6,.28-6.21,.83-1.61,.55-3.05,1.17-4.31,1.86-1.27,.69-2.49,1.31-3.69,1.86-1.2,.55-2.62,.83-4.28,.83-1.47,0-2.72-.36-3.76-1.07-1.03-.71-1.85-1.6-2.45-2.66l-3.86-6.69c4.32-3.82,9.12-6.66,14.38-8.52,5.27-1.86,10.91-2.79,16.93-2.79,4.32,0,8.22,.7,11.69,2.1,3.47,1.4,6.41,3.36,8.83,5.86,2.41,2.51,4.26,5.48,5.55,8.93,1.29,3.45,1.93,7.22,1.93,11.31v44.69h-9.8Zm-24.55-13.04c2.76,0,5.17-.48,7.24-1.45,2.07-.97,4.16-2.53,6.28-4.69v-9.79c-4.28,0-7.79,.28-10.55,.84-2.76,.56-4.94,1.25-6.55,2.09-1.61,.84-2.72,1.79-3.34,2.85-.62,1.07-.93,2.23-.93,3.48,0,2.46,.67,4.19,2,5.18,1.33,1,3.29,1.5,5.86,1.5Z"/><path class="cls-1" d="M538.65,205.96h-19.45l-27.73-71.52h17.79c1.52,0,2.79,.36,3.83,1.07,1.03,.71,1.73,1.6,2.1,2.66l9.93,32.07c.78,2.62,1.53,5.17,2.24,7.66,.71,2.48,1.32,4.97,1.83,7.45,.51-2.48,1.13-4.97,1.86-7.45,.73-2.48,1.52-5.03,2.34-7.66l10.35-32.07c.37-1.06,1.06-1.94,2.07-2.66,1.01-.71,2.21-1.07,3.59-1.07h16.97l-27.73,71.52Z"/><path class="cls-1" d="M604.18,133.33c4.74,0,9.07,.74,13,2.21,3.93,1.47,7.31,3.61,10.14,6.41,2.83,2.81,5.03,6.24,6.62,10.31,1.59,4.07,2.38,8.68,2.38,13.83,0,1.61-.07,2.92-.21,3.93-.14,1.01-.39,1.82-.76,2.41-.37,.6-.86,1.01-1.48,1.24-.62,.23-1.41,.34-2.38,.34h-41.24c.69,5.98,2.51,10.31,5.45,13,2.94,2.69,6.74,4.03,11.38,4.03,2.48,0,4.62-.3,6.41-.9,1.79-.6,3.39-1.26,4.79-2,1.4-.73,2.69-1.4,3.86-2,1.17-.6,2.4-.9,3.69-.9,1.7,0,2.99,.62,3.86,1.86l6.21,7.66c-2.21,2.53-4.59,4.59-7.14,6.17-2.55,1.59-5.17,2.83-7.86,3.72-2.69,.9-5.38,1.52-8.07,1.86-2.69,.34-5.25,.52-7.69,.52-5.01,0-9.71-.82-14.1-2.45-4.39-1.63-8.23-4.06-11.52-7.28-3.29-3.22-5.89-7.22-7.79-12-1.91-4.78-2.86-10.35-2.86-16.69,0-4.78,.82-9.31,2.45-13.59s3.98-8.02,7.03-11.24,6.76-5.77,11.1-7.66c4.35-1.88,9.25-2.83,14.73-2.83Zm.41,14.76c-4.09,0-7.29,1.16-9.59,3.48-2.3,2.32-3.82,5.67-4.55,10.04h26.69c0-1.7-.22-3.36-.65-4.97-.44-1.61-1.15-3.05-2.14-4.31-.99-1.26-2.29-2.29-3.9-3.07-1.61-.78-3.56-1.17-5.86-1.17Z"/><path class="cls-1" d="M702.39,207.06c-3.4,0-6.4-.49-9-1.48-2.6-.99-4.78-2.39-6.55-4.21-1.77-1.82-3.12-4.01-4.03-6.59-.92-2.58-1.38-5.45-1.38-8.62v-36.97h-6.07c-1.1,0-2.05-.36-2.83-1.07-.78-.71-1.17-1.76-1.17-3.14v-8.35l11.38-2.21,4.21-17.45c.55-2.21,2.12-3.31,4.69-3.31h11.17v20.9h17.38v14.62h-17.38v35.52c0,1.66,.4,3.02,1.21,4.1,.8,1.08,1.97,1.62,3.48,1.62,.78,0,1.44-.08,1.97-.24,.53-.16,.99-.34,1.38-.55,.39-.21,.76-.39,1.1-.55,.34-.16,.75-.24,1.21-.24,.64,0,1.16,.15,1.55,.45,.39,.3,.79,.77,1.21,1.41l6.48,10.14c-2.76,2.07-5.86,3.62-9.31,4.66-3.45,1.03-7.01,1.55-10.69,1.55Z"/><path class="cls-1" d="M732.19,205.96V102.71h21.38v38c2.57-2.21,5.37-3.99,8.38-5.34,3.01-1.36,6.61-2.03,10.79-2.03,3.91,0,7.37,.68,10.38,2.03,3.01,1.36,5.55,3.24,7.62,5.66,2.07,2.41,3.63,5.29,4.69,8.62,1.06,3.33,1.59,6.96,1.59,10.86v45.45h-21.38v-45.45c0-3.49-.8-6.22-2.41-8.17-1.61-1.95-3.97-2.93-7.1-2.93-2.34,0-4.55,.51-6.62,1.52-2.07,1.01-4.05,2.37-5.93,4.07v50.97h-21.38Z"/><path class="cls-1" d="M843.51,133.33c4.74,0,9.07,.74,13,2.21,3.93,1.47,7.31,3.61,10.14,6.41,2.83,2.81,5.04,6.24,6.62,10.31,1.59,4.07,2.38,8.68,2.38,13.83,0,1.61-.07,2.92-.21,3.93s-.39,1.82-.76,2.41c-.37,.6-.86,1.01-1.48,1.24-.62,.23-1.41,.34-2.38,.34h-41.24c.69,5.98,2.51,10.31,5.45,13,2.94,2.69,6.74,4.03,11.38,4.03,2.48,0,4.62-.3,6.41-.9,1.79-.6,3.39-1.26,4.8-2,1.4-.73,2.69-1.4,3.86-2,1.17-.6,2.4-.9,3.69-.9,1.7,0,2.99,.62,3.86,1.86l6.21,7.66c-2.21,2.53-4.59,4.59-7.14,6.17-2.55,1.59-5.17,2.83-7.86,3.72-2.69,.9-5.38,1.52-8.07,1.86-2.69,.34-5.25,.52-7.69,.52-5.01,0-9.71-.82-14.11-2.45-4.39-1.63-8.23-4.06-11.52-7.28-3.29-3.22-5.89-7.22-7.8-12-1.91-4.78-2.86-10.35-2.86-16.69,0-4.78,.82-9.31,2.45-13.59,1.63-4.28,3.98-8.02,7.03-11.24,3.06-3.22,6.76-5.77,11.11-7.66,4.34-1.88,9.25-2.83,14.72-2.83Zm.41,14.76c-4.09,0-7.29,1.16-9.59,3.48-2.3,2.32-3.82,5.67-4.55,10.04h26.69c0-1.7-.22-3.36-.66-4.97-.44-1.61-1.15-3.05-2.14-4.31-.99-1.26-2.29-2.29-3.9-3.07-1.61-.78-3.56-1.17-5.86-1.17Z"/><path class="cls-1" d="M987.1,179.17c.57,0,1.13,.11,1.7,.32,.57,.21,1.11,.58,1.63,1.1l9.52,10.02c-4.17,5.45-9.39,9.56-15.67,12.33-6.27,2.77-13.7,4.16-22.27,4.16-7.86,0-14.91-1.34-21.13-4.01-6.23-2.68-11.51-6.37-15.84-11.08-4.33-4.71-7.66-10.3-9.98-16.77-2.32-6.46-3.48-13.49-3.48-21.06s1.33-14.81,3.98-21.28c2.65-6.46,6.36-12.04,11.12-16.73,4.76-4.69,10.45-8.34,17.09-10.94,6.63-2.6,13.95-3.91,21.95-3.91,3.88,0,7.54,.34,10.98,1.03,3.43,.69,6.64,1.63,9.63,2.84,2.98,1.21,5.73,2.65,8.24,4.33,2.51,1.68,4.74,3.54,6.68,5.58l-8.1,10.87c-.52,.66-1.13,1.27-1.84,1.81-.71,.54-1.71,.82-2.98,.82-.85,0-1.66-.19-2.42-.57-.76-.38-1.56-.84-2.41-1.39-.85-.54-1.79-1.14-2.81-1.78-1.02-.64-2.23-1.23-3.62-1.78-1.4-.54-3.03-1.01-4.9-1.39-1.87-.38-4.06-.57-6.57-.57-4.36,0-8.33,.77-11.93,2.31-3.6,1.54-6.69,3.74-9.27,6.61-2.58,2.87-4.6,6.33-6.04,10.41-1.45,4.07-2.17,8.64-2.17,13.71s.72,10.02,2.17,14.14c1.44,4.12,3.41,7.59,5.9,10.41,2.49,2.82,5.39,4.96,8.7,6.43,3.32,1.47,6.87,2.2,10.66,2.2,2.18,0,4.17-.11,5.97-.32,1.8-.21,3.47-.58,5.01-1.1,1.54-.52,3.01-1.2,4.41-2.03,1.4-.83,2.81-1.86,4.23-3.09,.57-.47,1.18-.86,1.85-1.17s1.35-.46,2.06-.46Z"/><path class="cls-1" d="M1010.93,205.96V102.71h21.38v38c2.58-2.21,5.37-3.99,8.38-5.34,3.01-1.36,6.61-2.03,10.8-2.03,3.91,0,7.37,.68,10.38,2.03,3.01,1.36,5.55,3.24,7.62,5.66,2.07,2.41,3.63,5.29,4.69,8.62,1.06,3.33,1.59,6.96,1.59,10.86v45.45h-21.38v-45.45c0-3.49-.81-6.22-2.41-8.17s-3.98-2.93-7.1-2.93c-2.34,0-4.55,.51-6.62,1.52-2.07,1.01-4.05,2.37-5.93,4.07v50.97h-21.38Z"/><path class="cls-1" d="M1116.73,114.84c0,1.7-.34,3.3-1.03,4.79-.69,1.49-1.63,2.81-2.83,3.93-1.2,1.13-2.59,2.02-4.17,2.69-1.59,.67-3.27,1-5.07,1s-3.38-.33-4.9-1c-1.52-.67-2.86-1.56-4.03-2.69-1.17-1.13-2.09-2.44-2.76-3.93-.67-1.49-1-3.09-1-4.79s.33-3.38,1-4.9c.67-1.52,1.59-2.85,2.76-4,1.17-1.15,2.52-2.05,4.03-2.69s3.15-.97,4.9-.97,3.48,.32,5.07,.97c1.59,.64,2.98,1.54,4.17,2.69,1.19,1.15,2.14,2.48,2.83,4,.69,1.52,1.03,3.15,1.03,4.9Zm-2.48,19.59v71.52h-21.38v-71.52h21.38Z"/><path class="cls-1" d="M1155.08,102.71v103.25h-21.38V102.71h21.38Z"/><path class="cls-1" d="M1223.22,205.96c-1.33,0-2.45-.3-3.34-.9-.9-.6-1.53-1.49-1.9-2.69l-1.66-5.45c-1.43,1.52-2.92,2.9-4.48,4.14-1.56,1.24-3.25,2.31-5.07,3.21-1.82,.9-3.77,1.59-5.86,2.07-2.09,.48-4.36,.72-6.79,.72-3.73,0-7.17-.83-10.35-2.48-3.17-1.66-5.91-4.05-8.21-7.17-2.3-3.13-4.1-6.95-5.41-11.48-1.31-4.53-1.97-9.69-1.97-15.48,0-5.33,.74-10.29,2.21-14.86,1.47-4.58,3.55-8.53,6.24-11.86,2.69-3.33,5.92-5.94,9.69-7.83,3.77-1.88,7.93-2.83,12.48-2.83,3.68,0,6.8,.54,9.35,1.62,2.55,1.08,4.86,2.49,6.93,4.24v-36.21h21.38v103.25h-13.24Zm-21.66-15.31c1.56,0,2.98-.15,4.24-.45,1.26-.3,2.42-.72,3.48-1.28s2.06-1.24,3-2.07c.94-.83,1.87-1.79,2.8-2.9v-30.35c-1.66-1.79-3.41-3.05-5.28-3.76-1.86-.71-3.83-1.07-5.9-1.07s-3.79,.39-5.45,1.17c-1.66,.78-3.09,2.03-4.31,3.76-1.22,1.72-2.17,3.96-2.86,6.72-.69,2.76-1.03,6.09-1.03,10s.27,6.94,.83,9.52c.55,2.58,1.32,4.66,2.31,6.24,.99,1.59,2.17,2.73,3.55,3.41s2.92,1.03,4.62,1.03Z"/><path class="cls-1" d="M1253.57,205.96v-71.52h12.69c1.06,0,1.94,.09,2.66,.28,.71,.18,1.31,.47,1.79,.86,.48,.39,.85,.91,1.1,1.55,.25,.65,.47,1.43,.66,2.35l1.17,6.69c2.62-4.05,5.56-7.24,8.83-9.59,3.26-2.35,6.83-3.52,10.69-3.52,3.26,0,5.89,.78,7.86,2.34l-2.76,15.73c-.18,.96-.55,1.64-1.1,2.03s-1.29,.59-2.21,.59c-.78,0-1.7-.1-2.76-.31-1.06-.21-2.39-.31-4-.31-5.61,0-10.03,2.99-13.24,8.97v43.87h-21.38Z"/><path class="cls-1" d="M1339.79,133.33c4.74,0,9.07,.74,13,2.21,3.93,1.47,7.31,3.61,10.14,6.41,2.83,2.81,5.04,6.24,6.62,10.31,1.59,4.07,2.38,8.68,2.38,13.83,0,1.61-.07,2.92-.21,3.93-.14,1.01-.39,1.82-.76,2.41-.37,.6-.86,1.01-1.48,1.24-.62,.23-1.41,.34-2.38,.34h-41.24c.69,5.98,2.51,10.31,5.45,13,2.94,2.69,6.74,4.03,11.38,4.03,2.48,0,4.62-.3,6.41-.9,1.79-.6,3.39-1.26,4.8-2,1.4-.73,2.69-1.4,3.86-2,1.17-.6,2.4-.9,3.69-.9,1.7,0,2.99,.62,3.86,1.86l6.21,7.66c-2.21,2.53-4.59,4.59-7.14,6.17-2.55,1.59-5.17,2.83-7.86,3.72-2.69,.9-5.38,1.52-8.07,1.86-2.69,.34-5.25,.52-7.69,.52-5.01,0-9.71-.82-14.11-2.45-4.39-1.63-8.23-4.06-11.52-7.28-3.29-3.22-5.89-7.22-7.8-12-1.91-4.78-2.86-10.35-2.86-16.69,0-4.78,.82-9.31,2.45-13.59,1.63-4.28,3.98-8.02,7.03-11.24,3.06-3.22,6.76-5.77,11.11-7.66,4.34-1.88,9.25-2.83,14.72-2.83Zm.41,14.76c-4.09,0-7.29,1.16-9.59,3.48-2.3,2.32-3.82,5.67-4.55,10.04h26.69c0-1.7-.22-3.36-.66-4.97-.44-1.61-1.15-3.05-2.14-4.31-.99-1.26-2.29-2.29-3.9-3.07-1.61-.78-3.56-1.17-5.86-1.17Z"/><path class="cls-1" d="M1385.58,205.96v-71.52h13.24c1.33,0,2.45,.3,3.34,.9,.9,.6,1.53,1.49,1.9,2.69l1.24,4.14c1.38-1.29,2.81-2.48,4.28-3.59,1.47-1.1,3.05-2.03,4.73-2.79,1.68-.76,3.49-1.35,5.45-1.79,1.95-.44,4.08-.66,6.38-.66,3.91,0,7.37,.68,10.38,2.03,3.01,1.36,5.55,3.24,7.62,5.66,2.07,2.41,3.63,5.29,4.69,8.62,1.06,3.33,1.59,6.96,1.59,10.86v45.45h-21.38v-45.45c0-3.49-.81-6.22-2.41-8.17-1.61-1.95-3.98-2.93-7.1-2.93-2.34,0-4.55,.51-6.62,1.52-2.07,1.01-4.05,2.37-5.93,4.07v50.97h-21.38Z"/></g><path class="cls-1" d="M266.09,75.08c12.66-14.95,18.26-21.86,17.05-25.63-.93-2.82-3.87-5.31-8.3-7-4.77-1.81-11.31-2.64-14.59-.71-1.1,.64-2.88,2.65-7.16,7.49l-4,4.51h-.01c-2.55-2.6-5.27-5.19-7.93-7.5-19.35-16.87-43.07-27.86-68.62-31.83C162.22,3.46,148.79-1.62,135.58,.45c-11.09,1.75-20.87,8.37-27.56,18.68-25.97,7.9-49.48,22.8-68.1,43.15v-.02c-4.16-1.24-13.29,.37-19,3.5-3.29,1.8-5.17,3.89-5.58,6.23-.31,1.77,.4,4.55,7.52,12.66h0C4.56,113.81-3.37,148.29,.58,181.78c4.05,34.36,20.36,65.53,45.93,87.83,9.07,7.89,19.02,14.48,29.72,19.69,15.44,7.51,32.48,12.76,50.69,15.2,38.24,5.1,75.2-3.06,105.46-20.72l.06-.04c3.86-2.14,5.26-6.84,3.32-11.19l-.58-1.3c-7.86-17.62-31.79-71.25-18.46-120.18,5.57-20.48,21.64-42.28,35.53-59.39h0c14.79,22.96,22.34,50.27,21.25,77.09-1.04,25.42-9.41,49.07-24.32,68.94-.45,.56-.7,1.27-.65,2.03,.02,.32,.09,.63,.21,.9l1.52,3.54c.49,1.05,1.6,1.76,2.83,1.67,.83-.07,1.57-.47,2.04-1.06h0c39.27-49.8,43.98-118.35,10.95-169.7ZM92.53,190.78c-3.12,18.42-7.4,43.57-3.55,81.59h-.01c-10.12-5.14-19.69-11.55-28.29-19.04-23.45-20.43-39.3-48.24-44.62-78.28-5.13-28.87-.33-58.31,13.49-83.15h0c5.26,5.5,11.63,11.82,18.29,18.43,16.31,16.16,34.81,34.49,43.8,47.53,5.21,7.55,3.59,17.1,.89,32.93M234.35,69.45c-30.06,30.21-58.4,46.6-84.18,48.55-19.84,1.49-40.86-4.41-62.45-17.58-17.86-10.89-31.63-23.89-39.88-31.65l-.84-.79h0c14.73-15.77,33.45-27.38,54.28-33.65t0-.01h.01s-.01,.01-.02,.01c-2.22,8.15-2.62,16.89-1.25,25.62,2.46,15.67,10.52,29.5,22.14,37.95,9.08,6.61,19.71,9.38,29.95,7.76,10.22-1.61,19.51-7.5,26.12-16.58,8.46-11.6,11.89-27.24,9.43-42.91-.45-2.88-1.1-5.72-1.93-8.5h0c15.03,5.73,28.92,14.1,41.23,24.82,2.5,2.18,4.98,4.52,7.39,6.94h0Z"/></g><path class="cls-1" d="M1943.67,76.18h-13.43V9.2h13.43v27.54h28.69V9.2h13.44V76.18h-13.44v-28.5h-28.69v28.5Zm64.47-1.97c3.2,1.76,6.88,2.64,11.03,2.64,3.26,0,6.29-.66,9.07-1.97,2.78-1.31,5.04-3.12,6.76-5.42v6.72h13.53V23.02h-13.53v29.27c0,4.22-1.05,7.47-3.17,9.74-2.11,2.27-5.02,3.41-8.73,3.41s-6.52-1.14-8.64-3.41c-2.11-2.27-3.17-5.52-3.17-9.74V23.02h-13.44v31.19c0,4.74,.91,8.81,2.74,12.24,1.82,3.42,4.33,6.01,7.53,7.77Zm65.73-27.4c0-4.16,1.07-7.34,3.21-9.55,2.14-2.21,5.07-3.31,8.78-3.31s6.52,1.1,8.64,3.31c2.11,2.21,3.17,5.39,3.17,9.55v29.36h13.44v-29.36c0-4.16,1.07-7.34,3.21-9.55,2.14-2.21,5.04-3.31,8.68-3.31s6.52,1.1,8.64,3.31c2.11,2.21,3.17,5.39,3.17,9.55v29.36h13.44v-31.19c0-7.16-2-12.75-6-16.74-4-4-9.26-6-15.79-6-3.84,0-7.4,.93-10.7,2.78-3.3,1.86-5.81,4.32-7.53,7.39-1.79-3.26-4.32-5.77-7.58-7.53-3.26-1.76-6.97-2.64-11.13-2.64-3.26,0-6.25,.64-8.97,1.92-2.72,1.28-4.94,3.04-6.67,5.28v-6.43h-13.43v53.16h13.43v-29.36Zm85.98,17.03c-2.14-4.19-3.21-9-3.21-14.44s1.07-10.14,3.21-14.3c2.14-4.16,5.05-7.36,8.73-9.59,3.68-2.24,7.79-3.36,12.33-3.36,3.96,0,7.44,.8,10.41,2.4,2.97,1.6,5.36,3.61,7.15,6.04v-7.58h13.53v53.16h-13.53v-7.77c-1.73,2.5-4.11,4.56-7.15,6.19-3.04,1.63-6.54,2.45-10.51,2.45-4.48,0-8.55-1.15-12.23-3.45-3.68-2.3-6.59-5.55-8.73-9.74Zm10.51-14.44c0,3.2,.66,6,1.97,8.4,1.31,2.4,3.04,4.24,5.18,5.52,2.14,1.28,4.43,1.92,6.86,1.92s4.83-.62,7.01-1.87c2.17-1.25,3.9-3.04,5.18-5.37,1.28-2.33,1.92-5.14,1.92-8.4s-.64-6.06-1.92-8.4c-1.28-2.33-3.01-4.13-5.18-5.37-2.17-1.25-4.51-1.87-7.01-1.87s-4.8,.61-6.91,1.82c-2.11,1.22-3.82,2.99-5.13,5.33-1.31,2.33-1.97,5.1-1.97,8.3Zm66.93-2.59c0-4.22,1.07-7.47,3.21-9.74,2.14-2.27,5.07-3.41,8.78-3.41s6.52,1.14,8.64,3.41c2.11,2.27,3.17,5.52,3.17,9.74v29.36h13.43v-31.19c0-7.16-1.95-12.75-5.85-16.74-3.9-4-9.02-6-15.35-6-3.33,0-6.38,.66-9.16,1.97-2.78,1.31-5.07,3.12-6.86,5.42v-6.62h-13.43v53.16h13.43v-29.36Zm61.95-23.8h-13.44v53.16h13.44V23.02Zm-6.62-6.33c2.37,0,4.33-.75,5.9-2.26,1.57-1.5,2.35-3.37,2.35-5.61s-.79-4.11-2.35-5.61c-1.57-1.5-3.53-2.25-5.9-2.25s-4.33,.75-5.9,2.25c-1.57,1.5-2.35,3.38-2.35,5.61s.78,4.11,2.35,5.61c1.57,1.5,3.53,2.26,5.9,2.26Zm20.34,42.99c0,11,5.66,16.51,16.98,16.51h8.45v-11.32h-6.24c-2.05,0-3.5-.4-4.37-1.2-.86-.8-1.3-2.1-1.3-3.89v-25.71h11.9v-11.04h-11.9V9.87h-13.53v13.15h-6.33v11.04h6.33v25.62Zm72.16,16.51v-7.77c-1.73,2.5-4.11,4.56-7.15,6.19-3.04,1.63-6.54,2.45-10.51,2.45-4.48,0-8.56-1.15-12.24-3.45-3.68-2.3-6.59-5.55-8.73-9.74-2.14-4.19-3.21-9-3.21-14.44s1.07-10.14,3.21-14.3c2.14-4.16,5.05-7.36,8.73-9.59,3.68-2.24,7.79-3.36,12.33-3.36,3.97,0,7.44,.8,10.41,2.4s5.36,3.61,7.15,6.04v-7.58h13.53v53.16h-13.53Zm0-26.58c0-3.26-.64-6.06-1.92-8.4-1.28-2.33-3.01-4.13-5.18-5.37-2.18-1.25-4.51-1.87-7.01-1.87s-4.8,.61-6.91,1.82c-2.11,1.22-3.82,2.99-5.14,5.33-1.31,2.33-1.97,5.1-1.97,8.3s.65,6,1.97,8.4c1.31,2.4,3.04,4.24,5.18,5.52,2.14,1.28,4.43,1.92,6.86,1.92s4.83-.62,7.01-1.87c2.17-1.25,3.9-3.04,5.18-5.37,1.28-2.33,1.92-5.14,1.92-8.4Zm38.81,.1c0-4.93,1.07-8.38,3.21-10.36,2.14-1.98,5.33-2.97,9.55-2.97h3.55v-14.11c-3.58,0-6.77,.8-9.55,2.4-2.78,1.6-5.04,3.81-6.77,6.62v-8.25h-13.43v53.16h13.43v-26.48Zm29.86-48.75c-2.37,0-4.33,.75-5.9,2.25-1.57,1.5-2.35,3.38-2.35,5.61s.78,4.11,2.35,5.61c1.57,1.5,3.53,2.26,5.9,2.26s4.33-.75,5.9-2.26c1.57-1.5,2.35-3.37,2.35-5.61s-.78-4.11-2.35-5.61c-1.57-1.5-3.53-2.25-5.9-2.25Zm-6.81,75.23h13.43V23.02h-13.43v53.16Zm63.99-53.16h13.53v53.16h-13.53v-7.77c-1.73,2.5-4.11,4.56-7.15,6.19-3.04,1.63-6.54,2.45-10.51,2.45-4.48,0-8.56-1.15-12.23-3.45-3.68-2.3-6.59-5.55-8.73-9.74-2.14-4.19-3.21-9-3.21-14.44s1.07-10.14,3.21-14.3c2.14-4.16,5.05-7.36,8.73-9.59,3.68-2.24,7.79-3.36,12.33-3.36,3.96,0,7.44,.8,10.41,2.4,2.98,1.6,5.36,3.61,7.15,6.04v-7.58Zm0,26.58c0-3.26-.64-6.06-1.92-8.4-1.28-2.33-3.01-4.13-5.18-5.37-2.17-1.25-4.51-1.87-7.01-1.87s-4.8,.61-6.91,1.82c-2.11,1.22-3.82,2.99-5.14,5.33-1.31,2.33-1.97,5.1-1.97,8.3s.65,6,1.97,8.4c1.31,2.4,3.04,4.24,5.18,5.52,2.14,1.28,4.43,1.92,6.86,1.92s4.83-.62,7.01-1.87c2.17-1.25,3.9-3.04,5.18-5.37,1.28-2.33,1.92-5.14,1.92-8.4Zm70.19-21.35c-3.9-4-9.02-6-15.35-6-3.33,0-6.38,.66-9.16,1.97-2.78,1.31-5.07,3.12-6.86,5.42v-6.62h-13.43v53.16h13.43v-29.36c0-4.22,1.07-7.47,3.21-9.74,2.14-2.27,5.07-3.41,8.78-3.41s6.52,1.14,8.64,3.41c2.11,2.27,3.17,5.52,3.17,9.74v29.36h13.43v-31.19c0-7.16-1.95-12.75-5.85-16.74Zm-615.41,139.5h-22.07v-56.33h-13.43v66.98h35.5v-10.65Zm16.01-40.01c4.03-2.24,8.67-3.36,13.91-3.36s9.58,1.09,13.58,3.26c4,2.18,7.1,5.26,9.31,9.26,2.21,4,3.31,8.59,3.31,13.77,0,1.92-.13,3.65-.39,5.18h-38.86c.32,3.84,1.66,6.85,4.03,9.02,2.37,2.18,5.28,3.26,8.73,3.26,4.99,0,8.54-2.14,10.65-6.43h14.49c-1.53,5.12-4.48,9.32-8.83,12.62-4.35,3.3-9.69,4.94-16.02,4.94-5.12,0-9.71-1.14-13.77-3.4-4.06-2.27-7.23-5.49-9.5-9.64-2.27-4.16-3.41-8.96-3.41-14.39s1.12-10.33,3.36-14.49c2.24-4.16,5.37-7.36,9.4-9.6Zm.96,19.09h25.23c-.06-3.45-1.31-6.22-3.74-8.3-2.43-2.08-5.41-3.12-8.92-3.12-3.33,0-6.13,1.01-8.4,3.02-2.27,2.02-3.66,4.81-4.17,8.4Zm69.1,32.43c-4.48,0-8.56-1.15-12.24-3.45-3.68-2.3-6.59-5.55-8.73-9.74-2.14-4.19-3.21-9-3.21-14.44s1.07-10.14,3.21-14.3c2.14-4.16,5.05-7.36,8.73-9.6,3.68-2.24,7.79-3.36,12.33-3.36,3.96,0,7.44,.8,10.41,2.4,2.97,1.6,5.36,3.61,7.15,6.04v-7.58h13.53v53.16h-13.53v-7.77c-1.73,2.5-4.11,4.56-7.15,6.19-3.04,1.63-6.54,2.45-10.51,2.45Zm-3.31-13.72c2.14,1.28,4.43,1.92,6.86,1.92s4.83-.62,7.01-1.87c2.17-1.25,3.9-3.04,5.18-5.37,1.28-2.33,1.92-5.13,1.92-8.4s-.64-6.06-1.92-8.4c-1.28-2.33-3.01-4.13-5.18-5.37s-4.51-1.87-7.01-1.87-4.8,.61-6.91,1.82c-2.11,1.22-3.82,2.99-5.13,5.33-1.31,2.33-1.97,5.1-1.97,8.3s.66,6,1.97,8.4c1.31,2.4,3.04,4.24,5.18,5.52Zm67.7,13.72c-4.48,0-8.57-1.15-12.28-3.45-3.71-2.3-6.64-5.55-8.78-9.74-2.14-4.19-3.21-9-3.21-14.44s1.07-10.14,3.21-14.3c2.14-4.16,5.07-7.36,8.78-9.6,3.71-2.24,7.83-3.36,12.38-3.36,3.46,0,6.75,.75,9.88,2.25,3.13,1.5,5.63,3.5,7.48,6v-25.24h13.63v71.01h-13.63v-7.87c-1.66,2.62-4,4.74-7.01,6.33-3.01,1.6-6.49,2.4-10.46,2.4Zm-3.41-13.72c2.14,1.28,4.43,1.92,6.86,1.92s4.83-.62,7-1.87c2.17-1.25,3.9-3.04,5.18-5.37,1.28-2.33,1.92-5.13,1.92-8.4s-.64-6.06-1.92-8.4c-1.28-2.33-3.01-4.13-5.18-5.37-2.17-1.25-4.51-1.87-7-1.87s-4.8,.61-6.91,1.82c-2.11,1.22-3.82,2.99-5.14,5.33-1.31,2.33-1.97,5.1-1.97,8.3s.66,6,1.97,8.4c1.31,2.4,3.04,4.24,5.18,5.52Zm69.92,13.72c-5.12,0-9.71-1.14-13.77-3.4-4.06-2.27-7.23-5.49-9.5-9.64-2.27-4.16-3.41-8.96-3.41-14.39s1.12-10.33,3.36-14.49c2.24-4.16,5.37-7.36,9.4-9.6,4.03-2.24,8.67-3.36,13.91-3.36s9.58,1.09,13.58,3.26c4,2.18,7.1,5.26,9.31,9.26,2.21,4,3.31,8.59,3.31,13.77,0,1.92-.13,3.65-.39,5.18h-38.86c.32,3.84,1.66,6.85,4.03,9.02,2.37,2.18,5.28,3.26,8.73,3.26,4.99,0,8.54-2.14,10.65-6.43h14.49c-1.53,5.12-4.48,9.32-8.83,12.62-4.35,3.3-9.69,4.94-16.02,4.94Zm-12.95-32.43h25.24c-.06-3.45-1.31-6.22-3.74-8.3-2.43-2.08-5.41-3.12-8.92-3.12-3.33,0-6.13,1.01-8.4,3.02-2.27,2.02-3.66,4.81-4.17,8.4Zm77.74-8.25v-14.11c-3.58,0-6.77,.8-9.55,2.4-2.78,1.6-5.04,3.81-6.76,6.62v-8.25h-13.44v53.16h13.44v-26.48c0-4.93,1.07-8.38,3.21-10.36,2.14-1.98,5.33-2.97,9.55-2.97h3.55Zm33.83,28.59c-1.44,1.02-3.44,1.54-6,1.54s-4.81-.67-6.57-2.02c-1.76-1.34-2.77-3.04-3.02-5.09h-13.53c.19,3.26,1.29,6.24,3.31,8.92,2.02,2.69,4.75,4.81,8.2,6.38,3.46,1.57,7.36,2.35,11.71,2.35s7.92-.69,11.08-2.06c3.17-1.37,5.6-3.28,7.29-5.71,1.69-2.43,2.54-5.18,2.54-8.25-.06-3.52-1.01-6.35-2.83-8.49-1.82-2.14-3.98-3.73-6.48-4.75-2.49-1.02-5.66-2.02-9.5-2.97-3.78-.96-6.56-1.9-8.35-2.83-1.79-.93-2.69-2.29-2.69-4.08,0-1.6,.65-2.85,1.97-3.74,1.31-.89,3.18-1.34,5.61-1.34,2.62,0,4.72,.62,6.28,1.87,1.57,1.25,2.45,2.93,2.64,5.04h12.86c-.38-5.37-2.46-9.64-6.24-12.81-3.78-3.17-8.83-4.75-15.16-4.75-4.29,0-8.01,.7-11.18,2.11-3.17,1.41-5.6,3.33-7.29,5.76-1.69,2.43-2.54,5.12-2.54,8.06,0,3.58,.91,6.43,2.73,8.54,1.82,2.11,4,3.68,6.52,4.7,2.53,1.02,5.77,2.02,9.74,2.98,3.84,1.02,6.64,1.97,8.4,2.83,1.76,.86,2.64,2.16,2.64,3.89,0,1.6-.72,2.91-2.16,3.93Zm58.79-27.88c2.11,2.27,3.17,5.52,3.17,9.74v29.36h13.43v-31.19c0-4.8-.88-8.91-2.64-12.33-1.76-3.42-4.21-6.01-7.34-7.77-3.13-1.76-6.72-2.64-10.75-2.64-3.52,0-6.72,.66-9.59,1.97-2.88,1.31-5.18,3.12-6.91,5.42v-24.47h-13.44v71.01h13.44v-29.36c0-4.22,1.07-7.47,3.21-9.74,2.14-2.27,5.07-3.41,8.78-3.41s6.52,1.14,8.64,3.41Zm34.7-36.13c-2.37,0-4.33,.75-5.9,2.25-1.57,1.5-2.35,3.38-2.35,5.61s.78,4.11,2.35,5.61c1.57,1.5,3.54,2.26,5.9,2.26s4.33-.75,5.9-2.26c1.57-1.5,2.35-3.37,2.35-5.61s-.78-4.11-2.35-5.61c-1.57-1.5-3.53-2.25-5.9-2.25Zm6.62,22.07h-13.44v53.16h13.44v-53.16Zm64.01,12.04c2.14,4.13,3.21,8.91,3.21,14.35s-1.07,10.25-3.21,14.44c-2.14,4.19-5.05,7.44-8.73,9.74-3.68,2.3-7.79,3.45-12.33,3.45-3.9,0-7.34-.8-10.32-2.4-2.97-1.6-5.39-3.61-7.24-6.05v32.91h-13.44V125.24h13.44v7.68c1.73-2.43,4.11-4.46,7.15-6.09,3.04-1.63,6.51-2.45,10.41-2.45,4.54,0,8.65,1.12,12.33,3.36,3.68,2.24,6.59,5.42,8.73,9.55Zm-10.51,14.35c0-3.2-.66-5.96-1.97-8.3-1.31-2.34-3.04-4.11-5.18-5.33-2.14-1.21-4.46-1.82-6.96-1.82s-4.72,.62-6.86,1.87c-2.14,1.25-3.87,3.05-5.18,5.42-1.31,2.37-1.97,5.15-1.97,8.35s.65,5.98,1.97,8.35c1.31,2.37,3.04,4.17,5.18,5.42,2.14,1.25,4.43,1.87,6.86,1.87s4.81-.64,6.96-1.92c2.14-1.28,3.87-3.1,5.18-5.47,1.31-2.37,1.97-5.18,1.97-8.44Zm-473.38,62.18l24.08,67.07h-14.2l-4.41-12.76h-26.68l-4.41,12.76h-14.11l24.09-67.07h15.64Zm1.82,43.56l-9.69-28.02-9.69,28.02h19.38Zm50.8-19.1c2.69,0,4.94,.66,6.77,1.97,1.82,1.31,3.12,3.12,3.88,5.42h14.49c-1.47-5.95-4.36-10.57-8.68-13.86-4.32-3.29-9.77-4.94-16.36-4.94-5.12,0-9.66,1.14-13.63,3.41-3.97,2.27-7.07,5.47-9.31,9.6-2.24,4.13-3.36,8.94-3.36,14.44s1.12,10.31,3.36,14.44c2.24,4.13,5.34,7.33,9.31,9.6,3.96,2.27,8.51,3.4,13.63,3.4,6.52,0,11.96-1.69,16.31-5.09,4.35-3.39,7.26-7.96,8.73-13.72h-14.49c-1.66,4.86-5.21,7.29-10.65,7.29-3.84,0-6.88-1.39-9.11-4.17-2.24-2.78-3.36-6.7-3.36-11.75s1.12-9.07,3.36-11.85c2.24-2.78,5.28-4.17,9.11-4.17Zm72.23-10.56h13.53v53.16h-13.53v-7.77c-1.73,2.5-4.11,4.56-7.15,6.19-3.04,1.63-6.54,2.45-10.51,2.45-4.48,0-8.55-1.15-12.23-3.45-3.68-2.3-6.59-5.55-8.73-9.74-2.14-4.19-3.21-9-3.21-14.44s1.07-10.14,3.21-14.29c2.14-4.16,5.05-7.36,8.73-9.6,3.68-2.24,7.79-3.36,12.33-3.36,3.96,0,7.44,.8,10.41,2.4,2.97,1.6,5.36,3.61,7.15,6.04v-7.58Zm0,26.58c0-3.26-.64-6.06-1.92-8.4-1.28-2.33-3.01-4.13-5.18-5.37-2.17-1.25-4.51-1.87-7.01-1.87s-4.8,.61-6.91,1.82c-2.11,1.22-3.82,2.99-5.13,5.33-1.31,2.33-1.97,5.1-1.97,8.3s.66,6,1.97,8.4c1.31,2.4,3.04,4.24,5.18,5.52,2.14,1.28,4.43,1.92,6.86,1.92s4.83-.62,7.01-1.87c2.17-1.25,3.9-3.04,5.18-5.37,1.28-2.33,1.92-5.14,1.92-8.4Zm64.19-44.43h13.63v71.01h-13.63v-7.87c-1.67,2.62-4,4.74-7.01,6.33-3.01,1.6-6.49,2.4-10.46,2.4-4.48,0-8.57-1.15-12.28-3.45-3.71-2.3-6.64-5.55-8.78-9.74-2.14-4.19-3.21-9-3.21-14.44s1.07-10.14,3.21-14.29c2.14-4.16,5.07-7.36,8.78-9.6,3.71-2.24,7.83-3.36,12.38-3.36,3.46,0,6.75,.75,9.88,2.25,3.13,1.5,5.63,3.5,7.48,6v-25.24Zm.1,44.43c0-3.26-.64-6.06-1.92-8.4-1.28-2.33-3.01-4.13-5.18-5.37-2.17-1.25-4.51-1.87-7-1.87s-4.8,.61-6.91,1.82c-2.11,1.22-3.82,2.99-5.13,5.33-1.31,2.33-1.97,5.1-1.97,8.3s.66,6,1.97,8.4c1.31,2.4,3.04,4.24,5.18,5.52,2.14,1.28,4.43,1.92,6.86,1.92s4.83-.62,7-1.87c2.17-1.25,3.9-3.04,5.18-5.37,1.28-2.33,1.92-5.14,1.92-8.4Zm71.84-14.92c2.21,4,3.31,8.59,3.31,13.77,0,1.92-.13,3.65-.38,5.18h-38.86c.32,3.84,1.66,6.84,4.03,9.02,2.37,2.18,5.28,3.26,8.73,3.26,4.99,0,8.54-2.14,10.65-6.43h14.49c-1.53,5.12-4.48,9.32-8.83,12.62-4.35,3.3-9.69,4.94-16.02,4.94-5.12,0-9.71-1.14-13.77-3.4-4.06-2.27-7.23-5.49-9.5-9.64-2.27-4.16-3.41-8.96-3.41-14.39s1.12-10.33,3.36-14.49c2.24-4.16,5.37-7.36,9.4-9.6,4.03-2.24,8.67-3.36,13.91-3.36s9.58,1.09,13.58,3.26c4,2.18,7.1,5.26,9.31,9.26Zm-10.6,9.93c-.07-3.45-1.31-6.22-3.74-8.3-2.43-2.08-5.41-3.12-8.92-3.12-3.33,0-6.13,1.01-8.4,3.02-2.27,2.02-3.66,4.82-4.17,8.4h25.24Zm88.77-22.36c-3.84,0-7.4,.93-10.7,2.78-3.29,1.86-5.8,4.32-7.53,7.39-1.79-3.26-4.32-5.77-7.58-7.53-3.26-1.76-6.97-2.64-11.13-2.64-3.26,0-6.25,.64-8.97,1.92-2.72,1.28-4.94,3.04-6.67,5.28v-6.43h-13.43v53.16h13.43v-29.36c0-4.16,1.07-7.34,3.21-9.55,2.14-2.21,5.07-3.31,8.78-3.31s6.52,1.1,8.64,3.31c2.11,2.21,3.17,5.39,3.17,9.55v29.36h13.44v-29.36c0-4.16,1.07-7.34,3.21-9.55,2.14-2.21,5.04-3.31,8.68-3.31s6.52,1.1,8.64,3.31c2.11,2.21,3.17,5.39,3.17,9.55v29.36h13.43v-31.19c0-7.16-2-12.75-6-16.74-4-4-9.26-6-15.79-6Zm53.48,37.9l-13.72-37.14h-15.07l21.3,51.82-11.52,26.48h14.3l32.91-78.3h-14.3l-13.91,37.14Z"/><g><path class="cls-1" d="M1710.57,119.76c6.01-4.83,13.59-7.49,21.33-7.49s15.32,2.66,21.33,7.49c5.68,4.56,9.77,10.88,11.58,17.87h23.85c-1.98-13.39-8.53-25.69-18.51-34.76-10.46-9.5-24.01-14.73-38.15-14.73s-27.68,5.23-38.14,14.73c-9.98,9.06-16.52,21.36-18.5,34.76h23.63c1.82-6.99,5.9-13.31,11.58-17.87Z"/><path class="cls-1" d="M1806.45,137.63h26.29c-1.94-24.91-13.1-48.05-31.53-65.29-18.82-17.6-43.39-27.3-69.19-27.3s-50.37,9.69-69.19,27.3c-18.43,17.24-29.6,40.38-31.53,65.29h26.29c2.07-17.89,10.58-34.4,24.03-46.6,13.82-12.53,31.72-19.43,50.4-19.43s36.59,6.9,50.41,19.43c13.45,12.2,21.96,28.71,24.03,46.6Z"/><path class="cls-1" d="M1693.51,154.92h-106.4c.94,14.93,4.2,29.53,9.68,43.42l96.72-43.42Z"/><path class="cls-1" d="M1614.92,137.63c1.95-29.27,14.86-56.51,36.41-76.82,21.9-20.64,50.56-32.01,80.69-32.01s58.78,11.37,80.69,32.01c21.55,20.31,34.45,47.55,36.41,76.82h27.9c-1.65-36.94-17.3-71.41-44.13-97.18C1805.68,14.33,1769.86-.05,1732.01-.05s-73.67,14.38-100.87,40.5c-26.84,25.77-42.48,60.24-44.13,97.18h27.91Z"/><path class="cls-1" d="M1768.29,154.92l97.57,46.67c6.32-14.9,10.03-30.59,11.05-46.67h-108.62Z"/><path class="cls-1" d="M1772.61,284.18c13.97-4.03,27.21-10.13,39.41-18.15l-64.41-86.8,24.99,104.95Z"/><path class="cls-1" d="M1752.13,288.52l-20.65-105.89-23.17,105.33c8,1.32,15.98,1.98,23.71,1.98,6.55,0,13.31-.48,20.12-1.42Z"/><path class="cls-1" d="M1606.04,217.45c7.16,12.38,16.13,23.62,26.66,33.43l69.95-82.12-96.61,48.69Z"/><path class="cls-1" d="M1761.09,170.02l67.53,83.3c10.77-9.54,20.01-20.57,27.51-32.81l-95.04-50.49Z"/><path class="cls-1" d="M1715.66,178.81l-66.69,85.19c11.97,8.3,25.07,14.73,38.99,19.12l26.09-97.66,1.61-6.64Z"/></g></svg>