<?xml version="1.0" encoding="UTF-8"?><svg id="Layer_1" xmlns="http://www.w3.org/2000/svg" viewBox="0 0 1000 440"><defs><style>.cls-1{fill:#fff;}</style></defs><path class="cls-1" d="M705.6,16.74c2.37,0,4.33-.75,5.9-2.26,1.57-1.5,2.35-3.37,2.35-5.61s-.79-4.11-2.35-5.61c-1.57-1.5-3.53-2.25-5.9-2.25s-4.33,.75-5.9,2.25c-1.57,1.5-2.35,3.38-2.35,5.61s.78,4.11,2.35,5.61c1.57,1.5,3.53,2.26,5.9,2.26Z"/><path class="cls-1" d="M512.94,280.93v-53.16h-13.53v7.58c-1.79-2.43-4.17-4.45-7.15-6.04s-6.45-2.4-10.41-2.4c-4.54,0-8.65,1.12-12.33,3.36-3.68,2.24-6.59,5.44-8.73,9.6-2.14,4.16-3.21,8.92-3.21,14.29s1.07,10.25,3.21,14.44c2.14,4.19,5.05,7.44,8.73,9.74,3.68,2.3,7.76,3.45,12.23,3.45,3.97,0,7.47-.81,10.51-2.45,3.04-1.63,5.42-3.69,7.15-6.19v7.77h13.53Zm-15.45-18.18c-1.28,2.33-3.01,4.12-5.18,5.37-2.17,1.25-4.51,1.87-7.01,1.87s-4.72-.64-6.86-1.92c-2.14-1.28-3.87-3.12-5.18-5.52-1.31-2.4-1.97-5.2-1.97-8.4s.66-5.96,1.97-8.3c1.31-2.34,3.02-4.11,5.13-5.33,2.11-1.21,4.41-1.82,6.91-1.82s4.83,.62,7.01,1.87c2.17,1.25,3.9,3.04,5.18,5.37,1.28,2.33,1.92,5.13,1.92,8.4s-.64,6.06-1.92,8.4Z"/><path class="cls-1" d="M546.23,226.91c-4.54,0-8.67,1.12-12.38,3.36-3.71,2.24-6.64,5.44-8.78,9.6-2.14,4.16-3.21,8.92-3.21,14.29s1.07,10.25,3.21,14.44c2.14,4.19,5.07,7.44,8.78,9.74,3.71,2.3,7.8,3.45,12.28,3.45,3.97,0,7.45-.8,10.46-2.4,3.01-1.6,5.34-3.71,7.01-6.33v7.87h13.63v-71.01h-13.63v25.24c-1.86-2.5-4.35-4.49-7.48-6-3.14-1.5-6.43-2.25-9.88-2.25Zm15.55,19.05c1.28,2.33,1.92,5.13,1.92,8.4s-.64,6.06-1.92,8.4c-1.28,2.33-3.01,4.12-5.18,5.37-2.17,1.25-4.51,1.87-7,1.87s-4.72-.64-6.86-1.92c-2.14-1.28-3.87-3.12-5.18-5.52-1.31-2.4-1.97-5.2-1.97-8.4s.66-5.96,1.97-8.3c1.31-2.34,3.02-4.11,5.13-5.33,2.11-1.21,4.41-1.82,6.91-1.82s4.83,.62,7,1.87c2.17,1.25,3.9,3.04,5.18,5.37Z"/><path class="cls-1" d="M581.57,73.64c3.68,2.3,7.76,3.45,12.23,3.45,3.97,0,7.47-.81,10.51-2.45,3.04-1.63,5.42-3.69,7.15-6.19v7.77h13.53V23.07h-13.53v7.58c-1.79-2.43-4.17-4.45-7.15-6.04-2.97-1.6-6.45-2.4-10.41-2.4-4.54,0-8.65,1.12-12.33,3.36-3.68,2.24-6.59,5.44-8.73,9.59-2.14,4.16-3.21,8.92-3.21,14.3s1.07,10.25,3.21,14.44c2.14,4.19,5.05,7.44,8.73,9.74Zm3.74-32.48c1.31-2.34,3.02-4.11,5.13-5.33,2.11-1.21,4.41-1.82,6.91-1.82s4.83,.62,7.01,1.87c2.17,1.25,3.9,3.04,5.18,5.37,1.28,2.33,1.92,5.13,1.92,8.4s-.64,6.06-1.92,8.4-3.01,4.13-5.18,5.37c-2.17,1.25-4.51,1.87-7.01,1.87s-4.72-.64-6.86-1.92c-2.14-1.28-3.87-3.12-5.18-5.52-1.31-2.4-1.97-5.2-1.97-8.4s.66-5.96,1.97-8.3Z"/><path class="cls-1" d="M650.27,46.87c0-4.22,1.07-7.47,3.21-9.74,2.14-2.27,5.07-3.41,8.78-3.41s6.52,1.14,8.64,3.41c2.11,2.27,3.17,5.52,3.17,9.74v29.36h13.43v-31.19c0-7.16-1.95-12.75-5.85-16.74-3.9-4-9.02-6-15.35-6-3.33,0-6.38,.66-9.16,1.97-2.78,1.31-5.07,3.12-6.86,5.42v-6.62h-13.43v53.16h13.43v-29.36Z"/><path class="cls-1" d="M644.18,151.97c0-4.93,1.07-8.38,3.21-10.36,2.14-1.98,5.33-2.97,9.55-2.97h3.55v-14.11c-3.58,0-6.77,.8-9.55,2.4-2.78,1.6-5.04,3.81-6.76,6.62v-8.25h-13.44v53.16h13.44v-26.48Z"/><path class="cls-1" d="M598.74,230.27c-4.03,2.24-7.17,5.44-9.4,9.6-2.24,4.16-3.36,8.99-3.36,14.49s1.14,10.23,3.41,14.39c2.27,4.16,5.44,7.37,9.5,9.64,4.06,2.27,8.65,3.4,13.77,3.4,6.33,0,11.67-1.64,16.02-4.94,4.35-3.29,7.29-7.5,8.83-12.62h-14.49c-2.11,4.29-5.66,6.43-10.65,6.43-3.46,0-6.37-1.09-8.73-3.26-2.37-2.17-3.71-5.18-4.03-9.02h38.86c.25-1.53,.38-3.26,.38-5.18,0-5.18-1.1-9.77-3.31-13.77-2.21-4-5.31-7.08-9.31-9.26-4-2.17-8.53-3.26-13.58-3.26s-9.88,1.12-13.91,3.36Zm26.2,19.09h-25.24c.51-3.58,1.9-6.38,4.17-8.4,2.27-2.01,5.07-3.02,8.4-3.02,3.52,0,6.49,1.04,8.92,3.12,2.43,2.08,3.68,4.85,3.74,8.3Z"/><path class="cls-1" d="M581.94,175.91c4.06,2.27,8.65,3.4,13.77,3.4,6.33,0,11.67-1.64,16.02-4.94,4.35-3.29,7.29-7.5,8.83-12.62h-14.49c-2.11,4.29-5.66,6.43-10.65,6.43-3.45,0-6.37-1.09-8.73-3.26-2.37-2.17-3.71-5.18-4.03-9.02h38.86c.25-1.53,.39-3.26,.39-5.18,0-5.18-1.1-9.77-3.31-13.77-2.21-4-5.31-7.08-9.31-9.26-4-2.17-8.53-3.26-13.58-3.26s-9.88,1.12-13.91,3.36c-4.03,2.24-7.17,5.44-9.4,9.6-2.24,4.16-3.36,8.99-3.36,14.49s1.14,10.23,3.41,14.39c2.27,4.16,5.44,7.37,9.5,9.64Zm4.99-37.42c2.27-2.01,5.07-3.02,8.4-3.02,3.52,0,6.49,1.04,8.92,3.12,2.43,2.08,3.68,4.85,3.74,8.3h-25.24c.51-3.58,1.9-6.38,4.17-8.4Z"/><path class="cls-1" d="M421.14,74.26c3.2,1.76,6.88,2.64,11.03,2.64,3.26,0,6.29-.66,9.07-1.97,2.78-1.31,5.04-3.12,6.76-5.42v6.72h13.53V23.07h-13.53v29.27c0,4.22-1.05,7.47-3.17,9.74-2.11,2.27-5.02,3.41-8.73,3.41s-6.53-1.14-8.64-3.41c-2.11-2.27-3.17-5.52-3.17-9.74V23.07h-13.44v31.19c0,4.74,.91,8.81,2.74,12.24,1.82,3.42,4.33,6.01,7.53,7.77Z"/><path class="cls-1" d="M516.91,175.86c3.71,2.3,7.8,3.45,12.28,3.45,3.97,0,7.45-.8,10.46-2.4,3.01-1.6,5.34-3.71,7.01-6.33v7.87h13.63V107.44h-13.63v25.24c-1.86-2.49-4.35-4.49-7.48-6-3.14-1.5-6.43-2.25-9.88-2.25-4.54,0-8.67,1.12-12.38,3.36-3.71,2.24-6.64,5.44-8.78,9.6-2.14,4.16-3.21,8.92-3.21,14.3s1.07,10.25,3.21,14.44c2.14,4.19,5.07,7.44,8.78,9.74Zm3.69-32.48c1.31-2.34,3.02-4.11,5.14-5.33,2.11-1.21,4.41-1.82,6.91-1.82s4.83,.62,7,1.87,3.9,3.04,5.18,5.37c1.28,2.33,1.92,5.13,1.92,8.4s-.64,6.06-1.92,8.4c-1.28,2.33-3.01,4.13-5.18,5.37-2.17,1.25-4.51,1.87-7,1.87s-4.72-.64-6.86-1.92c-2.14-1.28-3.87-3.12-5.18-5.52s-1.97-5.2-1.97-8.4,.66-5.96,1.97-8.3Z"/><polygon class="cls-1" points="378.73 167.8 356.66 167.8 356.66 111.47 343.23 111.47 343.23 178.45 378.73 178.45 378.73 167.8"/><polygon class="cls-1" points="356.66 47.73 385.35 47.73 385.35 76.23 398.79 76.23 398.79 9.25 385.35 9.25 385.35 36.79 356.66 36.79 356.66 9.25 343.23 9.25 343.23 76.23 356.66 76.23 356.66 47.73"/><path class="cls-1" d="M353.36,268.17h26.68l4.41,12.76h14.2l-24.08-67.07h-15.64l-24.09,67.07h14.11l4.41-12.76Zm13.34-38.77l9.69,28.02h-19.38l9.69-28.02Z"/><path class="cls-1" d="M427.18,238.33c2.69,0,4.94,.66,6.77,1.97,1.82,1.31,3.12,3.12,3.88,5.42h14.49c-1.47-5.95-4.36-10.57-8.68-13.86-4.32-3.29-9.77-4.94-16.36-4.94-5.12,0-9.66,1.14-13.63,3.41-3.97,2.27-7.07,5.47-9.31,9.6-2.24,4.13-3.36,8.94-3.36,14.44s1.12,10.31,3.36,14.44c2.24,4.13,5.34,7.33,9.31,9.6,3.96,2.27,8.51,3.4,13.63,3.4,6.52,0,11.96-1.69,16.31-5.09,4.35-3.39,7.26-7.96,8.73-13.72h-14.49c-1.66,4.86-5.21,7.29-10.65,7.29-3.84,0-6.88-1.39-9.11-4.18-2.24-2.78-3.36-6.7-3.36-11.75s1.12-9.07,3.36-11.85c2.24-2.78,5.28-4.18,9.11-4.18Z"/><path class="cls-1" d="M486.86,46.87c0-4.16,1.07-7.34,3.21-9.55,2.14-2.21,5.07-3.31,8.78-3.31s6.52,1.1,8.64,3.31c2.11,2.21,3.17,5.39,3.17,9.55v29.36h13.44v-29.36c0-4.16,1.07-7.34,3.21-9.55,2.14-2.21,5.04-3.31,8.68-3.31s6.52,1.1,8.64,3.31c2.11,2.21,3.17,5.39,3.17,9.55v29.36h13.44v-31.19c0-7.16-2-12.75-6-16.74-4-4-9.26-6-15.79-6-3.84,0-7.4,.93-10.7,2.78-3.3,1.86-5.81,4.32-7.53,7.39-1.79-3.26-4.32-5.77-7.58-7.53-3.26-1.76-6.97-2.64-11.13-2.64-3.26,0-6.25,.64-8.97,1.92-2.72,1.28-4.94,3.04-6.67,5.28v-6.43h-13.43v53.16h13.43v-29.36Z"/><path class="cls-1" d="M443.84,137.38c-2.14,4.16-3.21,8.92-3.21,14.3s1.07,10.25,3.21,14.44c2.14,4.19,5.05,7.44,8.73,9.74,3.68,2.3,7.76,3.45,12.24,3.45,3.96,0,7.47-.81,10.51-2.45,3.04-1.63,5.42-3.69,7.15-6.19v7.77h13.53v-53.16h-13.53v7.58c-1.79-2.43-4.17-4.45-7.15-6.04s-6.45-2.4-10.41-2.4c-4.54,0-8.65,1.12-12.33,3.36-3.68,2.24-6.59,5.44-8.73,9.6Zm12.47,6c1.31-2.34,3.02-4.11,5.13-5.33,2.11-1.21,4.41-1.82,6.91-1.82s4.83,.62,7.01,1.87c2.18,1.25,3.9,3.04,5.18,5.37,1.28,2.33,1.92,5.13,1.92,8.4s-.64,6.06-1.92,8.4c-1.28,2.33-3.01,4.13-5.18,5.37-2.17,1.25-4.51,1.87-7.01,1.87s-4.72-.64-6.86-1.92c-2.14-1.28-3.87-3.12-5.18-5.52-1.31-2.4-1.97-5.2-1.97-8.4s.66-5.96,1.97-8.3Z"/><rect class="cls-1" x="781" y="125.29" width="13.44" height="53.16"/><path class="cls-1" d="M793.72,105.47c-1.57-1.5-3.53-2.25-5.9-2.25s-4.33,.75-5.9,2.25c-1.57,1.5-2.35,3.38-2.35,5.61s.78,4.11,2.35,5.61c1.57,1.5,3.54,2.26,5.9,2.26s4.33-.75,5.9-2.26c1.57-1.5,2.35-3.37,2.35-5.61s-.78-4.11-2.35-5.61Z"/><polygon class="cls-1" points="762.49 306.07 795.4 227.77 781.1 227.77 767.19 264.91 753.47 227.77 738.4 227.77 759.7 279.59 748.19 306.07 762.49 306.07"/><path class="cls-1" d="M385.35,137.38c-2.24,4.16-3.36,8.99-3.36,14.49s1.14,10.23,3.41,14.39c2.27,4.16,5.44,7.37,9.5,9.64,4.06,2.27,8.65,3.4,13.77,3.4,6.33,0,11.67-1.64,16.02-4.94,4.35-3.29,7.29-7.5,8.83-12.62h-14.49c-2.11,4.29-5.66,6.43-10.65,6.43-3.46,0-6.37-1.09-8.73-3.26-2.37-2.17-3.71-5.18-4.03-9.02h38.86c.25-1.53,.39-3.26,.39-5.18,0-5.18-1.1-9.77-3.31-13.77-2.21-4-5.31-7.08-9.31-9.26-4-2.17-8.53-3.26-13.58-3.26s-9.88,1.12-13.91,3.36c-4.03,2.24-7.17,5.44-9.4,9.6Zm14.54,1.1c2.27-2.01,5.07-3.02,8.4-3.02,3.52,0,6.49,1.04,8.92,3.12,2.43,2.08,3.68,4.85,3.74,8.3h-25.23c.51-3.58,1.9-6.38,4.17-8.4Z"/><path class="cls-1" d="M725.94,59.73c0,11,5.66,16.51,16.98,16.51h8.45v-11.32h-6.24c-2.05,0-3.5-.4-4.37-1.2-.86-.8-1.3-2.1-1.3-3.89v-25.71h11.9v-11.04h-11.9V9.92h-13.53v13.15h-6.33v11.04h6.33v25.62Z"/><path class="cls-1" d="M735.5,280.93v-31.19c0-7.16-2-12.75-6-16.74-4-4-9.26-6-15.79-6-3.84,0-7.4,.93-10.7,2.78-3.29,1.86-5.8,4.32-7.53,7.39-1.79-3.26-4.32-5.77-7.58-7.53-3.26-1.76-6.97-2.64-11.13-2.64-3.26,0-6.25,.64-8.97,1.92-2.72,1.28-4.94,3.04-6.67,5.28v-6.43h-13.43v53.16h13.43v-29.36c0-4.16,1.07-7.34,3.21-9.55,2.14-2.21,5.07-3.31,8.78-3.31s6.52,1.1,8.64,3.31c2.11,2.21,3.17,5.39,3.17,9.55v29.36h13.44v-29.36c0-4.16,1.07-7.34,3.21-9.55,2.14-2.21,5.04-3.31,8.68-3.31s6.52,1.1,8.64,3.31c2.11,2.21,3.17,5.39,3.17,9.55v29.36h13.43Z"/><path class="cls-1" d="M732.49,149.09c0-4.22,1.07-7.47,3.21-9.74,2.14-2.27,5.07-3.41,8.78-3.41s6.53,1.14,8.64,3.41c2.11,2.27,3.17,5.52,3.17,9.74v29.36h13.43v-31.19c0-4.8-.88-8.91-2.64-12.33-1.76-3.42-4.21-6.01-7.34-7.77-3.13-1.76-6.72-2.64-10.75-2.64-3.52,0-6.72,.66-9.59,1.97-2.88,1.31-5.18,3.12-6.91,5.42v-24.47h-13.44v71.01h13.44v-29.36Z"/><path class="cls-1" d="M806.39,125.29v78.49h13.44v-32.91c1.85,2.43,4.27,4.45,7.24,6.05,2.97,1.6,6.41,2.4,10.32,2.4,4.54,0,8.65-1.15,12.33-3.45,3.68-2.3,6.59-5.55,8.73-9.74,2.14-4.19,3.21-9,3.21-14.44s-1.07-10.22-3.21-14.35c-2.14-4.13-5.05-7.31-8.73-9.55-3.68-2.24-7.79-3.36-12.33-3.36-3.9,0-7.37,.81-10.41,2.45-3.04,1.63-5.42,3.66-7.15,6.09v-7.68h-13.44Zm15.4,18.23c1.31-2.37,3.04-4.17,5.18-5.42,2.14-1.25,4.43-1.87,6.86-1.87s4.81,.61,6.96,1.82c2.14,1.22,3.87,2.99,5.18,5.33,1.31,2.33,1.97,5.1,1.97,8.3s-.66,6.08-1.97,8.44c-1.31,2.37-3.04,4.19-5.18,5.47-2.14,1.28-4.46,1.92-6.96,1.92s-4.72-.62-6.86-1.87c-2.14-1.25-3.87-3.06-5.18-5.42-1.31-2.37-1.97-5.15-1.97-8.35s.65-5.98,1.97-8.35Z"/><path class="cls-1" d="M866.77,16.74c2.37,0,4.33-.75,5.9-2.26,1.57-1.5,2.35-3.37,2.35-5.61s-.78-4.11-2.35-5.61c-1.57-1.5-3.53-2.25-5.9-2.25s-4.33,.75-5.9,2.25c-1.57,1.5-2.35,3.38-2.35,5.61s.78,4.11,2.35,5.61c1.57,1.5,3.53,2.26,5.9,2.26Z"/><path class="cls-1" d="M894.07,73.64c3.68,2.3,7.76,3.45,12.23,3.45,3.97,0,7.47-.81,10.51-2.45,3.04-1.63,5.42-3.69,7.15-6.19v7.77h13.53V23.07h-13.53v7.58c-1.79-2.43-4.17-4.45-7.15-6.04-2.97-1.6-6.44-2.4-10.41-2.4-4.54,0-8.65,1.12-12.33,3.36-3.68,2.24-6.59,5.44-8.73,9.59-2.14,4.16-3.21,8.92-3.21,14.3s1.07,10.25,3.21,14.44c2.14,4.19,5.05,7.44,8.73,9.74Zm3.74-32.48c1.31-2.34,3.02-4.11,5.14-5.33,2.11-1.21,4.41-1.82,6.91-1.82s4.83,.62,7.01,1.87c2.17,1.25,3.9,3.04,5.18,5.37,1.28,2.33,1.92,5.13,1.92,8.4s-.64,6.06-1.92,8.4-3.01,4.13-5.18,5.37c-2.17,1.25-4.51,1.87-7.01,1.87s-4.72-.64-6.86-1.92c-2.14-1.28-3.87-3.12-5.18-5.52-1.31-2.4-1.97-5.2-1.97-8.4s.65-5.96,1.97-8.3Z"/><rect class="cls-1" x="859.96" y="23.07" width="13.43" height="53.16"/><path class="cls-1" d="M768.21,73.64c3.68,2.3,7.76,3.45,12.24,3.45,3.96,0,7.47-.81,10.51-2.45,3.04-1.63,5.42-3.69,7.15-6.19v7.77h13.53V23.07h-13.53v7.58c-1.79-2.43-4.17-4.45-7.15-6.04s-6.44-2.4-10.41-2.4c-4.54,0-8.65,1.12-12.33,3.36-3.68,2.24-6.59,5.44-8.73,9.59-2.14,4.16-3.21,8.92-3.21,14.3s1.07,10.25,3.21,14.44c2.14,4.19,5.05,7.44,8.73,9.74Zm3.74-32.48c1.31-2.34,3.02-4.11,5.14-5.33,2.11-1.21,4.41-1.82,6.91-1.82s4.83,.62,7.01,1.87c2.17,1.25,3.9,3.04,5.18,5.37,1.28,2.33,1.92,5.13,1.92,8.4s-.64,6.06-1.92,8.4c-1.28,2.33-3.01,4.13-5.18,5.37-2.18,1.25-4.51,1.87-7.01,1.87s-4.72-.64-6.86-1.92c-2.14-1.28-3.87-3.12-5.18-5.52-1.31-2.4-1.97-5.2-1.97-8.4s.65-5.96,1.97-8.3Z"/><path class="cls-1" d="M694.33,167.22c-1.44,1.02-3.44,1.54-6,1.54s-4.81-.67-6.57-2.02c-1.76-1.34-2.77-3.04-3.02-5.09h-13.53c.19,3.26,1.29,6.24,3.31,8.92,2.02,2.69,4.75,4.81,8.2,6.38,3.46,1.57,7.36,2.35,11.71,2.35s7.92-.69,11.08-2.06c3.17-1.37,5.6-3.28,7.29-5.71,1.69-2.43,2.54-5.18,2.54-8.25-.06-3.52-1.01-6.35-2.83-8.49-1.82-2.14-3.98-3.73-6.48-4.75-2.49-1.02-5.66-2.02-9.5-2.97-3.78-.96-6.56-1.9-8.35-2.83-1.79-.93-2.69-2.29-2.69-4.08,0-1.6,.65-2.85,1.97-3.74,1.31-.89,3.18-1.34,5.61-1.34,2.62,0,4.72,.62,6.28,1.87,1.57,1.25,2.45,2.93,2.64,5.04h12.86c-.38-5.37-2.46-9.64-6.24-12.81-3.78-3.17-8.83-4.75-15.16-4.75-4.29,0-8.01,.7-11.18,2.11-3.17,1.41-5.6,3.33-7.29,5.76-1.69,2.43-2.54,5.12-2.54,8.06,0,3.58,.91,6.43,2.73,8.54,1.82,2.11,4,3.68,6.53,4.7,2.53,1.02,5.77,2.02,9.74,2.98,3.84,1.02,6.64,1.97,8.4,2.83,1.76,.86,2.64,2.16,2.64,3.89,0,1.6-.72,2.91-2.16,3.93Z"/><path class="cls-1" d="M836.92,49.75c0-4.93,1.07-8.38,3.21-10.36,2.14-1.98,5.33-2.97,9.55-2.97h3.55v-14.11c-3.58,0-6.77,.8-9.55,2.4-2.78,1.6-5.04,3.81-6.77,6.62v-8.25h-13.43v53.16h13.43v-26.48Z"/><path class="cls-1" d="M994.15,28.3c-3.9-4-9.02-6-15.35-6-3.33,0-6.38,.66-9.16,1.97-2.78,1.31-5.07,3.12-6.86,5.42v-6.62h-13.43v53.16h13.43v-29.36c0-4.22,1.07-7.47,3.21-9.74,2.14-2.27,5.07-3.41,8.78-3.41s6.52,1.14,8.64,3.41c2.11,2.27,3.17,5.52,3.17,9.74v29.36h13.43v-31.19c0-7.16-1.95-12.75-5.85-16.74Z"/><rect class="cls-1" x="698.79" y="23.07" width="13.44" height="53.16"/><polygon class="cls-1" points="7.2 389.38 0 389.38 0 425.27 19.03 425.27 19.03 419.57 7.2 419.57 7.2 389.38"/><path class="cls-1" d="M43.02,398.15c-2.23-1.22-4.71-1.83-7.46-1.83s-5.23,.61-7.46,1.83c-2.23,1.22-3.99,2.94-5.27,5.17-1.29,2.23-1.93,4.8-1.93,7.71s.63,5.48,1.88,7.71c1.25,2.23,2.97,3.95,5.17,5.17,2.19,1.22,4.66,1.83,7.4,1.83s5.29-.61,7.53-1.83c2.24-1.22,4.03-2.94,5.35-5.17,1.32-2.23,1.98-4.8,1.98-7.71s-.64-5.48-1.93-7.71c-1.28-2.23-3.04-3.95-5.27-5.17Zm-1.23,17.51c-.69,1.27-1.6,2.22-2.75,2.85-1.15,.63-2.37,.95-3.68,.95-2.06,0-3.76-.73-5.12-2.19-1.35-1.46-2.03-3.54-2.03-6.25s.69-4.79,2.08-6.25c1.39-1.46,3.11-2.19,5.17-2.19s3.8,.73,5.22,2.19c1.42,1.46,2.13,3.54,2.13,6.25,0,1.82-.34,3.36-1.03,4.63Z"/><path class="cls-1" d="M67.36,402.44c1.44,0,2.65,.35,3.63,1.05,.98,.7,1.67,1.67,2.08,2.9h7.77c-.79-3.19-2.34-5.66-4.65-7.43-2.31-1.77-5.24-2.65-8.77-2.65-2.74,0-5.18,.61-7.3,1.83-2.13,1.22-3.79,2.93-4.99,5.14-1.2,2.21-1.8,4.79-1.8,7.74s.6,5.53,1.8,7.74c1.2,2.21,2.86,3.93,4.99,5.14,2.12,1.22,4.56,1.83,7.3,1.83,3.5,0,6.41-.91,8.74-2.72,2.33-1.82,3.89-4.27,4.68-7.35h-7.77c-.89,2.61-2.79,3.91-5.71,3.91-2.06,0-3.69-.75-4.89-2.24-1.2-1.49-1.8-3.59-1.8-6.3s.6-4.86,1.8-6.35c1.2-1.49,2.83-2.24,4.89-2.24Z"/><path class="cls-1" d="M106.2,400.85c-.96-1.3-2.24-2.38-3.83-3.24-1.59-.86-3.45-1.29-5.58-1.29-2.43,0-4.64,.6-6.61,1.8-1.97,1.2-3.53,2.91-4.68,5.14-1.15,2.23-1.72,4.78-1.72,7.66s.57,5.49,1.72,7.74c1.15,2.25,2.71,3.99,4.68,5.22,1.97,1.23,4.16,1.85,6.56,1.85,2.13,0,4-.44,5.63-1.31,1.63-.87,2.91-1.98,3.83-3.32v4.17h7.25v-28.49h-7.25v4.06Zm-1.03,14.68c-.69,1.25-1.61,2.21-2.78,2.88-1.16,.67-2.42,1-3.75,1s-2.53-.34-3.68-1.03c-1.15-.69-2.07-1.67-2.78-2.96-.7-1.29-1.05-2.78-1.05-4.5s.35-3.2,1.05-4.45c.7-1.25,1.62-2.2,2.75-2.85,1.13-.65,2.37-.98,3.7-.98s2.59,.33,3.75,1c1.16,.67,2.09,1.63,2.78,2.88,.68,1.25,1.03,2.75,1.03,4.5s-.34,3.25-1.03,4.5Z"/><rect class="cls-1" x="119.93" y="387.22" width="7.2" height="38.05"/><rect class="cls-1" x="133.62" y="387.22" width="7.2" height="38.05"/><polygon class="cls-1" points="159.5 416.69 152.15 396.79 144.08 396.79 155.49 424.55 149.32 438.75 156.98 438.75 174.62 396.79 166.96 396.79 159.5 416.69"/><rect class="cls-1" x="177.23" y="403.88" width="21.8" height="6.07"/><rect class="cls-1" x="205.98" y="387.22" width="7.2" height="38.05"/><path class="cls-1" d="M239.66,398.07c-2.14-1.16-4.57-1.75-7.28-1.75s-5.3,.6-7.46,1.8c-2.16,1.2-3.84,2.91-5.04,5.14-1.2,2.23-1.8,4.82-1.8,7.76s.61,5.48,1.82,7.71c1.22,2.23,2.91,3.95,5.09,5.17,2.18,1.22,4.64,1.83,7.38,1.83,3.39,0,6.25-.88,8.59-2.65,2.33-1.77,3.91-4.02,4.73-6.76h-7.76c-1.13,2.3-3.03,3.45-5.71,3.45-1.85,0-3.41-.58-4.68-1.75s-1.99-2.78-2.16-4.83h20.83c.14-.82,.21-1.75,.21-2.78,0-2.78-.59-5.24-1.77-7.38-1.18-2.14-2.85-3.8-4.99-4.96Zm-14.22,10.28c.27-1.92,1.02-3.42,2.24-4.5,1.22-1.08,2.72-1.62,4.5-1.62,1.89,0,3.48,.56,4.78,1.67,1.3,1.12,1.97,2.6,2,4.45h-13.52Z"/><path class="cls-1" d="M272,400.74c-.99-1.34-2.33-2.41-4.01-3.21-1.68-.8-3.45-1.21-5.3-1.21-2.43,0-4.65,.6-6.63,1.8-1.99,1.2-3.56,2.91-4.71,5.14-1.15,2.23-1.72,4.78-1.72,7.66s.57,5.49,1.72,7.74c1.15,2.25,2.72,3.99,4.71,5.22,1.99,1.23,4.18,1.85,6.58,1.85,2.13,0,3.99-.43,5.6-1.28s2.86-1.99,3.75-3.39v4.22h7.3v-38.05h-7.3v13.52Zm-.98,14.78c-.69,1.25-1.61,2.21-2.78,2.88-1.16,.67-2.42,1-3.75,1s-2.53-.34-3.68-1.03c-1.15-.69-2.07-1.67-2.78-2.96-.7-1.29-1.05-2.78-1.05-4.5s.35-3.2,1.05-4.45c.7-1.25,1.62-2.2,2.75-2.85s2.37-.98,3.7-.98,2.59,.33,3.75,1c1.16,.67,2.09,1.63,2.78,2.88,.68,1.25,1.03,2.75,1.03,4.5s-.34,3.25-1.03,4.5Z"/><rect class="cls-1" x="298.59" y="387.22" width="7.2" height="38.05"/><path class="cls-1" d="M332.27,398.07c-2.14-1.16-4.57-1.75-7.28-1.75s-5.3,.6-7.46,1.8c-2.16,1.2-3.84,2.91-5.04,5.14-1.2,2.23-1.8,4.82-1.8,7.76s.61,5.48,1.82,7.71c1.22,2.23,2.91,3.95,5.09,5.17,2.18,1.22,4.64,1.83,7.38,1.83,3.39,0,6.25-.88,8.59-2.65,2.33-1.77,3.91-4.02,4.73-6.76h-7.76c-1.13,2.3-3.03,3.45-5.71,3.45-1.85,0-3.41-.58-4.68-1.75-1.27-1.17-1.99-2.78-2.16-4.83h20.83c.14-.82,.21-1.75,.21-2.78,0-2.78-.59-5.24-1.77-7.38-1.18-2.14-2.85-3.8-4.99-4.96Zm-14.22,10.28c.27-1.92,1.02-3.42,2.24-4.5,1.22-1.08,2.72-1.62,4.5-1.62,1.89,0,3.48,.56,4.78,1.67,1.3,1.12,1.97,2.6,2,4.45h-13.52Z"/><path class="cls-1" d="M364.66,400.85c-.96-1.3-2.24-2.38-3.83-3.24-1.59-.86-3.45-1.29-5.58-1.29-2.43,0-4.64,.6-6.61,1.8-1.97,1.2-3.53,2.91-4.68,5.14-1.15,2.23-1.72,4.78-1.72,7.66s.57,5.49,1.72,7.74c1.15,2.25,2.71,3.99,4.68,5.22,1.97,1.23,4.16,1.85,6.56,1.85,2.13,0,4-.44,5.63-1.31,1.63-.87,2.91-1.98,3.83-3.32v4.17h7.25v-28.49h-7.25v4.06Zm-1.03,14.68c-.69,1.25-1.61,2.21-2.78,2.88-1.16,.67-2.42,1-3.75,1s-2.53-.34-3.68-1.03c-1.15-.69-2.07-1.67-2.78-2.96-.7-1.29-1.05-2.78-1.05-4.5s.35-3.2,1.05-4.45c.7-1.25,1.62-2.2,2.75-2.85s2.37-.98,3.7-.98,2.59,.33,3.75,1c1.16,.67,2.09,1.63,2.78,2.88,.68,1.25,1.03,2.75,1.03,4.5s-.34,3.25-1.03,4.5Z"/><path class="cls-1" d="M385.59,401.21v-4.42h-7.2v28.49h7.2v-14.19c0-2.64,.57-4.49,1.72-5.55,1.15-1.06,2.85-1.59,5.12-1.59h1.9v-7.56c-1.92,0-3.62,.43-5.12,1.29-1.49,.86-2.7,2.04-3.62,3.55Z"/><path class="cls-1" d="M413.87,396.37c-1.78,0-3.42,.35-4.91,1.05-1.49,.7-2.72,1.67-3.68,2.9v-3.55h-7.2v28.49h7.2v-15.74c0-2.26,.57-4,1.72-5.22,1.15-1.22,2.72-1.83,4.71-1.83s3.5,.61,4.63,1.83c1.13,1.22,1.7,2.96,1.7,5.22v15.74h7.2v-16.71c0-3.84-1.05-6.83-3.14-8.97s-4.83-3.21-8.23-3.21Z"/><path class="cls-1" d="M435.06,384.96c-1.27,0-2.32,.4-3.16,1.21-.84,.81-1.26,1.81-1.26,3.01s.42,2.2,1.26,3.01c.84,.8,1.89,1.21,3.16,1.21s2.32-.4,3.16-1.21c.84-.81,1.26-1.81,1.26-3.01s-.42-2.2-1.26-3.01c-.84-.8-1.89-1.21-3.16-1.21Z"/><rect class="cls-1" x="431.41" y="396.79" width="7.2" height="28.49"/><path class="cls-1" d="M460.93,396.37c-1.78,0-3.42,.35-4.91,1.05-1.49,.7-2.72,1.67-3.68,2.9v-3.55h-7.2v28.49h7.2v-15.74c0-2.26,.57-4,1.72-5.22,1.15-1.22,2.72-1.83,4.71-1.83s3.5,.61,4.63,1.83c1.13,1.22,1.7,2.96,1.7,5.22v15.74h7.2v-16.71c0-3.84-1.05-6.83-3.14-8.97s-4.83-3.21-8.23-3.21Z"/><path class="cls-1" d="M499.35,400.85c-.92-1.34-2.19-2.42-3.81-3.27-1.61-.84-3.48-1.26-5.6-1.26-2.43,0-4.64,.6-6.61,1.8-1.97,1.2-3.53,2.91-4.68,5.14-1.15,2.23-1.72,4.78-1.72,7.66s.57,5.49,1.72,7.74c1.15,2.25,2.72,3.99,4.71,5.22,1.99,1.23,4.18,1.85,6.58,1.85,2.09,0,3.95-.44,5.58-1.34,1.63-.89,2.91-2.01,3.83-3.34v4.42c0,2.54-.65,4.43-1.95,5.68-1.3,1.25-3,1.88-5.09,1.88-1.78,0-3.3-.39-4.55-1.16-1.25-.77-2.07-1.81-2.44-3.11h-7.15c.34,3.26,1.81,5.83,4.4,7.71,2.59,1.88,5.9,2.83,9.95,2.83,3.02,0,5.59-.61,7.71-1.82,2.12-1.22,3.72-2.86,4.78-4.94,1.06-2.08,1.59-4.43,1.59-7.07v-28.69h-7.25v4.06Zm-1.03,14.68c-.69,1.25-1.61,2.21-2.78,2.88-1.16,.67-2.42,1-3.75,1s-2.53-.34-3.68-1.03c-1.15-.69-2.07-1.67-2.78-2.96-.7-1.29-1.05-2.78-1.05-4.5s.35-3.2,1.05-4.45c.7-1.25,1.62-2.2,2.75-2.85s2.37-.98,3.7-.98,2.59,.33,3.75,1c1.16,.67,2.09,1.63,2.78,2.88,.68,1.25,1.03,2.75,1.03,4.5s-.34,3.25-1.03,4.5Z"/><polygon class="cls-1" points="510.59 432.16 515.22 432.16 521.24 417.71 513.94 417.71 510.59 432.16"/><path class="cls-1" d="M547.05,389.74h-7.25v7.05h-3.39v5.91h3.39v13.73c0,5.9,3.03,8.85,9.1,8.85h4.53v-6.07h-3.34c-1.1,0-1.88-.21-2.34-.64-.46-.43-.69-1.12-.69-2.08v-13.78h6.38v-5.91h-6.38v-7.05Z"/><path class="cls-1" d="M565.7,401.21v-4.42h-7.2v28.49h7.2v-14.19c0-2.64,.57-4.49,1.72-5.55,1.15-1.06,2.85-1.59,5.12-1.59h1.9v-7.56c-1.92,0-3.62,.43-5.12,1.29-1.49,.86-2.7,2.04-3.62,3.55Z"/><path class="cls-1" d="M599.18,400.85c-.96-1.3-2.24-2.38-3.83-3.24s-3.45-1.29-5.58-1.29c-2.43,0-4.64,.6-6.61,1.8-1.97,1.2-3.53,2.91-4.68,5.14-1.15,2.23-1.72,4.78-1.72,7.66s.57,5.49,1.72,7.74c1.15,2.25,2.71,3.99,4.68,5.22,1.97,1.23,4.16,1.85,6.56,1.85,2.13,0,4-.44,5.63-1.31,1.63-.87,2.91-1.98,3.83-3.32v4.17h7.25v-28.49h-7.25v4.06Zm-1.03,14.68c-.69,1.25-1.61,2.21-2.78,2.88-1.16,.67-2.42,1-3.75,1s-2.53-.34-3.68-1.03c-1.15-.69-2.07-1.67-2.78-2.96-.7-1.29-1.05-2.78-1.05-4.5s.35-3.2,1.05-4.45c.7-1.25,1.62-2.2,2.75-2.85s2.37-.98,3.7-.98,2.59,.33,3.75,1c1.16,.67,2.09,1.63,2.78,2.88,.68,1.25,1.03,2.75,1.03,4.5s-.34,3.25-1.03,4.5Z"/><path class="cls-1" d="M628.7,396.37c-1.78,0-3.42,.35-4.91,1.05-1.49,.7-2.72,1.67-3.68,2.9v-3.55h-7.2v28.49h7.2v-15.74c0-2.26,.57-4,1.72-5.22,1.15-1.22,2.72-1.83,4.71-1.83s3.5,.61,4.63,1.83c1.13,1.22,1.7,2.96,1.7,5.22v15.74h7.2v-16.71c0-3.84-1.05-6.83-3.14-8.97s-4.83-3.21-8.23-3.21Z"/><path class="cls-1" d="M663.3,410.05c-1.34-.55-3.03-1.08-5.09-1.59-2.02-.51-3.52-1.02-4.47-1.52-.96-.5-1.44-1.23-1.44-2.19,0-.86,.35-1.52,1.05-2.01,.7-.48,1.7-.72,3.01-.72,1.4,0,2.53,.33,3.37,1,.84,.67,1.31,1.57,1.41,2.7h6.89c-.21-2.88-1.32-5.17-3.34-6.86-2.02-1.7-4.73-2.55-8.13-2.55-2.3,0-4.29,.38-5.99,1.13-1.7,.75-3,1.78-3.91,3.09-.91,1.3-1.36,2.74-1.36,4.32,0,1.92,.49,3.45,1.47,4.58,.98,1.13,2.14,1.97,3.5,2.52,1.35,.55,3.09,1.08,5.22,1.59,2.06,.55,3.56,1.05,4.5,1.52,.94,.46,1.41,1.16,1.41,2.08,0,.86-.39,1.56-1.16,2.11-.77,.55-1.84,.82-3.21,.82s-2.58-.36-3.52-1.08c-.94-.72-1.48-1.63-1.62-2.73h-7.25c.1,1.75,.69,3.34,1.77,4.78,1.08,1.44,2.54,2.58,4.4,3.42,1.85,.84,3.94,1.26,6.27,1.26s4.24-.37,5.94-1.1c1.7-.74,3-1.76,3.91-3.06,.91-1.3,1.36-2.78,1.36-4.42-.03-1.88-.54-3.4-1.52-4.55-.98-1.15-2.13-2-3.47-2.54Z"/><path class="cls-1" d="M681.77,395.6c0-1.61,.34-2.73,1.03-3.34,.68-.62,1.9-.91,3.65-.87v-6.07c-4.01-.1-7.01,.67-9,2.31-1.99,1.65-2.98,4.22-2.98,7.71v1.44h-3.24v5.91h3.24v22.58h7.3v-22.58h4.99v-5.91h-4.99v-1.18Z"/><path class="cls-1" d="M710.8,398.15c-2.23-1.22-4.71-1.83-7.46-1.83s-5.23,.61-7.46,1.83c-2.23,1.22-3.99,2.94-5.27,5.17-1.29,2.23-1.93,4.8-1.93,7.71s.63,5.48,1.88,7.71c1.25,2.23,2.97,3.95,5.17,5.17,2.19,1.22,4.66,1.83,7.4,1.83s5.29-.61,7.53-1.83c2.24-1.22,4.03-2.94,5.35-5.17,1.32-2.23,1.98-4.8,1.98-7.71s-.64-5.48-1.93-7.71c-1.28-2.23-3.04-3.95-5.27-5.17Zm-1.23,17.51c-.69,1.27-1.6,2.22-2.75,2.85-1.15,.63-2.37,.95-3.68,.95-2.06,0-3.76-.73-5.12-2.19-1.35-1.46-2.03-3.54-2.03-6.25s.69-4.79,2.08-6.25c1.39-1.46,3.11-2.19,5.17-2.19s3.8,.73,5.22,2.19c1.42,1.46,2.13,3.54,2.13,6.25,0,1.82-.34,3.36-1.03,4.63Z"/><path class="cls-1" d="M730,401.21v-4.42h-7.2v28.49h7.2v-14.19c0-2.64,.57-4.49,1.72-5.55,1.15-1.06,2.85-1.59,5.12-1.59h1.9v-7.56c-1.92,0-3.62,.43-5.12,1.29-1.49,.86-2.7,2.04-3.62,3.55Z"/><path class="cls-1" d="M777.87,396.37c-2.06,0-3.97,.5-5.73,1.49-1.77,.99-3.11,2.31-4.04,3.96-.96-1.75-2.31-3.09-4.06-4.04-1.75-.94-3.74-1.41-5.97-1.41-1.75,0-3.35,.34-4.81,1.03-1.46,.69-2.65,1.63-3.57,2.83v-3.45h-7.2v28.49h7.2v-15.74c0-2.23,.57-3.93,1.72-5.12,1.15-1.18,2.72-1.77,4.71-1.77s3.5,.59,4.63,1.77,1.7,2.89,1.7,5.12v15.74h7.2v-15.74c0-2.23,.57-3.93,1.72-5.12,1.15-1.18,2.7-1.77,4.65-1.77s3.5,.59,4.63,1.77,1.7,2.89,1.7,5.12v15.74h7.2v-16.71c0-3.84-1.07-6.83-3.21-8.97-2.14-2.14-4.96-3.21-8.46-3.21Z"/><path class="cls-1" d="M799.38,384.96c-1.27,0-2.32,.4-3.16,1.21-.84,.81-1.26,1.81-1.26,3.01s.42,2.2,1.26,3.01c.84,.8,1.89,1.21,3.16,1.21s2.32-.4,3.16-1.21c.84-.81,1.26-1.81,1.26-3.01s-.42-2.2-1.26-3.01c-.84-.8-1.89-1.21-3.16-1.21Z"/><rect class="cls-1" x="795.73" y="396.79" width="7.2" height="28.49"/><path class="cls-1" d="M825.25,396.37c-1.78,0-3.42,.35-4.91,1.05-1.49,.7-2.72,1.67-3.68,2.9v-3.55h-7.2v28.49h7.2v-15.74c0-2.26,.57-4,1.72-5.22,1.15-1.22,2.72-1.83,4.71-1.83s3.5,.61,4.63,1.83c1.13,1.22,1.7,2.96,1.7,5.22v15.74h7.2v-16.71c0-3.84-1.05-6.83-3.14-8.97s-4.83-3.21-8.23-3.21Z"/><path class="cls-1" d="M863.66,400.85c-.92-1.34-2.19-2.42-3.81-3.27-1.61-.84-3.48-1.26-5.6-1.26-2.43,0-4.64,.6-6.61,1.8-1.97,1.2-3.53,2.91-4.68,5.14-1.15,2.23-1.72,4.78-1.72,7.66s.57,5.49,1.72,7.74c1.15,2.25,2.72,3.99,4.71,5.22,1.99,1.23,4.18,1.85,6.58,1.85,2.09,0,3.95-.44,5.58-1.34,1.63-.89,2.91-2.01,3.83-3.34v4.42c0,2.54-.65,4.43-1.95,5.68-1.3,1.25-3,1.88-5.09,1.88-1.78,0-3.3-.39-4.55-1.16-1.25-.77-2.07-1.81-2.44-3.11h-7.15c.34,3.26,1.81,5.83,4.4,7.71,2.59,1.88,5.9,2.83,9.95,2.83,3.02,0,5.59-.61,7.71-1.82,2.12-1.22,3.72-2.86,4.78-4.94,1.06-2.08,1.59-4.43,1.59-7.07v-28.69h-7.25v4.06Zm-1.03,14.68c-.69,1.25-1.61,2.21-2.78,2.88-1.16,.67-2.42,1-3.75,1s-2.53-.34-3.68-1.03c-1.15-.69-2.07-1.67-2.78-2.96-.7-1.29-1.05-2.78-1.05-4.5s.35-3.2,1.05-4.45c.7-1.25,1.62-2.2,2.75-2.85s2.37-.98,3.7-.98,2.59,.33,3.75,1c1.16,.67,2.09,1.63,2.78,2.88,.68,1.25,1.03,2.75,1.03,4.5s-.34,3.25-1.03,4.5Z"/><rect class="cls-1" x="890.19" y="387.22" width="7.2" height="38.05"/><path class="cls-1" d="M907.6,384.96c-1.27,0-2.32,.4-3.16,1.21-.84,.81-1.26,1.81-1.26,3.01s.42,2.2,1.26,3.01c.84,.8,1.89,1.21,3.16,1.21s2.32-.4,3.16-1.21c.84-.81,1.26-1.81,1.26-3.01s-.42-2.2-1.26-3.01c-.84-.8-1.89-1.21-3.16-1.21Z"/><rect class="cls-1" x="903.95" y="396.79" width="7.2" height="28.49"/><polygon class="cls-1" points="929.44 418.64 922.24 396.79 914.53 396.79 925.02 425.27 933.76 425.27 944.3 396.79 936.64 396.79 929.44 418.64"/><path class="cls-1" d="M966.49,398.07c-2.14-1.16-4.57-1.75-7.28-1.75s-5.3,.6-7.46,1.8c-2.16,1.2-3.84,2.91-5.04,5.14-1.2,2.23-1.8,4.82-1.8,7.76s.61,5.48,1.82,7.71c1.22,2.23,2.91,3.95,5.09,5.17,2.18,1.22,4.64,1.83,7.38,1.83,3.39,0,6.25-.88,8.59-2.65,2.33-1.77,3.91-4.02,4.73-6.76h-7.76c-1.13,2.3-3.03,3.45-5.71,3.45-1.85,0-3.41-.58-4.68-1.75s-1.99-2.78-2.16-4.83h20.83c.14-.82,.21-1.75,.21-2.78,0-2.78-.59-5.24-1.77-7.38-1.18-2.14-2.85-3.8-4.99-4.96Zm-14.22,10.28c.27-1.92,1.02-3.42,2.24-4.5,1.22-1.08,2.72-1.62,4.5-1.62,1.89,0,3.48,.56,4.78,1.67,1.3,1.12,1.97,2.6,2,4.45h-13.52Z"/><path class="cls-1" d="M995.01,410.05c-1.34-.55-3.03-1.08-5.09-1.59-2.02-.51-3.52-1.02-4.47-1.52-.96-.5-1.44-1.23-1.44-2.19,0-.86,.35-1.52,1.05-2.01,.7-.48,1.7-.72,3.01-.72,1.4,0,2.53,.33,3.37,1,.84,.67,1.31,1.57,1.41,2.7h6.89c-.21-2.88-1.32-5.17-3.34-6.86-2.02-1.7-4.73-2.55-8.13-2.55-2.3,0-4.29,.38-5.99,1.13-1.7,.75-3,1.78-3.91,3.09-.91,1.3-1.36,2.74-1.36,4.32,0,1.92,.49,3.45,1.47,4.58,.98,1.13,2.14,1.97,3.5,2.52,1.35,.55,3.09,1.08,5.22,1.59,2.06,.55,3.56,1.05,4.5,1.52,.94,.46,1.41,1.16,1.41,2.08,0,.86-.39,1.56-1.16,2.11-.77,.55-1.84,.82-3.21,.82s-2.58-.36-3.52-1.08c-.94-.72-1.48-1.63-1.62-2.73h-7.25c.1,1.75,.69,3.34,1.77,4.78,1.08,1.44,2.54,2.58,4.4,3.42,1.85,.84,3.94,1.26,6.27,1.26s4.24-.37,5.94-1.1c1.7-.74,3-1.76,3.91-3.06,.91-1.3,1.36-2.78,1.36-4.42-.03-1.88-.54-3.4-1.52-4.55-.98-1.15-2.13-2-3.47-2.54Z"/><rect class="cls-1" y="348" width="1000" height="7"/><path class="cls-1" d="M183.15,102.93c-10.46-9.5-24.01-14.73-38.15-14.73s-27.68,5.23-38.14,14.73c-9.98,9.06-16.52,21.36-18.5,34.76h23.63c1.82-6.99,5.9-13.31,11.58-17.87,6.01-4.83,13.59-7.49,21.33-7.49s15.32,2.66,21.33,7.49c5.68,4.56,9.77,10.88,11.58,17.87h23.85c-1.98-13.39-8.53-25.69-18.51-34.76Z"/><path class="cls-1" d="M245.73,137.68c-1.94-24.91-13.1-48.05-31.53-65.29-18.82-17.6-43.39-27.3-69.19-27.3s-50.37,9.69-69.19,27.3c-18.43,17.24-29.6,40.38-31.53,65.29h26.29c2.07-17.89,10.58-34.4,24.03-46.6,13.82-12.53,31.72-19.43,50.4-19.43s36.59,6.9,50.41,19.43c13.45,12.2,21.96,28.72,24.03,46.6h26.29Z"/><path class="cls-1" d="M9.78,198.39l96.72-43.42H.1c.94,14.93,4.2,29.53,9.68,43.42Z"/><path class="cls-1" d="M64.31,60.86c21.9-20.64,50.56-32.01,80.69-32.01s58.78,11.37,80.69,32.01c21.55,20.31,34.45,47.55,36.41,76.82h27.9c-1.65-36.94-17.3-71.41-44.13-97.18C218.67,14.38,182.85,0,145,0S71.33,14.38,44.13,40.5C17.3,66.27,1.65,100.74,0,137.68H27.91c1.95-29.27,14.86-56.51,36.41-76.82Z"/><path class="cls-1" d="M289.9,154.97h-108.62l97.57,46.67c6.32-14.9,10.03-30.59,11.05-46.67Z"/><path class="cls-1" d="M225.01,266.09l-64.41-86.8,24.99,104.95c13.97-4.03,27.21-10.13,39.41-18.15Z"/><path class="cls-1" d="M165.12,288.58l-20.65-105.89-23.17,105.33c8,1.32,15.98,1.98,23.71,1.98,6.55,0,13.31-.48,20.12-1.42Z"/><path class="cls-1" d="M45.69,250.93l69.95-82.12L19.03,217.5c7.16,12.38,16.13,23.62,26.66,33.43Z"/><path class="cls-1" d="M269.12,220.56l-95.04-50.49,67.53,83.3c10.77-9.54,20.01-20.57,27.51-32.81Z"/><path class="cls-1" d="M127.04,185.51l1.61-6.64-66.69,85.19c11.97,8.3,25.07,14.73,38.99,19.12l26.09-97.66Z"/></svg>