<?xml version="1.0" encoding="UTF-8"?><svg id="Layer_1" xmlns="http://www.w3.org/2000/svg" viewBox="0 0 1000 307"><path d="M356.66,76.23h-13.43V9.25h13.43v27.54h28.69V9.25h13.44V76.23h-13.44v-28.5h-28.69v28.5Zm64.47-1.97c3.2,1.76,6.88,2.64,11.03,2.64,3.26,0,6.29-.66,9.07-1.97,2.78-1.31,5.04-3.12,6.76-5.42v6.72h13.53V23.07h-13.53v29.27c0,4.22-1.05,7.47-3.17,9.74-2.11,2.27-5.02,3.41-8.73,3.41s-6.52-1.14-8.64-3.41c-2.11-2.27-3.17-5.52-3.17-9.74V23.07h-13.44v31.19c0,4.74,.91,8.81,2.74,12.24,1.82,3.42,4.33,6.01,7.53,7.77Zm65.73-27.4c0-4.16,1.07-7.34,3.21-9.55,2.14-2.21,5.07-3.31,8.78-3.31s6.52,1.1,8.64,3.31c2.11,2.21,3.17,5.39,3.17,9.55v29.36h13.44v-29.36c0-4.16,1.07-7.34,3.21-9.55,2.14-2.21,5.04-3.31,8.68-3.31s6.52,1.1,8.64,3.31c2.11,2.21,3.17,5.39,3.17,9.55v29.36h13.44v-31.19c0-7.16-2-12.75-6-16.74-4-4-9.26-6-15.79-6-3.84,0-7.4,.93-10.7,2.78-3.3,1.86-5.81,4.32-7.53,7.39-1.79-3.26-4.32-5.77-7.58-7.53-3.26-1.76-6.97-2.64-11.13-2.64-3.26,0-6.25,.64-8.97,1.92-2.72,1.28-4.94,3.04-6.67,5.28v-6.43h-13.43v53.16h13.43v-29.36Zm85.98,17.03c-2.14-4.19-3.21-9-3.21-14.44s1.07-10.14,3.21-14.3c2.14-4.16,5.05-7.36,8.73-9.59,3.68-2.24,7.79-3.36,12.33-3.36,3.96,0,7.44,.8,10.41,2.4,2.97,1.6,5.36,3.61,7.15,6.04v-7.58h13.53v53.16h-13.53v-7.77c-1.73,2.5-4.11,4.56-7.15,6.19-3.04,1.63-6.54,2.45-10.51,2.45-4.48,0-8.55-1.15-12.23-3.45-3.68-2.3-6.59-5.55-8.73-9.74Zm10.51-14.44c0,3.2,.66,6,1.97,8.4,1.31,2.4,3.04,4.24,5.18,5.52,2.14,1.28,4.43,1.92,6.86,1.92s4.83-.62,7.01-1.87c2.17-1.25,3.9-3.04,5.18-5.37,1.28-2.33,1.92-5.14,1.92-8.4s-.64-6.06-1.92-8.4c-1.28-2.33-3.01-4.13-5.18-5.37-2.17-1.25-4.51-1.87-7.01-1.87s-4.8,.61-6.91,1.82c-2.11,1.22-3.82,2.99-5.13,5.33-1.31,2.33-1.97,5.1-1.97,8.3Zm66.93-2.59c0-4.22,1.07-7.47,3.21-9.74,2.14-2.27,5.07-3.41,8.78-3.41s6.52,1.14,8.64,3.41c2.11,2.27,3.17,5.52,3.17,9.74v29.36h13.43v-31.19c0-7.16-1.95-12.75-5.85-16.74-3.9-4-9.02-6-15.35-6-3.33,0-6.38,.66-9.16,1.97-2.78,1.31-5.07,3.12-6.86,5.42v-6.62h-13.43v53.16h13.43v-29.36Zm61.95-23.8h-13.44v53.16h13.44V23.07Zm-6.62-6.33c2.37,0,4.33-.75,5.9-2.26,1.57-1.5,2.35-3.37,2.35-5.61s-.79-4.11-2.35-5.61c-1.57-1.5-3.53-2.25-5.9-2.25s-4.33,.75-5.9,2.25c-1.57,1.5-2.35,3.38-2.35,5.61s.78,4.11,2.35,5.61c1.57,1.5,3.53,2.26,5.9,2.26Zm20.34,42.99c0,11,5.66,16.51,16.98,16.51h8.45v-11.32h-6.24c-2.05,0-3.5-.4-4.37-1.2-.86-.8-1.3-2.1-1.3-3.89v-25.71h11.9v-11.04h-11.9V9.92h-13.53v13.15h-6.33v11.04h6.33v25.62Zm72.16,16.51v-7.77c-1.73,2.5-4.11,4.56-7.15,6.19-3.04,1.63-6.54,2.45-10.51,2.45-4.48,0-8.56-1.15-12.24-3.45-3.68-2.3-6.59-5.55-8.73-9.74-2.14-4.19-3.21-9-3.21-14.44s1.07-10.14,3.21-14.3c2.14-4.16,5.05-7.36,8.73-9.59,3.68-2.24,7.79-3.36,12.33-3.36,3.97,0,7.44,.8,10.41,2.4,2.97,1.6,5.36,3.61,7.15,6.04v-7.58h13.53v53.16h-13.53Zm0-26.58c0-3.26-.64-6.06-1.92-8.4-1.28-2.33-3.01-4.13-5.18-5.37-2.18-1.25-4.51-1.87-7.01-1.87s-4.8,.61-6.91,1.82c-2.11,1.22-3.82,2.99-5.14,5.33-1.31,2.33-1.97,5.1-1.97,8.3s.65,6,1.97,8.4c1.31,2.4,3.04,4.24,5.18,5.52,2.14,1.28,4.43,1.92,6.86,1.92s4.83-.62,7.01-1.87c2.17-1.25,3.9-3.04,5.18-5.37,1.28-2.33,1.92-5.14,1.92-8.4Zm38.81,.1c0-4.93,1.07-8.38,3.21-10.36,2.14-1.98,5.33-2.97,9.55-2.97h3.55v-14.11c-3.58,0-6.77,.8-9.55,2.4-2.78,1.6-5.04,3.81-6.77,6.62v-8.25h-13.43v53.16h13.43v-26.48ZM866.77,1c-2.37,0-4.33,.75-5.9,2.25-1.57,1.5-2.35,3.38-2.35,5.61s.78,4.11,2.35,5.61c1.57,1.5,3.53,2.26,5.9,2.26s4.33-.75,5.9-2.26c1.57-1.5,2.35-3.37,2.35-5.61s-.78-4.11-2.35-5.61c-1.57-1.5-3.53-2.25-5.9-2.25Zm-6.81,75.23h13.43V23.07h-13.43v53.16Zm63.99-53.16h13.53v53.16h-13.53v-7.77c-1.73,2.5-4.11,4.56-7.15,6.19-3.04,1.63-6.54,2.45-10.51,2.45-4.48,0-8.56-1.15-12.23-3.45-3.68-2.3-6.59-5.55-8.73-9.74-2.14-4.19-3.21-9-3.21-14.44s1.07-10.14,3.21-14.3c2.14-4.16,5.05-7.36,8.73-9.59,3.68-2.24,7.79-3.36,12.33-3.36,3.96,0,7.44,.8,10.41,2.4,2.98,1.6,5.36,3.61,7.15,6.04v-7.58Zm0,26.58c0-3.26-.64-6.06-1.92-8.4-1.28-2.33-3.01-4.13-5.18-5.37-2.17-1.25-4.51-1.87-7.01-1.87s-4.8,.61-6.91,1.82c-2.11,1.22-3.82,2.99-5.14,5.33-1.31,2.33-1.97,5.1-1.97,8.3s.65,6,1.97,8.4c1.31,2.4,3.04,4.24,5.18,5.52,2.14,1.28,4.43,1.92,6.86,1.92s4.83-.62,7.01-1.87c2.17-1.25,3.9-3.04,5.18-5.37,1.28-2.33,1.92-5.14,1.92-8.4Zm70.19-21.35c-3.9-4-9.02-6-15.35-6-3.33,0-6.38,.66-9.16,1.97-2.78,1.31-5.07,3.12-6.86,5.42v-6.62h-13.43v53.16h13.43v-29.36c0-4.22,1.07-7.47,3.21-9.74,2.14-2.27,5.07-3.41,8.78-3.41s6.52,1.14,8.64,3.41c2.11,2.27,3.17,5.52,3.17,9.74v29.36h13.43v-31.19c0-7.16-1.95-12.75-5.85-16.74ZM378.73,167.8h-22.07v-56.33h-13.43v66.98h35.5v-10.65Zm16.01-40.01c4.03-2.24,8.67-3.36,13.91-3.36s9.58,1.09,13.58,3.26c4,2.18,7.1,5.26,9.31,9.26,2.21,4,3.31,8.59,3.31,13.77,0,1.92-.13,3.65-.39,5.18h-38.86c.32,3.84,1.66,6.85,4.03,9.02,2.37,2.18,5.28,3.26,8.73,3.26,4.99,0,8.54-2.14,10.65-6.43h14.49c-1.53,5.12-4.48,9.32-8.83,12.62-4.35,3.3-9.69,4.94-16.02,4.94-5.12,0-9.71-1.14-13.77-3.4-4.06-2.27-7.23-5.49-9.5-9.64-2.27-4.16-3.41-8.96-3.41-14.39s1.12-10.33,3.36-14.49c2.24-4.16,5.37-7.36,9.4-9.6Zm.96,19.09h25.23c-.06-3.45-1.31-6.22-3.74-8.3-2.43-2.08-5.41-3.12-8.92-3.12-3.33,0-6.13,1.01-8.4,3.02-2.27,2.02-3.66,4.81-4.17,8.4Zm69.1,32.43c-4.48,0-8.56-1.15-12.24-3.45-3.68-2.3-6.59-5.55-8.73-9.74-2.14-4.19-3.21-9-3.21-14.44s1.07-10.14,3.21-14.3c2.14-4.16,5.05-7.36,8.73-9.6,3.68-2.24,7.79-3.36,12.33-3.36,3.96,0,7.44,.8,10.41,2.4,2.97,1.6,5.36,3.61,7.15,6.04v-7.58h13.53v53.16h-13.53v-7.77c-1.73,2.5-4.11,4.56-7.15,6.19-3.04,1.63-6.54,2.45-10.51,2.45Zm-3.31-13.72c2.14,1.28,4.43,1.92,6.86,1.92s4.83-.62,7.01-1.87c2.17-1.25,3.9-3.04,5.18-5.37,1.28-2.33,1.92-5.13,1.92-8.4s-.64-6.06-1.92-8.4c-1.28-2.33-3.01-4.13-5.18-5.37s-4.51-1.87-7.01-1.87-4.8,.61-6.91,1.82c-2.11,1.22-3.82,2.99-5.13,5.33-1.31,2.33-1.97,5.1-1.97,8.3s.66,6,1.97,8.4c1.31,2.4,3.04,4.24,5.18,5.52Zm67.7,13.72c-4.48,0-8.57-1.15-12.28-3.45-3.71-2.3-6.64-5.55-8.78-9.74-2.14-4.19-3.21-9-3.21-14.44s1.07-10.14,3.21-14.3c2.14-4.16,5.07-7.36,8.78-9.6,3.71-2.24,7.83-3.36,12.38-3.36,3.46,0,6.75,.75,9.88,2.25,3.13,1.5,5.63,3.5,7.48,6v-25.24h13.63v71.01h-13.63v-7.87c-1.66,2.62-4,4.74-7.01,6.33-3.01,1.6-6.49,2.4-10.46,2.4Zm-3.41-13.72c2.14,1.28,4.43,1.92,6.86,1.92s4.83-.62,7-1.87c2.17-1.25,3.9-3.04,5.18-5.37,1.28-2.33,1.92-5.13,1.92-8.4s-.64-6.06-1.92-8.4c-1.28-2.33-3.01-4.13-5.18-5.37-2.17-1.25-4.51-1.87-7-1.87s-4.8,.61-6.91,1.82c-2.11,1.22-3.82,2.99-5.14,5.33-1.31,2.33-1.97,5.1-1.97,8.3s.66,6,1.97,8.4c1.31,2.4,3.04,4.24,5.18,5.52Zm69.92,13.72c-5.12,0-9.71-1.14-13.77-3.4-4.06-2.27-7.23-5.49-9.5-9.64-2.27-4.16-3.41-8.96-3.41-14.39s1.12-10.33,3.36-14.49c2.24-4.16,5.37-7.36,9.4-9.6,4.03-2.24,8.67-3.36,13.91-3.36s9.58,1.09,13.58,3.26c4,2.18,7.1,5.26,9.31,9.26,2.21,4,3.31,8.59,3.31,13.77,0,1.92-.13,3.65-.39,5.18h-38.86c.32,3.84,1.66,6.85,4.03,9.02,2.37,2.18,5.28,3.26,8.73,3.26,4.99,0,8.54-2.14,10.65-6.43h14.49c-1.53,5.12-4.48,9.32-8.83,12.62-4.35,3.3-9.69,4.94-16.02,4.94Zm-12.95-32.43h25.24c-.06-3.45-1.31-6.22-3.74-8.3-2.43-2.08-5.41-3.12-8.92-3.12-3.33,0-6.13,1.01-8.4,3.02-2.27,2.02-3.66,4.81-4.17,8.4Zm77.74-8.25v-14.11c-3.58,0-6.77,.8-9.55,2.4-2.78,1.6-5.04,3.81-6.76,6.62v-8.25h-13.44v53.16h13.44v-26.48c0-4.93,1.07-8.38,3.21-10.36,2.14-1.98,5.33-2.97,9.55-2.97h3.55Zm33.83,28.59c-1.44,1.02-3.44,1.54-6,1.54s-4.81-.67-6.57-2.02c-1.76-1.34-2.77-3.04-3.02-5.09h-13.53c.19,3.26,1.29,6.24,3.31,8.92,2.02,2.69,4.75,4.81,8.2,6.38,3.46,1.57,7.36,2.35,11.71,2.35s7.92-.69,11.08-2.06c3.17-1.37,5.6-3.28,7.29-5.71,1.69-2.43,2.54-5.18,2.54-8.25-.06-3.52-1.01-6.35-2.83-8.49-1.82-2.14-3.98-3.73-6.48-4.75-2.49-1.02-5.66-2.02-9.5-2.97-3.78-.96-6.56-1.9-8.35-2.83-1.79-.93-2.69-2.29-2.69-4.08,0-1.6,.65-2.85,1.97-3.74,1.31-.89,3.18-1.34,5.61-1.34,2.62,0,4.72,.62,6.28,1.87,1.57,1.25,2.45,2.93,2.64,5.04h12.86c-.38-5.37-2.46-9.64-6.24-12.81-3.78-3.17-8.83-4.75-15.16-4.75-4.29,0-8.01,.7-11.18,2.11-3.17,1.41-5.6,3.33-7.29,5.76-1.69,2.43-2.54,5.12-2.54,8.06,0,3.58,.91,6.43,2.73,8.54,1.82,2.11,4,3.68,6.52,4.7,2.53,1.02,5.77,2.02,9.74,2.98,3.84,1.02,6.64,1.97,8.4,2.83,1.76,.86,2.64,2.16,2.64,3.89,0,1.6-.72,2.91-2.16,3.93Zm58.79-27.88c2.11,2.27,3.17,5.52,3.17,9.74v29.36h13.43v-31.19c0-4.8-.88-8.91-2.64-12.33-1.76-3.42-4.21-6.01-7.34-7.77-3.13-1.76-6.72-2.64-10.75-2.64-3.52,0-6.72,.66-9.59,1.97-2.88,1.31-5.18,3.12-6.91,5.42v-24.47h-13.44v71.01h13.44v-29.36c0-4.22,1.07-7.47,3.21-9.74,2.14-2.27,5.07-3.41,8.78-3.41s6.52,1.14,8.64,3.41Zm34.7-36.13c-2.37,0-4.33,.75-5.9,2.25-1.57,1.5-2.35,3.38-2.35,5.61s.78,4.11,2.35,5.61c1.57,1.5,3.54,2.26,5.9,2.26s4.33-.75,5.9-2.26c1.57-1.5,2.35-3.37,2.35-5.61s-.78-4.11-2.35-5.61c-1.57-1.5-3.53-2.25-5.9-2.25Zm6.62,22.07h-13.44v53.16h13.44v-53.16Zm64.01,12.04c2.14,4.13,3.21,8.91,3.21,14.35s-1.07,10.25-3.21,14.44c-2.14,4.19-5.05,7.44-8.73,9.74-3.68,2.3-7.79,3.45-12.33,3.45-3.9,0-7.34-.8-10.32-2.4-2.97-1.6-5.39-3.61-7.24-6.05v32.91h-13.44V125.29h13.44v7.68c1.73-2.43,4.11-4.46,7.15-6.09,3.04-1.63,6.51-2.45,10.41-2.45,4.54,0,8.65,1.12,12.33,3.36,3.68,2.24,6.59,5.42,8.73,9.55Zm-10.51,14.35c0-3.2-.66-5.96-1.97-8.3-1.31-2.34-3.04-4.11-5.18-5.33-2.14-1.21-4.46-1.82-6.96-1.82s-4.72,.62-6.86,1.87c-2.14,1.25-3.87,3.05-5.18,5.42-1.31,2.37-1.97,5.15-1.97,8.35s.65,5.98,1.97,8.35c1.31,2.37,3.04,4.17,5.18,5.42,2.14,1.25,4.43,1.87,6.86,1.87s4.81-.64,6.96-1.92c2.14-1.28,3.87-3.1,5.18-5.47,1.31-2.37,1.97-5.18,1.97-8.44Zm-473.38,62.18l24.08,67.07h-14.2l-4.41-12.76h-26.68l-4.41,12.76h-14.11l24.09-67.07h15.64Zm1.82,43.56l-9.69-28.02-9.69,28.02h19.38Zm50.8-19.1c2.69,0,4.94,.66,6.77,1.97,1.82,1.31,3.12,3.12,3.88,5.42h14.49c-1.47-5.95-4.36-10.57-8.68-13.86-4.32-3.29-9.77-4.94-16.36-4.94-5.12,0-9.66,1.14-13.63,3.41-3.97,2.27-7.07,5.47-9.31,9.6-2.24,4.13-3.36,8.94-3.36,14.44s1.12,10.31,3.36,14.44c2.24,4.13,5.34,7.33,9.31,9.6,3.96,2.27,8.51,3.4,13.63,3.4,6.52,0,11.96-1.69,16.31-5.09,4.35-3.39,7.26-7.96,8.73-13.72h-14.49c-1.66,4.86-5.21,7.29-10.65,7.29-3.84,0-6.88-1.39-9.11-4.17-2.24-2.78-3.36-6.7-3.36-11.75s1.12-9.07,3.36-11.85c2.24-2.78,5.28-4.17,9.11-4.17Zm72.23-10.56h13.53v53.16h-13.53v-7.77c-1.73,2.5-4.11,4.56-7.15,6.19-3.04,1.63-6.54,2.45-10.51,2.45-4.48,0-8.55-1.15-12.23-3.45-3.68-2.3-6.59-5.55-8.73-9.74-2.14-4.19-3.21-9-3.21-14.44s1.07-10.14,3.21-14.29c2.14-4.16,5.05-7.36,8.73-9.6,3.68-2.24,7.79-3.36,12.33-3.36,3.96,0,7.44,.8,10.41,2.4,2.97,1.6,5.36,3.61,7.15,6.04v-7.58Zm0,26.58c0-3.26-.64-6.06-1.92-8.4-1.28-2.33-3.01-4.13-5.18-5.37-2.17-1.25-4.51-1.87-7.01-1.87s-4.8,.61-6.91,1.82c-2.11,1.22-3.82,2.99-5.13,5.33-1.31,2.33-1.97,5.1-1.97,8.3s.66,6,1.97,8.4c1.31,2.4,3.04,4.24,5.18,5.52,2.14,1.28,4.43,1.92,6.86,1.92s4.83-.62,7.01-1.87c2.17-1.25,3.9-3.04,5.18-5.37,1.28-2.33,1.92-5.14,1.92-8.4Zm64.19-44.43h13.63v71.01h-13.63v-7.87c-1.67,2.62-4,4.74-7.01,6.33-3.01,1.6-6.49,2.4-10.46,2.4-4.48,0-8.57-1.15-12.28-3.45-3.71-2.3-6.64-5.55-8.78-9.74-2.14-4.19-3.21-9-3.21-14.44s1.07-10.14,3.21-14.29c2.14-4.16,5.07-7.36,8.78-9.6,3.71-2.24,7.83-3.36,12.38-3.36,3.46,0,6.75,.75,9.88,2.25,3.13,1.5,5.63,3.5,7.48,6v-25.24Zm.1,44.43c0-3.26-.64-6.06-1.92-8.4-1.28-2.33-3.01-4.13-5.18-5.37-2.17-1.25-4.51-1.87-7-1.87s-4.8,.61-6.91,1.82c-2.11,1.22-3.82,2.99-5.13,5.33-1.31,2.33-1.97,5.1-1.97,8.3s.66,6,1.97,8.4c1.31,2.4,3.04,4.24,5.18,5.52,2.14,1.28,4.43,1.92,6.86,1.92s4.83-.62,7-1.87c2.17-1.25,3.9-3.04,5.18-5.37,1.28-2.33,1.92-5.14,1.92-8.4Zm71.84-14.92c2.21,4,3.31,8.59,3.31,13.77,0,1.92-.13,3.65-.38,5.18h-38.86c.32,3.84,1.66,6.84,4.03,9.02,2.37,2.18,5.28,3.26,8.73,3.26,4.99,0,8.54-2.14,10.65-6.43h14.49c-1.53,5.12-4.48,9.32-8.83,12.62-4.35,3.3-9.69,4.94-16.02,4.94-5.12,0-9.71-1.14-13.77-3.4-4.06-2.27-7.23-5.49-9.5-9.64-2.27-4.16-3.41-8.96-3.41-14.39s1.12-10.33,3.36-14.49c2.24-4.16,5.37-7.36,9.4-9.6,4.03-2.24,8.67-3.36,13.91-3.36s9.58,1.09,13.58,3.26c4,2.18,7.1,5.26,9.31,9.26Zm-10.6,9.93c-.07-3.45-1.31-6.22-3.74-8.3-2.43-2.08-5.41-3.12-8.92-3.12-3.33,0-6.13,1.01-8.4,3.02-2.27,2.02-3.66,4.82-4.17,8.4h25.24Zm88.77-22.36c-3.84,0-7.4,.93-10.7,2.78-3.29,1.86-5.8,4.32-7.53,7.39-1.79-3.26-4.32-5.77-7.58-7.53-3.26-1.76-6.97-2.64-11.13-2.64-3.26,0-6.25,.64-8.97,1.92-2.72,1.28-4.94,3.04-6.67,5.28v-6.43h-13.43v53.16h13.43v-29.36c0-4.16,1.07-7.34,3.21-9.55,2.14-2.21,5.07-3.31,8.78-3.31s6.52,1.1,8.64,3.31c2.11,2.21,3.17,5.39,3.17,9.55v29.36h13.44v-29.36c0-4.16,1.07-7.34,3.21-9.55,2.14-2.21,5.04-3.31,8.68-3.31s6.52,1.1,8.64,3.31c2.11,2.21,3.17,5.39,3.17,9.55v29.36h13.43v-31.19c0-7.16-2-12.75-6-16.74-4-4-9.26-6-15.79-6Zm53.48,37.9l-13.72-37.14h-15.07l21.3,51.82-11.52,26.48h14.3l32.91-78.3h-14.3l-13.91,37.14Z"/><g><path d="M123.56,119.81c6.01-4.83,13.59-7.49,21.33-7.49s15.32,2.66,21.33,7.49c5.68,4.56,9.77,10.88,11.58,17.87h23.85c-1.98-13.39-8.53-25.69-18.51-34.76-10.46-9.5-24.01-14.73-38.15-14.73s-27.68,5.23-38.14,14.73c-9.98,9.06-16.52,21.36-18.5,34.76h23.63c1.82-6.99,5.9-13.31,11.58-17.87Z"/><path d="M219.44,137.68h26.29c-1.94-24.91-13.1-48.05-31.53-65.29-18.82-17.6-43.39-27.3-69.19-27.3s-50.37,9.69-69.19,27.3c-18.43,17.24-29.6,40.38-31.53,65.29h26.29c2.07-17.89,10.58-34.4,24.03-46.6,13.82-12.53,31.72-19.43,50.4-19.43s36.59,6.9,50.41,19.43c13.45,12.2,21.96,28.71,24.03,46.6Z"/><path d="M106.5,154.97H.1c.94,14.93,4.2,29.53,9.68,43.42l96.72-43.42Z"/><path d="M27.91,137.68c1.95-29.27,14.86-56.51,36.41-76.82,21.9-20.64,50.56-32.01,80.69-32.01s58.78,11.37,80.69,32.01c21.55,20.31,34.45,47.55,36.41,76.82h27.9c-1.65-36.94-17.3-71.41-44.13-97.18C218.67,14.38,182.85,0,145,0S71.33,14.38,44.13,40.5C17.3,66.27,1.65,100.74,0,137.68H27.91Z"/><path d="M181.28,154.97l97.57,46.67c6.32-14.9,10.03-30.59,11.05-46.67h-108.62Z"/><path d="M185.6,284.24c13.97-4.03,27.21-10.13,39.41-18.15l-64.41-86.8,24.99,104.95Z"/><path d="M165.12,288.58l-20.65-105.89-23.17,105.33c8,1.32,15.98,1.98,23.71,1.98,6.55,0,13.31-.48,20.12-1.42Z"/><path d="M19.03,217.5c7.16,12.38,16.13,23.62,26.66,33.43l69.95-82.12L19.03,217.5Z"/><path d="M174.08,170.08l67.53,83.3c10.77-9.54,20.01-20.57,27.51-32.81l-95.04-50.49Z"/><path d="M128.65,178.86l-66.69,85.19c11.97,8.3,25.07,14.73,38.99,19.12l26.09-97.66,1.61-6.64Z"/></g></svg>