<?xml version="1.0" encoding="UTF-8"?><svg id="Layer_1" xmlns="http://www.w3.org/2000/svg" viewBox="0 0 512 512"><path d="M218.15,211.53c10.61-8.53,23.99-13.22,37.66-13.22s27.05,4.7,37.66,13.22c10.03,8.05,17.24,19.21,20.45,31.55h42.12c-3.5-23.65-15.05-45.36-32.68-61.36-18.47-16.77-42.4-26-67.36-26s-48.88,9.23-67.34,26c-17.62,16-29.16,37.71-32.67,61.36h41.71c3.2-12.34,10.42-23.5,20.45-31.55Z"/><path d="M387.43,243.08h46.41c-3.42-43.98-23.14-84.84-55.67-115.27-33.23-31.08-76.61-48.19-122.16-48.19s-88.94,17.11-122.16,48.19c-32.54,30.43-52.26,71.3-55.67,115.27h46.41c3.66-31.58,18.68-60.73,42.43-82.27,24.39-22.13,56-34.31,88.99-34.31s64.6,12.19,88.99,34.31c23.75,21.54,38.77,50.7,42.43,82.27Z"/><path d="M188.03,273.6H.17c1.66,26.37,7.41,52.14,17.09,76.66l170.77-76.66Z"/><path d="M49.27,243.08c3.45-51.68,26.23-99.78,64.28-135.63,38.67-36.44,89.26-56.51,142.46-56.51s103.79,20.07,142.46,56.51c38.05,35.85,60.83,83.95,64.28,135.63h49.27c-2.92-65.22-30.54-126.08-77.92-171.58C386.07,25.39,322.82,0,256,0S125.93,25.39,77.92,71.5C30.54,117,2.92,177.86,0,243.08H49.27Z"/><path d="M320.05,273.6l172.26,82.4c11.15-26.31,17.71-54.01,19.51-82.4h-191.77Z"/><path d="M327.67,501.83c24.66-7.12,48.05-17.89,69.58-32.05l-113.71-153.25,44.13,185.3Z"/><path d="M291.52,509.49l-36.47-186.96-40.91,185.97c14.13,2.32,28.21,3.5,41.86,3.5,11.56,0,23.5-.84,35.51-2.51Z"/><path d="M33.59,384c12.65,21.86,28.47,41.7,47.07,59.03l123.5-144.98L33.59,384Z"/><path d="M307.34,300.27l119.23,147.07c19.01-16.84,35.33-36.32,48.56-57.93l-167.79-89.13Z"/><path d="M227.13,315.78l-117.74,150.4c21.13,14.65,44.27,26,68.84,33.76l46.06-172.43,2.84-11.73Z"/></svg>