<?xml version="1.0" encoding="UTF-8"?><svg id="Layer_1" xmlns="http://www.w3.org/2000/svg" viewBox="0 0 1385 307"><path d="M741.66,76.23h-13.43V9.25h13.43v27.54h28.69V9.25h13.44V76.23h-13.44v-28.5h-28.69v28.5Zm64.47-1.97c3.2,1.76,6.88,2.64,11.03,2.64,3.26,0,6.29-.66,9.07-1.97,2.78-1.31,5.04-3.12,6.76-5.42v6.72h13.53V23.07h-13.53v29.27c0,4.22-1.05,7.47-3.17,9.74-2.11,2.27-5.02,3.41-8.73,3.41s-6.52-1.14-8.64-3.41c-2.11-2.27-3.17-5.52-3.17-9.74V23.07h-13.44v31.19c0,4.74,.91,8.81,2.74,12.24,1.82,3.42,4.33,6.01,7.53,7.77Zm65.73-27.4c0-4.16,1.07-7.34,3.21-9.55,2.14-2.21,5.07-3.31,8.78-3.31s6.52,1.1,8.64,3.31c2.11,2.21,3.17,5.39,3.17,9.55v29.36h13.44v-29.36c0-4.16,1.07-7.34,3.21-9.55,2.14-2.21,5.04-3.31,8.68-3.31s6.52,1.1,8.64,3.31c2.11,2.21,3.17,5.39,3.17,9.55v29.36h13.44v-31.19c0-7.16-2-12.75-6-16.74-4-4-9.26-6-15.79-6-3.84,0-7.4,.93-10.7,2.78-3.3,1.86-5.81,4.32-7.53,7.39-1.79-3.26-4.32-5.77-7.58-7.53-3.26-1.76-6.97-2.64-11.13-2.64-3.26,0-6.25,.64-8.97,1.92-2.72,1.28-4.94,3.04-6.67,5.28v-6.43h-13.43v53.16h13.43v-29.36Zm85.98,17.03c-2.14-4.19-3.21-9-3.21-14.44s1.07-10.14,3.21-14.3c2.14-4.16,5.05-7.36,8.73-9.59,3.68-2.24,7.79-3.36,12.33-3.36,3.96,0,7.44,.8,10.41,2.4,2.97,1.6,5.36,3.61,7.15,6.04v-7.58h13.53v53.16h-13.53v-7.77c-1.73,2.5-4.11,4.56-7.15,6.19-3.04,1.63-6.54,2.45-10.51,2.45-4.48,0-8.55-1.15-12.23-3.45-3.68-2.3-6.59-5.55-8.73-9.74Zm10.51-14.44c0,3.2,.66,6,1.97,8.4,1.31,2.4,3.04,4.24,5.18,5.52,2.14,1.28,4.43,1.92,6.86,1.92s4.83-.62,7.01-1.87c2.17-1.25,3.9-3.04,5.18-5.37,1.28-2.33,1.92-5.14,1.92-8.4s-.64-6.06-1.92-8.4c-1.28-2.33-3.01-4.13-5.18-5.37-2.17-1.25-4.51-1.87-7.01-1.87s-4.8,.61-6.91,1.82c-2.11,1.22-3.82,2.99-5.13,5.33-1.31,2.33-1.97,5.1-1.97,8.3Zm66.93-2.59c0-4.22,1.07-7.47,3.21-9.74,2.14-2.27,5.07-3.41,8.78-3.41s6.52,1.14,8.64,3.41c2.11,2.27,3.17,5.52,3.17,9.74v29.36h13.43v-31.19c0-7.16-1.95-12.75-5.85-16.74-3.9-4-9.02-6-15.35-6-3.33,0-6.38,.66-9.16,1.97-2.78,1.31-5.07,3.12-6.86,5.42v-6.62h-13.43v53.16h13.43v-29.36Zm61.95-23.8h-13.44v53.16h13.44V23.07Zm-6.62-6.33c2.37,0,4.33-.75,5.9-2.26,1.57-1.5,2.35-3.37,2.35-5.61s-.79-4.11-2.35-5.61c-1.57-1.5-3.53-2.25-5.9-2.25s-4.33,.75-5.9,2.25c-1.57,1.5-2.35,3.38-2.35,5.61s.78,4.11,2.35,5.61c1.57,1.5,3.53,2.26,5.9,2.26Zm20.34,42.99c0,11,5.66,16.51,16.98,16.51h8.45v-11.32h-6.24c-2.05,0-3.5-.4-4.37-1.2-.86-.8-1.3-2.1-1.3-3.89v-25.71h11.9v-11.04h-11.9V9.92h-13.53v13.15h-6.33v11.04h6.33v25.62Zm72.16,16.51v-7.77c-1.73,2.5-4.11,4.56-7.15,6.19-3.04,1.63-6.54,2.45-10.51,2.45-4.48,0-8.56-1.15-12.24-3.45-3.68-2.3-6.59-5.55-8.73-9.74-2.14-4.19-3.21-9-3.21-14.44s1.07-10.14,3.21-14.3c2.14-4.16,5.05-7.36,8.73-9.59,3.68-2.24,7.79-3.36,12.33-3.36,3.97,0,7.44,.8,10.41,2.4s5.36,3.61,7.15,6.04v-7.58h13.53v53.16h-13.53Zm0-26.58c0-3.26-.64-6.06-1.92-8.4-1.28-2.33-3.01-4.13-5.18-5.37-2.18-1.25-4.51-1.87-7.01-1.87s-4.8,.61-6.91,1.82c-2.11,1.22-3.82,2.99-5.14,5.33-1.31,2.33-1.97,5.1-1.97,8.3s.65,6,1.97,8.4c1.31,2.4,3.04,4.24,5.18,5.52,2.14,1.28,4.43,1.92,6.86,1.92s4.83-.62,7.01-1.87c2.17-1.25,3.9-3.04,5.18-5.37,1.28-2.33,1.92-5.14,1.92-8.4Zm38.81,.1c0-4.93,1.07-8.38,3.21-10.36,2.14-1.98,5.33-2.97,9.55-2.97h3.55v-14.11c-3.58,0-6.77,.8-9.55,2.4-2.78,1.6-5.04,3.81-6.77,6.62v-8.25h-13.43v53.16h13.43v-26.48Zm29.86-48.75c-2.37,0-4.33,.75-5.9,2.25-1.57,1.5-2.35,3.38-2.35,5.61s.78,4.11,2.35,5.61c1.57,1.5,3.53,2.26,5.9,2.26s4.33-.75,5.9-2.26c1.57-1.5,2.35-3.37,2.35-5.61s-.78-4.11-2.35-5.61c-1.57-1.5-3.53-2.25-5.9-2.25Zm-6.81,75.23h13.43V23.07h-13.43v53.16Zm63.99-53.16h13.53v53.16h-13.53v-7.77c-1.73,2.5-4.11,4.56-7.15,6.19-3.04,1.63-6.54,2.45-10.51,2.45-4.48,0-8.56-1.15-12.23-3.45-3.68-2.3-6.59-5.55-8.73-9.74-2.14-4.19-3.21-9-3.21-14.44s1.07-10.14,3.21-14.3c2.14-4.16,5.05-7.36,8.73-9.59,3.68-2.24,7.79-3.36,12.33-3.36,3.96,0,7.44,.8,10.41,2.4,2.98,1.6,5.36,3.61,7.15,6.04v-7.58Zm0,26.58c0-3.26-.64-6.06-1.92-8.4-1.28-2.33-3.01-4.13-5.18-5.37-2.17-1.25-4.51-1.87-7.01-1.87s-4.8,.61-6.91,1.82c-2.11,1.22-3.82,2.99-5.14,5.33-1.31,2.33-1.97,5.1-1.97,8.3s.65,6,1.97,8.4c1.31,2.4,3.04,4.24,5.18,5.52,2.14,1.28,4.43,1.92,6.86,1.92s4.83-.62,7.01-1.87c2.17-1.25,3.9-3.04,5.18-5.37,1.28-2.33,1.92-5.14,1.92-8.4Zm70.19-21.35c-3.9-4-9.02-6-15.35-6-3.33,0-6.38,.66-9.16,1.97-2.78,1.31-5.07,3.12-6.86,5.42v-6.62h-13.43v53.16h13.43v-29.36c0-4.22,1.07-7.47,3.21-9.74,2.14-2.27,5.07-3.41,8.78-3.41s6.52,1.14,8.64,3.41c2.11,2.27,3.17,5.52,3.17,9.74v29.36h13.43v-31.19c0-7.16-1.95-12.75-5.85-16.74ZM763.73,167.8h-22.07v-56.33h-13.43v66.98h35.5v-10.65Zm16.01-40.01c4.03-2.24,8.67-3.36,13.91-3.36s9.58,1.09,13.58,3.26c4,2.18,7.1,5.26,9.31,9.26,2.21,4,3.31,8.59,3.31,13.77,0,1.92-.13,3.65-.39,5.18h-38.86c.32,3.84,1.66,6.85,4.03,9.02,2.37,2.18,5.28,3.26,8.73,3.26,4.99,0,8.54-2.14,10.65-6.43h14.49c-1.53,5.12-4.48,9.32-8.83,12.62-4.35,3.3-9.69,4.94-16.02,4.94-5.12,0-9.71-1.14-13.77-3.4-4.06-2.27-7.23-5.49-9.5-9.64-2.27-4.16-3.41-8.96-3.41-14.39s1.12-10.33,3.36-14.49c2.24-4.16,5.37-7.36,9.4-9.6Zm.96,19.09h25.23c-.06-3.45-1.31-6.22-3.74-8.3-2.43-2.08-5.41-3.12-8.92-3.12-3.33,0-6.13,1.01-8.4,3.02-2.27,2.02-3.66,4.81-4.17,8.4Zm69.1,32.43c-4.48,0-8.56-1.15-12.24-3.45-3.68-2.3-6.59-5.55-8.73-9.74-2.14-4.19-3.21-9-3.21-14.44s1.07-10.14,3.21-14.3c2.14-4.16,5.05-7.36,8.73-9.6,3.68-2.24,7.79-3.36,12.33-3.36,3.96,0,7.44,.8,10.41,2.4,2.97,1.6,5.36,3.61,7.15,6.04v-7.58h13.53v53.16h-13.53v-7.77c-1.73,2.5-4.11,4.56-7.15,6.19-3.04,1.63-6.54,2.45-10.51,2.45Zm-3.31-13.72c2.14,1.28,4.43,1.92,6.86,1.92s4.83-.62,7.01-1.87c2.17-1.25,3.9-3.04,5.18-5.37,1.28-2.33,1.92-5.13,1.92-8.4s-.64-6.06-1.92-8.4c-1.28-2.33-3.01-4.13-5.18-5.37s-4.51-1.87-7.01-1.87-4.8,.61-6.91,1.82c-2.11,1.22-3.82,2.99-5.13,5.33-1.31,2.33-1.97,5.1-1.97,8.3s.66,6,1.97,8.4c1.31,2.4,3.04,4.24,5.18,5.52Zm67.7,13.72c-4.48,0-8.57-1.15-12.28-3.45-3.71-2.3-6.64-5.55-8.78-9.74-2.14-4.19-3.21-9-3.21-14.44s1.07-10.14,3.21-14.3c2.14-4.16,5.07-7.36,8.78-9.6,3.71-2.24,7.83-3.36,12.38-3.36,3.46,0,6.75,.75,9.88,2.25,3.13,1.5,5.63,3.5,7.48,6v-25.24h13.63v71.01h-13.63v-7.87c-1.66,2.62-4,4.74-7.01,6.33-3.01,1.6-6.49,2.4-10.46,2.4Zm-3.41-13.72c2.14,1.28,4.43,1.92,6.86,1.92s4.83-.62,7-1.87c2.17-1.25,3.9-3.04,5.18-5.37,1.28-2.33,1.92-5.13,1.92-8.4s-.64-6.06-1.92-8.4c-1.28-2.33-3.01-4.13-5.18-5.37-2.17-1.25-4.51-1.87-7-1.87s-4.8,.61-6.91,1.82c-2.11,1.22-3.82,2.99-5.14,5.33-1.31,2.33-1.97,5.1-1.97,8.3s.66,6,1.97,8.4c1.31,2.4,3.04,4.24,5.18,5.52Zm69.92,13.72c-5.12,0-9.71-1.14-13.77-3.4-4.06-2.27-7.23-5.49-9.5-9.64-2.27-4.16-3.41-8.96-3.41-14.39s1.12-10.33,3.36-14.49c2.24-4.16,5.37-7.36,9.4-9.6,4.03-2.24,8.67-3.36,13.91-3.36s9.58,1.09,13.58,3.26c4,2.18,7.1,5.26,9.31,9.26,2.21,4,3.31,8.59,3.31,13.77,0,1.92-.13,3.65-.39,5.18h-38.86c.32,3.84,1.66,6.85,4.03,9.02,2.37,2.18,5.28,3.26,8.73,3.26,4.99,0,8.54-2.14,10.65-6.43h14.49c-1.53,5.12-4.48,9.32-8.83,12.62-4.35,3.3-9.69,4.94-16.02,4.94Zm-12.95-32.43h25.24c-.06-3.45-1.31-6.22-3.74-8.3-2.43-2.08-5.41-3.12-8.92-3.12-3.33,0-6.13,1.01-8.4,3.02-2.27,2.02-3.66,4.81-4.17,8.4Zm77.74-8.25v-14.11c-3.58,0-6.77,.8-9.55,2.4-2.78,1.6-5.04,3.81-6.76,6.62v-8.25h-13.44v53.16h13.44v-26.48c0-4.93,1.07-8.38,3.21-10.36,2.14-1.98,5.33-2.97,9.55-2.97h3.55Zm33.83,28.59c-1.44,1.02-3.44,1.54-6,1.54s-4.81-.67-6.57-2.02c-1.76-1.34-2.77-3.04-3.02-5.09h-13.53c.19,3.26,1.29,6.24,3.31,8.92,2.02,2.69,4.75,4.81,8.2,6.38,3.46,1.57,7.36,2.35,11.71,2.35s7.92-.69,11.08-2.06c3.17-1.37,5.6-3.28,7.29-5.71,1.69-2.43,2.54-5.18,2.54-8.25-.06-3.52-1.01-6.35-2.83-8.49-1.82-2.14-3.98-3.73-6.48-4.75-2.49-1.02-5.66-2.02-9.5-2.97-3.78-.96-6.56-1.9-8.35-2.83-1.79-.93-2.69-2.29-2.69-4.08,0-1.6,.65-2.85,1.97-3.74,1.31-.89,3.18-1.34,5.61-1.34,2.62,0,4.72,.62,6.28,1.87,1.57,1.25,2.45,2.93,2.64,5.04h12.86c-.38-5.37-2.46-9.64-6.24-12.81-3.78-3.17-8.83-4.75-15.16-4.75-4.29,0-8.01,.7-11.18,2.11-3.17,1.41-5.6,3.33-7.29,5.76-1.69,2.43-2.54,5.12-2.54,8.06,0,3.58,.91,6.43,2.73,8.54,1.82,2.11,4,3.68,6.52,4.7,2.53,1.02,5.77,2.02,9.74,2.98,3.84,1.02,6.64,1.97,8.4,2.83,1.76,.86,2.64,2.16,2.64,3.89,0,1.6-.72,2.91-2.16,3.93Zm58.79-27.88c2.11,2.27,3.17,5.52,3.17,9.74v29.36h13.43v-31.19c0-4.8-.88-8.91-2.64-12.33-1.76-3.42-4.21-6.01-7.34-7.77-3.13-1.76-6.72-2.64-10.75-2.64-3.52,0-6.72,.66-9.59,1.97-2.88,1.31-5.18,3.12-6.91,5.42v-24.47h-13.44v71.01h13.44v-29.36c0-4.22,1.07-7.47,3.21-9.74,2.14-2.27,5.07-3.41,8.78-3.41s6.52,1.14,8.64,3.41Zm34.7-36.13c-2.37,0-4.33,.75-5.9,2.25-1.57,1.5-2.35,3.38-2.35,5.61s.78,4.11,2.35,5.61c1.57,1.5,3.54,2.26,5.9,2.26s4.33-.75,5.9-2.26c1.57-1.5,2.35-3.37,2.35-5.61s-.78-4.11-2.35-5.61c-1.57-1.5-3.53-2.25-5.9-2.25Zm6.62,22.07h-13.44v53.16h13.44v-53.16Zm64.01,12.04c2.14,4.13,3.21,8.91,3.21,14.35s-1.07,10.25-3.21,14.44c-2.14,4.19-5.05,7.44-8.73,9.74-3.68,2.3-7.79,3.45-12.33,3.45-3.9,0-7.34-.8-10.32-2.4-2.97-1.6-5.39-3.61-7.24-6.05v32.91h-13.44V125.29h13.44v7.68c1.73-2.43,4.11-4.46,7.15-6.09,3.04-1.63,6.51-2.45,10.41-2.45,4.54,0,8.65,1.12,12.33,3.36,3.68,2.24,6.59,5.42,8.73,9.55Zm-10.51,14.35c0-3.2-.66-5.96-1.97-8.3-1.31-2.34-3.04-4.11-5.18-5.33-2.14-1.21-4.46-1.82-6.96-1.82s-4.72,.62-6.86,1.87c-2.14,1.25-3.87,3.05-5.18,5.42-1.31,2.37-1.97,5.15-1.97,8.35s.65,5.98,1.97,8.35c1.31,2.37,3.04,4.17,5.18,5.42,2.14,1.25,4.43,1.87,6.86,1.87s4.81-.64,6.96-1.92c2.14-1.28,3.87-3.1,5.18-5.47,1.31-2.37,1.97-5.18,1.97-8.44Zm-473.38,62.18l24.08,67.07h-14.2l-4.41-12.76h-26.68l-4.41,12.76h-14.11l24.09-67.07h15.64Zm1.82,43.56l-9.69-28.02-9.69,28.02h19.38Zm50.8-19.1c2.69,0,4.94,.66,6.77,1.97,1.82,1.31,3.12,3.12,3.88,5.42h14.49c-1.47-5.95-4.36-10.57-8.68-13.86-4.32-3.29-9.77-4.94-16.36-4.94-5.12,0-9.66,1.14-13.63,3.41-3.97,2.27-7.07,5.47-9.31,9.6-2.24,4.13-3.36,8.94-3.36,14.44s1.12,10.31,3.36,14.44c2.24,4.13,5.34,7.33,9.31,9.6,3.96,2.27,8.51,3.4,13.63,3.4,6.52,0,11.96-1.69,16.31-5.09,4.35-3.39,7.26-7.96,8.73-13.72h-14.49c-1.66,4.86-5.21,7.29-10.65,7.29-3.84,0-6.88-1.39-9.11-4.17-2.24-2.78-3.36-6.7-3.36-11.75s1.12-9.07,3.36-11.85c2.24-2.78,5.28-4.17,9.11-4.17Zm72.23-10.56h13.53v53.16h-13.53v-7.77c-1.73,2.5-4.11,4.56-7.15,6.19-3.04,1.63-6.54,2.45-10.51,2.45-4.48,0-8.55-1.15-12.23-3.45-3.68-2.3-6.59-5.55-8.73-9.74-2.14-4.19-3.21-9-3.21-14.44s1.07-10.14,3.21-14.29c2.14-4.16,5.05-7.36,8.73-9.6,3.68-2.24,7.79-3.36,12.33-3.36,3.96,0,7.44,.8,10.41,2.4,2.97,1.6,5.36,3.61,7.15,6.04v-7.58Zm0,26.58c0-3.26-.64-6.06-1.92-8.4-1.28-2.33-3.01-4.13-5.18-5.37-2.17-1.25-4.51-1.87-7.01-1.87s-4.8,.61-6.91,1.82c-2.11,1.22-3.82,2.99-5.13,5.33-1.31,2.33-1.97,5.1-1.97,8.3s.66,6,1.97,8.4c1.31,2.4,3.04,4.24,5.18,5.52,2.14,1.28,4.43,1.92,6.86,1.92s4.83-.62,7.01-1.87c2.17-1.25,3.9-3.04,5.18-5.37,1.28-2.33,1.92-5.14,1.92-8.4Zm64.19-44.43h13.63v71.01h-13.63v-7.87c-1.67,2.62-4,4.74-7.01,6.33-3.01,1.6-6.49,2.4-10.46,2.4-4.48,0-8.57-1.15-12.28-3.45-3.71-2.3-6.64-5.55-8.78-9.74-2.14-4.19-3.21-9-3.21-14.44s1.07-10.14,3.21-14.29c2.14-4.16,5.07-7.36,8.78-9.6,3.71-2.24,7.83-3.36,12.38-3.36,3.46,0,6.75,.75,9.88,2.25,3.13,1.5,5.63,3.5,7.48,6v-25.24Zm.1,44.43c0-3.26-.64-6.06-1.92-8.4-1.28-2.33-3.01-4.13-5.18-5.37-2.17-1.25-4.51-1.87-7-1.87s-4.8,.61-6.91,1.82c-2.11,1.22-3.82,2.99-5.13,5.33-1.31,2.33-1.97,5.1-1.97,8.3s.66,6,1.97,8.4c1.31,2.4,3.04,4.24,5.18,5.52,2.14,1.28,4.43,1.92,6.86,1.92s4.83-.62,7-1.87c2.17-1.25,3.9-3.04,5.18-5.37,1.28-2.33,1.92-5.14,1.92-8.4Zm71.84-14.92c2.21,4,3.31,8.59,3.31,13.77,0,1.92-.13,3.65-.38,5.18h-38.86c.32,3.84,1.66,6.84,4.03,9.02,2.37,2.18,5.28,3.26,8.73,3.26,4.99,0,8.54-2.14,10.65-6.43h14.49c-1.53,5.12-4.48,9.32-8.83,12.62-4.35,3.3-9.69,4.94-16.02,4.94-5.12,0-9.71-1.14-13.77-3.4-4.06-2.27-7.23-5.49-9.5-9.64-2.27-4.16-3.41-8.96-3.41-14.39s1.12-10.33,3.36-14.49c2.24-4.16,5.37-7.36,9.4-9.6,4.03-2.24,8.67-3.36,13.91-3.36s9.58,1.09,13.58,3.26c4,2.18,7.1,5.26,9.31,9.26Zm-10.6,9.93c-.07-3.45-1.31-6.22-3.74-8.3-2.43-2.08-5.41-3.12-8.92-3.12-3.33,0-6.13,1.01-8.4,3.02-2.27,2.02-3.66,4.82-4.17,8.4h25.24Zm88.77-22.36c-3.84,0-7.4,.93-10.7,2.78-3.29,1.86-5.8,4.32-7.53,7.39-1.79-3.26-4.32-5.77-7.58-7.53-3.26-1.76-6.97-2.64-11.13-2.64-3.26,0-6.25,.64-8.97,1.92-2.72,1.28-4.94,3.04-6.67,5.28v-6.43h-13.43v53.16h13.43v-29.36c0-4.16,1.07-7.34,3.21-9.55,2.14-2.21,5.07-3.31,8.78-3.31s6.52,1.1,8.64,3.31c2.11,2.21,3.17,5.39,3.17,9.55v29.36h13.44v-29.36c0-4.16,1.07-7.34,3.21-9.55,2.14-2.21,5.04-3.31,8.68-3.31s6.52,1.1,8.64,3.31c2.11,2.21,3.17,5.39,3.17,9.55v29.36h13.43v-31.19c0-7.16-2-12.75-6-16.74-4-4-9.26-6-15.79-6Zm53.48,37.9l-13.72-37.14h-15.07l21.3,51.82-11.52,26.48h14.3l32.91-78.3h-14.3l-13.91,37.14Z"/><g id="save-the-children-name-outline"><path d="M36.4,177.87c-.27,.47-.64,.88-1.07,1.22-.42,.29-.93,.43-1.44,.41-.59-.02-1.17-.19-1.68-.49-.6-.33-1.27-.69-2.03-1.1-.83-.44-1.7-.81-2.59-1.1-1.07-.34-2.19-.51-3.32-.49-1.71-.13-3.41,.35-4.79,1.37-1.06,.93-1.64,2.3-1.57,3.71-.03,.92,.31,1.81,.95,2.47,.72,.71,1.56,1.29,2.49,1.69,1.14,.52,2.32,.95,3.52,1.3,1.32,.4,2.67,.84,4.05,1.32,1.38,.49,2.73,1.06,4.05,1.71,1.3,.64,2.49,1.49,3.52,2.51,1.06,1.06,1.91,2.32,2.49,3.71,.67,1.67,1,3.46,.95,5.27,.02,2.19-.39,4.36-1.19,6.4-.77,1.95-1.94,3.72-3.44,5.2-1.59,1.53-3.48,2.72-5.56,3.49-2.4,.88-4.94,1.31-7.5,1.26-1.58,0-3.15-.16-4.69-.47-1.58-.31-3.12-.76-4.62-1.34-1.46-.56-2.86-1.24-4.2-2.05-1.24-.74-2.39-1.63-3.41-2.64l3.39-5.35c.26-.41,.62-.75,1.05-.98,.45-.25,.95-.38,1.46-.37,.73,.02,1.44,.24,2.05,.64,.69,.43,1.47,.9,2.34,1.42,.95,.56,1.96,1.04,3,1.42,1.28,.46,2.64,.67,4,.64,1.72,.11,3.43-.38,4.84-1.37,1.23-1.1,1.87-2.71,1.73-4.35,.04-1.02-.29-2.02-.95-2.81-.69-.77-1.54-1.38-2.49-1.8-1.13-.51-2.3-.93-3.5-1.25-1.31-.36-2.65-.76-4.03-1.2-1.38-.44-2.73-.99-4.03-1.63-1.3-.64-2.49-1.5-3.51-2.54-1.08-1.13-1.93-2.47-2.49-3.93-.68-1.86-1-3.83-.95-5.81,0-1.86,.38-3.7,1.11-5.41,.76-1.78,1.88-3.38,3.29-4.71,1.54-1.44,3.34-2.56,5.31-3.3,2.3-.86,4.75-1.28,7.21-1.24,1.48,0,2.96,.12,4.42,.36,1.39,.23,2.76,.58,4.08,1.05,1.25,.45,2.46,1,3.61,1.66,1.08,.61,2.08,1.35,3,2.19l-2.84,5.32Z"/><path d="M68.83,217.18c-.75,.04-1.5-.09-2.19-.39-.59-.39-1.03-.97-1.23-1.64l-.72-1.88c-.85,.73-1.68,1.36-2.47,1.91-.77,.54-1.59,1-2.45,1.39-.86,.39-1.77,.68-2.7,.85-1.05,.19-2.11,.29-3.17,.28-1.44,.02-2.87-.19-4.24-.61-1.19-.36-2.3-.98-3.24-1.8-.9-.81-1.61-1.82-2.05-2.95-.5-1.3-.75-2.68-.72-4.07,.02-1.3,.34-2.57,.92-3.73,.74-1.42,1.84-2.62,3.19-3.48,1.88-1.21,3.95-2.09,6.12-2.62,3.17-.77,6.43-1.13,9.7-1.05v-1.46c.14-1.56-.3-3.11-1.23-4.36-.92-.93-2.19-1.42-3.5-1.34-1-.03-2,.1-2.96,.39-.71,.24-1.4,.53-2.05,.89-.6,.33-1.19,.62-1.76,.89-.64,.28-1.34,.41-2.04,.39-.64,.02-1.26-.16-1.79-.51-.48-.33-.88-.76-1.17-1.26l-1.84-3.19c2-1.78,4.33-3.16,6.86-4.06,2.59-.9,5.32-1.35,8.07-1.33,1.91-.03,3.8,.31,5.57,1,1.59,.62,3.02,1.57,4.21,2.79,1.17,1.22,2.07,2.67,2.65,4.26,.63,1.73,.94,3.55,.92,5.39v21.31h-4.67Zm-11.71-6.21c1.19,.03,2.37-.21,3.45-.69,1.12-.56,2.14-1.32,2.99-2.24v-4.67c-1.69-.03-3.37,.1-5.03,.4-1.08,.19-2.13,.52-3.12,.99-.65,.29-1.2,.77-1.59,1.36-.29,.5-.45,1.08-.45,1.66-.1,.93,.26,1.85,.95,2.47,.83,.53,1.81,.78,2.8,.71Z"/><path d="M98.75,217.18h-9.27l-13.22-34.1h8.48c.65-.02,1.28,.15,1.83,.51,.46,.3,.81,.75,1,1.26l4.73,15.29c.37,1.25,.73,2.47,1.07,3.65,.34,1.18,.63,2.37,.87,3.55,.24-1.18,.54-2.36,.89-3.55,.35-1.19,.72-2.4,1.12-3.65l4.93-15.29c.19-.52,.53-.96,.99-1.26,.5-.34,1.1-.52,1.71-.51h8.09l-13.22,34.1Z"/><path d="M129.99,182.56c2.11-.03,4.21,.33,6.2,1.05,1.81,.66,3.46,1.7,4.83,3.06,1.39,1.4,2.47,3.07,3.16,4.92,.79,2.11,1.17,4.34,1.14,6.59,0,.63-.03,1.25-.1,1.87-.04,.4-.16,.8-.36,1.15-.16,.27-.41,.48-.71,.59-.37,.12-.75,.18-1.14,.16h-19.67c.09,2.31,1.02,4.51,2.6,6.2,1.49,1.32,3.44,2,5.43,1.92,1.04,.02,2.07-.12,3.06-.43,.79-.26,1.55-.58,2.29-.95,.67-.35,1.28-.67,1.84-.95,.54-.28,1.15-.43,1.76-.43,.73-.04,1.42,.29,1.84,.89l2.96,3.65c-.98,1.14-2.13,2.14-3.4,2.94-1.18,.74-2.43,1.33-3.75,1.77-1.25,.42-2.54,.72-3.85,.89-1.22,.16-2.44,.24-3.67,.25-2.29,.02-4.57-.38-6.73-1.17-2.05-.75-3.93-1.94-5.49-3.47-1.63-1.62-2.89-3.57-3.72-5.72-.96-2.54-1.42-5.24-1.36-7.96-.01-2.21,.38-4.41,1.17-6.48,1.52-4.07,4.64-7.33,8.65-9.01,2.22-.93,4.62-1.38,7.02-1.34Zm.2,7.04c-1.69-.1-3.34,.5-4.57,1.66-1.2,1.33-1.96,3-2.17,4.78h12.72c0-.8-.1-1.6-.31-2.37-.2-.75-.54-1.45-1.02-2.05-.5-.62-1.13-1.12-1.86-1.46-.88-.4-1.84-.59-2.8-.56h0Z"/><path d="M176.15,217.71c-1.46,.03-2.92-.21-4.29-.71-2.38-.85-4.24-2.75-5.05-5.15-.45-1.32-.68-2.71-.66-4.11v-17.62h-2.9c-1.02,.04-1.87-.75-1.91-1.77,0-.08,0-.16,0-.24v-3.98l5.43-1.05,2.01-8.32c.22-1.03,1.19-1.71,2.24-1.58h5.33v9.96h8.29v6.97h-8.29v16.93c-.03,.7,.17,1.39,.58,1.96,.39,.52,1.01,.81,1.66,.77,.32,0,.63-.03,.94-.12,.23-.07,.45-.15,.66-.26,.19-.1,.36-.19,.53-.26,.18-.08,.38-.12,.58-.12,.26-.01,.52,.06,.74,.21,.23,.19,.42,.42,.58,.67l3.09,4.83c-1.34,1-2.84,1.75-4.44,2.22-1.65,.49-3.36,.74-5.09,.74Z"/><path d="M190.35,217.18v-49.22h10.19v18.12c1.2-1.04,2.55-1.9,3.99-2.55,1.63-.68,3.38-1.01,5.15-.97,1.7-.03,3.39,.3,4.95,.97,1.4,.62,2.64,1.54,3.63,2.7,1.02,1.2,1.78,2.6,2.24,4.11,.52,1.68,.77,3.42,.76,5.18v21.67h-10.19v-21.67c.08-1.39-.32-2.77-1.15-3.9-.85-.97-2.1-1.48-3.39-1.39-1.1,0-2.18,.24-3.16,.72-1.03,.51-1.98,1.16-2.83,1.94v24.3h-10.19Z"/><path d="M243.42,182.56c2.11-.03,4.21,.33,6.2,1.05,1.81,.66,3.46,1.7,4.83,3.06,1.39,1.4,2.47,3.07,3.16,4.92,.79,2.11,1.17,4.34,1.14,6.59,0,.63-.03,1.25-.1,1.87-.04,.4-.16,.8-.36,1.15-.16,.27-.41,.48-.71,.59-.37,.12-.75,.18-1.14,.16h-19.66c.09,2.31,1.01,4.51,2.6,6.2,1.49,1.32,3.44,2,5.43,1.92,1.04,.02,2.07-.12,3.06-.43,.79-.26,1.55-.58,2.29-.95,.67-.35,1.28-.67,1.84-.95,.54-.28,1.15-.43,1.76-.43,.73-.04,1.42,.29,1.84,.89l2.96,3.65c-.98,1.14-2.13,2.14-3.4,2.94-1.18,.74-2.43,1.33-3.75,1.77-1.25,.42-2.54,.72-3.85,.89-1.22,.16-2.44,.24-3.67,.25-2.29,.02-4.57-.38-6.72-1.17-2.06-.75-3.93-1.94-5.49-3.47-1.63-1.63-2.89-3.57-3.72-5.72-.96-2.54-1.42-5.24-1.36-7.96-.01-2.21,.38-4.41,1.17-6.48,1.52-4.07,4.65-7.33,8.65-9.01,2.22-.92,4.61-1.38,7.02-1.34Zm.2,7.04c-1.69-.1-3.34,.5-4.57,1.66-1.2,1.33-1.96,3-2.17,4.78h12.72c0-.8-.1-1.6-.31-2.37-.2-.75-.54-1.45-1.02-2.05-.5-.62-1.13-1.12-1.86-1.46-.88-.4-1.83-.59-2.79-.56h0Z"/><path d="M38.39,271.68c.28,0,.55,.05,.81,.15,.29,.12,.56,.3,.78,.52l4.54,4.77c-1.95,2.57-4.52,4.59-7.47,5.88-3.36,1.39-6.98,2.07-10.62,1.98-3.45,.06-6.88-.59-10.07-1.91-2.87-1.2-5.44-3-7.55-5.28-2.11-2.32-3.73-5.03-4.76-7.99-1.13-3.23-1.69-6.62-1.66-10.04-.04-3.47,.61-6.92,1.9-10.14,1.2-2.99,3.01-5.71,5.3-7.97,2.33-2.28,5.1-4.05,8.14-5.22,3.34-1.27,6.89-1.91,10.47-1.86,1.76,0,3.51,.16,5.23,.49,1.57,.31,3.1,.76,4.59,1.35,1.38,.55,2.69,1.24,3.93,2.07,1.15,.77,2.22,1.66,3.18,2.66l-3.86,5.18c-.26,.32-.55,.61-.89,.86-.42,.28-.92,.42-1.42,.39-.4,0-.79-.09-1.15-.27-.4-.2-.78-.42-1.15-.66-.41-.26-.85-.54-1.34-.85-.55-.34-1.13-.62-1.73-.85-.76-.29-1.54-.51-2.34-.66-1.03-.19-2.08-.28-3.13-.27-1.95-.02-3.89,.35-5.69,1.1-1.69,.71-3.19,1.79-4.42,3.15-1.28,1.45-2.26,3.13-2.88,4.96-.72,2.1-1.07,4.31-1.03,6.54-.04,2.29,.31,4.57,1.03,6.74,.61,1.82,1.56,3.51,2.81,4.96,1.14,1.31,2.56,2.36,4.15,3.06,1.6,.7,3.33,1.06,5.08,1.05,.95,0,1.9-.05,2.84-.15,.81-.09,1.61-.27,2.39-.52,.73-.25,1.44-.57,2.1-.96,.71-.43,1.39-.92,2.01-1.47,.27-.22,.57-.41,.89-.56,.31-.15,.65-.22,.99-.22Z"/><path d="M49.95,284.45v-49.22h10.19v18.12c1.2-1.04,2.55-1.89,3.99-2.55,1.63-.68,3.38-1.01,5.15-.97,1.7-.03,3.39,.3,4.95,.97,1.4,.62,2.64,1.54,3.63,2.7,1.02,1.21,1.78,2.6,2.24,4.11,.52,1.68,.77,3.42,.76,5.18v21.67h-10.2v-21.67c.08-1.39-.32-2.77-1.15-3.9-.85-.97-2.1-1.48-3.39-1.39-1.1,0-2.18,.24-3.16,.72-1.03,.51-1.98,1.16-2.83,1.94v24.3h-10.19Z"/><path d="M100.53,241.01c0,.79-.16,1.57-.49,2.29-.32,.71-.78,1.34-1.35,1.87-.58,.54-1.25,.98-1.99,1.28-.77,.32-1.59,.48-2.42,.48-.8,0-1.6-.16-2.33-.48-.71-.31-1.36-.74-1.92-1.28-.56-.53-1-1.17-1.32-1.87-.32-.72-.48-1.5-.48-2.29,0-.8,.16-1.6,.48-2.33,.31-.71,.76-1.36,1.32-1.91,.55-.55,1.21-.98,1.92-1.28,.74-.31,1.53-.47,2.33-.46,.83,0,1.65,.15,2.42,.46,1.48,.59,2.68,1.74,3.34,3.19,.33,.73,.5,1.53,.49,2.33Zm-1.18,9.34v34.1h-10.2v-34.1h10.2Z"/><path d="M118.93,235.23v49.22h-10.19v-49.22h10.19Z"/><path d="M151.55,284.45c-.56,.02-1.12-.13-1.59-.43-.44-.31-.76-.76-.9-1.28l-.79-2.6c-.66,.71-1.38,1.37-2.14,1.97-.75,.6-1.56,1.11-2.42,1.53-.89,.44-1.83,.77-2.79,.99-1.06,.24-2.15,.35-3.24,.35-1.72,.01-3.41-.39-4.93-1.18-1.55-.82-2.89-1.99-3.91-3.41-1.18-1.66-2.05-3.51-2.58-5.48-.66-2.4-.97-4.89-.94-7.38-.02-2.4,.33-4.79,1.05-7.08,.63-2.05,1.64-3.97,2.98-5.66,1.25-1.56,2.83-2.84,4.62-3.73,1.85-.91,3.89-1.37,5.95-1.35,1.52-.04,3.04,.22,4.46,.77,1.2,.5,2.31,1.19,3.3,2.02v-17.26h10.19v49.22h-6.31Zm-10.32-7.31c.68,0,1.36-.06,2.02-.21,.58-.13,1.13-.34,1.66-.61,.51-.27,.99-.6,1.43-.99,.48-.43,.92-.89,1.33-1.38v-14.47c-.69-.78-1.55-1.4-2.52-1.79-.9-.34-1.85-.51-2.81-.51-.9,0-1.78,.18-2.6,.56-.83,.41-1.54,1.03-2.05,1.79-.65,.98-1.11,2.06-1.36,3.21-.36,1.56-.52,3.16-.49,4.77-.03,1.52,.11,3.04,.39,4.54,.19,1.05,.57,2.05,1.1,2.98,.4,.69,.99,1.25,1.69,1.63,.69,.33,1.44,.5,2.2,.49Z"/><path d="M166.15,284.45v-34.1h6.05c.43-.01,.85,.03,1.26,.13,.31,.07,.6,.21,.85,.41,.24,.2,.42,.45,.53,.74,.14,.36,.24,.74,.31,1.12l.56,3.19c1.1-1.77,2.53-3.32,4.21-4.57,1.47-1.09,3.26-1.68,5.1-1.68,1.34-.07,2.66,.33,3.75,1.12l-1.32,7.5c-.04,.38-.23,.73-.53,.97-.31,.2-.68,.3-1.05,.28-.44,0-.88-.06-1.32-.15-.63-.11-1.27-.16-1.91-.15-2.68,0-4.78,1.42-6.31,4.27v20.91h-10.19Z"/><path d="M207.38,249.83c2.11-.02,4.21,.33,6.2,1.05,1.81,.66,3.46,1.7,4.83,3.06,1.39,1.4,2.47,3.07,3.16,4.92,.79,2.11,1.17,4.34,1.14,6.59,0,.63-.03,1.25-.1,1.87-.04,.4-.16,.8-.36,1.15-.16,.27-.41,.48-.71,.59-.37,.12-.75,.18-1.14,.16h-19.66c.09,2.31,1.01,4.51,2.6,6.2,1.49,1.32,3.44,2.01,5.43,1.92,1.04,.02,2.07-.12,3.06-.43,.79-.26,1.55-.58,2.29-.95,.67-.35,1.28-.67,1.84-.95,.54-.28,1.15-.43,1.76-.43,.73-.04,1.42,.29,1.84,.89l2.96,3.65c-.98,1.14-2.13,2.14-3.4,2.94-1.18,.74-2.43,1.33-3.75,1.77-1.25,.42-2.54,.72-3.85,.89-1.22,.16-2.44,.24-3.67,.25-2.29,.02-4.57-.38-6.72-1.17-2.06-.75-3.93-1.94-5.49-3.47-1.63-1.63-2.89-3.57-3.72-5.72-.96-2.54-1.42-5.24-1.36-7.96-.01-2.21,.38-4.41,1.17-6.48,1.52-4.07,4.64-7.33,8.65-9.01,2.22-.92,4.61-1.38,7.02-1.34Zm.2,7.04c-1.69-.1-3.34,.5-4.57,1.66-1.2,1.33-1.96,3-2.17,4.78h12.72c0-.8-.1-1.6-.31-2.37-.2-.75-.54-1.45-1.02-2.05-.5-.62-1.13-1.12-1.86-1.46-.88-.4-1.83-.59-2.79-.56Z"/><path d="M229.34,284.45v-34.1h6.31c.56-.02,1.12,.13,1.59,.43,.44,.31,.76,.76,.9,1.28l.59,1.97c.65-.61,1.33-1.18,2.04-1.71,.7-.53,1.45-.97,2.25-1.33,.83-.37,1.7-.66,2.6-.85,1-.22,2.02-.32,3.04-.31,1.7-.03,3.39,.3,4.95,.97,1.4,.62,2.64,1.54,3.63,2.7,1.02,1.21,1.78,2.6,2.24,4.11,.52,1.68,.77,3.42,.76,5.18v21.67h-10.19v-21.67c.08-1.39-.32-2.77-1.15-3.9-.85-.97-2.1-1.48-3.39-1.39-1.1,0-2.18,.24-3.16,.72-1.03,.51-1.98,1.16-2.83,1.94v24.3h-10.19Z"/></g><g id="save-the-shildren-symbol"><path d="M191.03,37.79c6.03-7.13,8.71-10.42,8.13-12.22-.77-1.64-2.21-2.86-3.96-3.34-2.28-.86-5.39-1.26-6.96-.34-1.26,1.07-2.4,2.27-3.41,3.57l-1.91,2.15h0c-1.22-1.24-2.51-2.48-3.78-3.58-9.25-8.05-20.59-13.31-32.71-15.18-4.91-5.22-11.31-7.64-17.61-6.65-5.45,.95-10.24,4.19-13.14,8.9-12.47,3.82-23.69,10.93-32.47,20.57h0c-1.98-.6-6.34,.17-9.06,1.66-1.29,.53-2.27,1.63-2.66,2.97-.15,.84,.19,2.17,3.58,6.04h0c-8.7,13.78-12.44,30.11-10.62,46.3,1.84,16.19,9.64,31.12,21.89,41.87,4.29,3.74,9.05,6.9,14.16,9.39,23.73,11.46,51.58,10.47,74.44-2.63l.03-.02c1.86-1.08,2.55-3.42,1.58-5.34l-.27-.62c-3.75-8.4-15.15-33.97-8.8-57.29,2.66-9.76,10.32-20.16,16.94-28.31h0c7.05,10.93,10.58,23.75,10.13,36.75-.42,11.88-4.46,23.35-11.59,32.86-.32,.39-.4,.93-.21,1.4l.72,1.69c.32,.69,1.14,.99,1.83,.68,.19-.09,.36-.22,.49-.38h0c18.73-23.75,20.97-56.42,5.23-80.9Zm-82.74,55.16c-2.48,12.81-3.05,25.92-1.69,38.89h0c-4.85-2.46-9.38-5.5-13.49-9.07-11.13-9.66-18.64-22.82-21.27-37.32-2.47-13.56-.2-27.56,6.43-39.64h0c2.51,2.62,5.54,5.64,8.73,8.79,7.78,7.71,16.59,16.44,20.88,22.66,2.48,3.6,1.71,8.15,.42,15.7m67.6-57.84c-14.33,14.4-27.84,22.21-40.13,23.14-9.46,.71-19.47-2.1-29.77-8.38-6.85-4.34-13.22-9.4-19.01-15.08l-.4-.38h0c7.06-7.54,15.98-13.08,25.88-16.04h0c-1.06,3.98-1.26,8.15-.59,12.21,1,7.18,4.79,13.68,10.55,18.09,8.06,6.3,19.7,4.87,25.99-3.19,.26-.33,.5-.67,.74-1.01,4.13-5.96,5.75-13.31,4.5-20.46-.22-1.37-.52-2.72-.92-4.05h0c7.2,2.75,13.85,6.76,19.66,11.83,1.19,1.04,2.37,2.15,3.52,3.31h0Z"/></g><rect x="321.49" y="76.75" width="2" height="153.59"/><g><path d="M508.56,119.81c6.01-4.83,13.59-7.49,21.33-7.49s15.32,2.66,21.33,7.49c5.68,4.56,9.77,10.88,11.58,17.87h23.85c-1.98-13.39-8.53-25.69-18.51-34.76-10.46-9.5-24.01-14.73-38.15-14.73s-27.68,5.23-38.14,14.73c-9.98,9.06-16.52,21.36-18.5,34.76h23.63c1.82-6.99,5.9-13.31,11.58-17.87Z"/><path d="M604.44,137.68h26.29c-1.94-24.91-13.1-48.05-31.53-65.29-18.82-17.6-43.39-27.3-69.19-27.3s-50.37,9.69-69.19,27.3c-18.43,17.24-29.6,40.38-31.53,65.29h26.29c2.07-17.89,10.58-34.4,24.03-46.6,13.82-12.53,31.72-19.43,50.4-19.43s36.59,6.9,50.41,19.43c13.45,12.2,21.96,28.71,24.03,46.6Z"/><path d="M491.5,154.97h-106.4c.94,14.93,4.2,29.53,9.68,43.42l96.72-43.42Z"/><path d="M412.91,137.68c1.95-29.27,14.86-56.51,36.41-76.82,21.9-20.64,50.56-32.01,80.69-32.01s58.78,11.37,80.69,32.01c21.55,20.31,34.45,47.55,36.41,76.82h27.9c-1.65-36.94-17.3-71.41-44.13-97.18C603.67,14.38,567.85,0,530,0s-73.67,14.38-100.87,40.5c-26.84,25.77-42.48,60.24-44.13,97.18h27.91Z"/><path d="M566.28,154.97l97.57,46.67c6.32-14.9,10.03-30.59,11.05-46.67h-108.62Z"/><path d="M570.6,284.24c13.97-4.03,27.21-10.13,39.41-18.15l-64.41-86.8,24.99,104.95Z"/><path d="M550.12,288.58l-20.65-105.89-23.17,105.33c8,1.32,15.98,1.98,23.71,1.98,6.55,0,13.31-.48,20.12-1.42Z"/><path d="M404.03,217.5c7.16,12.38,16.13,23.62,26.66,33.43l69.95-82.12-96.61,48.69Z"/><path d="M559.08,170.08l67.53,83.3c10.77-9.54,20.01-20.57,27.51-32.81l-95.04-50.49Z"/><path d="M513.65,178.86l-66.69,85.19c11.97,8.3,25.07,14.73,38.99,19.12l26.09-97.66,1.61-6.64Z"/></g></svg>