<?xml version="1.0" encoding="UTF-8"?><svg id="Layer_1" xmlns="http://www.w3.org/2000/svg" viewBox="0 0 1000 440"><defs><style>.cls-1{fill:#f76d36;}.cls-2{fill:#ffa05f;}.cls-3{fill:#393f42;}</style></defs><path class="cls-3" d="M356.66,76.23h-13.43V9.25h13.43v27.54h28.69V9.25h13.44V76.23h-13.44v-28.5h-28.69v28.5Zm64.47-1.97c3.2,1.76,6.88,2.64,11.03,2.64,3.26,0,6.29-.66,9.07-1.97,2.78-1.31,5.04-3.12,6.76-5.42v6.72h13.53V23.07h-13.53v29.27c0,4.22-1.05,7.47-3.17,9.74-2.11,2.27-5.02,3.41-8.73,3.41s-6.52-1.14-8.64-3.41c-2.11-2.27-3.17-5.52-3.17-9.74V23.07h-13.44v31.19c0,4.74,.91,8.81,2.74,12.24,1.82,3.42,4.33,6.01,7.53,7.77Zm65.73-27.4c0-4.16,1.07-7.34,3.21-9.55,2.14-2.21,5.07-3.31,8.78-3.31s6.52,1.1,8.64,3.31c2.11,2.21,3.17,5.39,3.17,9.55v29.36h13.44v-29.36c0-4.16,1.07-7.34,3.21-9.55,2.14-2.21,5.04-3.31,8.68-3.31s6.52,1.1,8.64,3.31c2.11,2.21,3.17,5.39,3.17,9.55v29.36h13.44v-31.19c0-7.16-2-12.75-6-16.74-4-4-9.26-6-15.79-6-3.84,0-7.4,.93-10.7,2.78-3.3,1.86-5.81,4.32-7.53,7.39-1.79-3.26-4.32-5.77-7.58-7.53-3.26-1.76-6.97-2.64-11.13-2.64-3.26,0-6.25,.64-8.97,1.92-2.72,1.28-4.94,3.04-6.67,5.28v-6.43h-13.43v53.16h13.43v-29.36Zm85.98,17.03c-2.14-4.19-3.21-9-3.21-14.44s1.07-10.14,3.21-14.3c2.14-4.16,5.05-7.36,8.73-9.59,3.68-2.24,7.79-3.36,12.33-3.36,3.96,0,7.44,.8,10.41,2.4,2.97,1.6,5.36,3.61,7.15,6.04v-7.58h13.53v53.16h-13.53v-7.77c-1.73,2.5-4.11,4.56-7.15,6.19-3.04,1.63-6.54,2.45-10.51,2.45-4.48,0-8.55-1.15-12.23-3.45-3.68-2.3-6.59-5.55-8.73-9.74Zm10.51-14.44c0,3.2,.66,6,1.97,8.4,1.31,2.4,3.04,4.24,5.18,5.52,2.14,1.28,4.43,1.92,6.86,1.92s4.83-.62,7.01-1.87c2.17-1.25,3.9-3.04,5.18-5.37,1.28-2.33,1.92-5.14,1.92-8.4s-.64-6.06-1.92-8.4c-1.28-2.33-3.01-4.13-5.18-5.37-2.17-1.25-4.51-1.87-7.01-1.87s-4.8,.61-6.91,1.82c-2.11,1.22-3.82,2.99-5.13,5.33-1.31,2.33-1.97,5.1-1.97,8.3Zm66.93-2.59c0-4.22,1.07-7.47,3.21-9.74,2.14-2.27,5.07-3.41,8.78-3.41s6.52,1.14,8.64,3.41c2.11,2.27,3.17,5.52,3.17,9.74v29.36h13.43v-31.19c0-7.16-1.95-12.75-5.85-16.74-3.9-4-9.02-6-15.35-6-3.33,0-6.38,.66-9.16,1.97-2.78,1.31-5.07,3.12-6.86,5.42v-6.62h-13.43v53.16h13.43v-29.36Zm61.95-23.8h-13.44v53.16h13.44V23.07Zm-6.62-6.33c2.37,0,4.33-.75,5.9-2.26,1.57-1.5,2.35-3.37,2.35-5.61s-.79-4.11-2.35-5.61c-1.57-1.5-3.53-2.25-5.9-2.25s-4.33,.75-5.9,2.25c-1.57,1.5-2.35,3.38-2.35,5.61s.78,4.11,2.35,5.61c1.57,1.5,3.53,2.26,5.9,2.26Zm20.34,42.99c0,11,5.66,16.51,16.98,16.51h8.45v-11.32h-6.24c-2.05,0-3.5-.4-4.37-1.2-.86-.8-1.3-2.1-1.3-3.89v-25.71h11.9v-11.04h-11.9V9.92h-13.53v13.15h-6.33v11.04h6.33v25.62Zm72.16,16.51v-7.77c-1.73,2.5-4.11,4.56-7.15,6.19-3.04,1.63-6.54,2.45-10.51,2.45-4.48,0-8.56-1.15-12.24-3.45-3.68-2.3-6.59-5.55-8.73-9.74-2.14-4.19-3.21-9-3.21-14.44s1.07-10.14,3.21-14.3c2.14-4.16,5.05-7.36,8.73-9.59,3.68-2.24,7.79-3.36,12.33-3.36,3.97,0,7.44,.8,10.41,2.4s5.36,3.61,7.15,6.04v-7.58h13.53v53.16h-13.53Zm0-26.58c0-3.26-.64-6.06-1.92-8.4-1.28-2.33-3.01-4.13-5.18-5.37-2.18-1.25-4.51-1.87-7.01-1.87s-4.8,.61-6.91,1.82c-2.11,1.22-3.82,2.99-5.14,5.33-1.31,2.33-1.97,5.1-1.97,8.3s.65,6,1.97,8.4c1.31,2.4,3.04,4.24,5.18,5.52,2.14,1.28,4.43,1.92,6.86,1.92s4.83-.62,7.01-1.87c2.17-1.25,3.9-3.04,5.18-5.37,1.28-2.33,1.92-5.14,1.92-8.4Zm38.81,.1c0-4.93,1.07-8.38,3.21-10.36,2.14-1.98,5.33-2.97,9.55-2.97h3.55v-14.11c-3.58,0-6.77,.8-9.55,2.4-2.78,1.6-5.04,3.81-6.77,6.62v-8.25h-13.43v53.16h13.43v-26.48ZM866.77,1c-2.37,0-4.33,.75-5.9,2.25-1.57,1.5-2.35,3.38-2.35,5.61s.78,4.11,2.35,5.61c1.57,1.5,3.53,2.26,5.9,2.26s4.33-.75,5.9-2.26c1.57-1.5,2.35-3.37,2.35-5.61s-.78-4.11-2.35-5.61c-1.57-1.5-3.53-2.25-5.9-2.25Zm-6.81,75.23h13.43V23.07h-13.43v53.16Zm63.99-53.16h13.53v53.16h-13.53v-7.77c-1.73,2.5-4.11,4.56-7.15,6.19-3.04,1.63-6.54,2.45-10.51,2.45-4.48,0-8.56-1.15-12.23-3.45-3.68-2.3-6.59-5.55-8.73-9.74-2.14-4.19-3.21-9-3.21-14.44s1.07-10.14,3.21-14.3c2.14-4.16,5.05-7.36,8.73-9.59,3.68-2.24,7.79-3.36,12.33-3.36,3.96,0,7.44,.8,10.41,2.4,2.98,1.6,5.36,3.61,7.15,6.04v-7.58Zm0,26.58c0-3.26-.64-6.06-1.92-8.4-1.28-2.33-3.01-4.13-5.18-5.37-2.17-1.25-4.51-1.87-7.01-1.87s-4.8,.61-6.91,1.82c-2.11,1.22-3.82,2.99-5.14,5.33-1.31,2.33-1.97,5.1-1.97,8.3s.65,6,1.97,8.4c1.31,2.4,3.04,4.24,5.18,5.52,2.14,1.28,4.43,1.92,6.86,1.92s4.83-.62,7.01-1.87c2.17-1.25,3.9-3.04,5.18-5.37,1.28-2.33,1.92-5.14,1.92-8.4Zm70.19-21.35c-3.9-4-9.02-6-15.35-6-3.33,0-6.38,.66-9.16,1.97-2.78,1.31-5.07,3.12-6.86,5.42v-6.62h-13.43v53.16h13.43v-29.36c0-4.22,1.07-7.47,3.21-9.74,2.14-2.27,5.07-3.41,8.78-3.41s6.52,1.14,8.64,3.41c2.11,2.27,3.17,5.52,3.17,9.74v29.36h13.43v-31.19c0-7.16-1.95-12.75-5.85-16.74ZM378.73,167.8h-22.07v-56.33h-13.43v66.98h35.5v-10.65Zm16.01-40.01c4.03-2.24,8.67-3.36,13.91-3.36s9.58,1.09,13.58,3.26c4,2.18,7.1,5.26,9.31,9.26,2.21,4,3.31,8.59,3.31,13.77,0,1.92-.13,3.65-.39,5.18h-38.86c.32,3.84,1.66,6.85,4.03,9.02,2.37,2.18,5.28,3.26,8.73,3.26,4.99,0,8.54-2.14,10.65-6.43h14.49c-1.53,5.12-4.48,9.32-8.83,12.62-4.35,3.3-9.69,4.94-16.02,4.94-5.12,0-9.71-1.14-13.77-3.4-4.06-2.27-7.23-5.49-9.5-9.64-2.27-4.16-3.41-8.96-3.41-14.39s1.12-10.33,3.36-14.49c2.24-4.16,5.37-7.36,9.4-9.6Zm.96,19.09h25.23c-.06-3.45-1.31-6.22-3.74-8.3-2.43-2.08-5.41-3.12-8.92-3.12-3.33,0-6.13,1.01-8.4,3.02-2.27,2.02-3.66,4.81-4.17,8.4Zm69.1,32.43c-4.48,0-8.56-1.15-12.24-3.45-3.68-2.3-6.59-5.55-8.73-9.74-2.14-4.19-3.21-9-3.21-14.44s1.07-10.14,3.21-14.3c2.14-4.16,5.05-7.36,8.73-9.6,3.68-2.24,7.79-3.36,12.33-3.36,3.96,0,7.44,.8,10.41,2.4,2.97,1.6,5.36,3.61,7.15,6.04v-7.58h13.53v53.16h-13.53v-7.77c-1.73,2.5-4.11,4.56-7.15,6.19-3.04,1.63-6.54,2.45-10.51,2.45Zm-3.31-13.72c2.14,1.28,4.43,1.92,6.86,1.92s4.83-.62,7.01-1.87c2.17-1.25,3.9-3.04,5.18-5.37,1.28-2.33,1.92-5.13,1.92-8.4s-.64-6.06-1.92-8.4c-1.28-2.33-3.01-4.13-5.18-5.37s-4.51-1.87-7.01-1.87-4.8,.61-6.91,1.82c-2.11,1.22-3.82,2.99-5.13,5.33-1.31,2.33-1.97,5.1-1.97,8.3s.66,6,1.97,8.4c1.31,2.4,3.04,4.24,5.18,5.52Zm67.7,13.72c-4.48,0-8.57-1.15-12.28-3.45-3.71-2.3-6.64-5.55-8.78-9.74-2.14-4.19-3.21-9-3.21-14.44s1.07-10.14,3.21-14.3c2.14-4.16,5.07-7.36,8.78-9.6,3.71-2.24,7.83-3.36,12.38-3.36,3.46,0,6.75,.75,9.88,2.25,3.13,1.5,5.63,3.5,7.48,6v-25.24h13.63v71.01h-13.63v-7.87c-1.66,2.62-4,4.74-7.01,6.33-3.01,1.6-6.49,2.4-10.46,2.4Zm-3.41-13.72c2.14,1.28,4.43,1.92,6.86,1.92s4.83-.62,7-1.87c2.17-1.25,3.9-3.04,5.18-5.37,1.28-2.33,1.92-5.13,1.92-8.4s-.64-6.06-1.92-8.4c-1.28-2.33-3.01-4.13-5.18-5.37-2.17-1.25-4.51-1.87-7-1.87s-4.8,.61-6.91,1.82c-2.11,1.22-3.82,2.99-5.14,5.33-1.31,2.33-1.97,5.1-1.97,8.3s.66,6,1.97,8.4c1.31,2.4,3.04,4.24,5.18,5.52Zm69.92,13.72c-5.12,0-9.71-1.14-13.77-3.4-4.06-2.27-7.23-5.49-9.5-9.64-2.27-4.16-3.41-8.96-3.41-14.39s1.12-10.33,3.36-14.49c2.24-4.16,5.37-7.36,9.4-9.6,4.03-2.24,8.67-3.36,13.91-3.36s9.58,1.09,13.58,3.26c4,2.18,7.1,5.26,9.31,9.26,2.21,4,3.31,8.59,3.31,13.77,0,1.92-.13,3.65-.39,5.18h-38.86c.32,3.84,1.66,6.85,4.03,9.02,2.37,2.18,5.28,3.26,8.73,3.26,4.99,0,8.54-2.14,10.65-6.43h14.49c-1.53,5.12-4.48,9.32-8.83,12.62-4.35,3.3-9.69,4.94-16.02,4.94Zm-12.95-32.43h25.24c-.06-3.45-1.31-6.22-3.74-8.3-2.43-2.08-5.41-3.12-8.92-3.12-3.33,0-6.13,1.01-8.4,3.02-2.27,2.02-3.66,4.81-4.17,8.4Zm77.74-8.25v-14.11c-3.58,0-6.77,.8-9.55,2.4-2.78,1.6-5.04,3.81-6.76,6.62v-8.25h-13.44v53.16h13.44v-26.48c0-4.93,1.07-8.38,3.21-10.36,2.14-1.98,5.33-2.97,9.55-2.97h3.55Zm33.83,28.59c-1.44,1.02-3.44,1.54-6,1.54s-4.81-.67-6.57-2.02c-1.76-1.34-2.77-3.04-3.02-5.09h-13.53c.19,3.26,1.29,6.24,3.31,8.92,2.02,2.69,4.75,4.81,8.2,6.38,3.46,1.57,7.36,2.35,11.71,2.35s7.92-.69,11.08-2.06c3.17-1.37,5.6-3.28,7.29-5.71,1.69-2.43,2.54-5.18,2.54-8.25-.06-3.52-1.01-6.35-2.83-8.49-1.82-2.14-3.98-3.73-6.48-4.75-2.49-1.02-5.66-2.02-9.5-2.97-3.78-.96-6.56-1.9-8.35-2.83-1.79-.93-2.69-2.29-2.69-4.08,0-1.6,.65-2.85,1.97-3.74,1.31-.89,3.18-1.34,5.61-1.34,2.62,0,4.72,.62,6.28,1.87,1.57,1.25,2.45,2.93,2.64,5.04h12.86c-.38-5.37-2.46-9.64-6.24-12.81-3.78-3.17-8.83-4.75-15.16-4.75-4.29,0-8.01,.7-11.18,2.11-3.17,1.41-5.6,3.33-7.29,5.76-1.69,2.43-2.54,5.12-2.54,8.06,0,3.58,.91,6.43,2.73,8.54,1.82,2.11,4,3.68,6.52,4.7,2.53,1.02,5.77,2.02,9.74,2.98,3.84,1.02,6.64,1.97,8.4,2.83,1.76,.86,2.64,2.16,2.64,3.89,0,1.6-.72,2.91-2.16,3.93Zm58.79-27.88c2.11,2.27,3.17,5.52,3.17,9.74v29.36h13.43v-31.19c0-4.8-.88-8.91-2.64-12.33-1.76-3.42-4.21-6.01-7.34-7.77-3.13-1.76-6.72-2.64-10.75-2.64-3.52,0-6.72,.66-9.59,1.97-2.88,1.31-5.18,3.12-6.91,5.42v-24.47h-13.44v71.01h13.44v-29.36c0-4.22,1.07-7.47,3.21-9.74,2.14-2.27,5.07-3.41,8.78-3.41s6.52,1.14,8.64,3.41Zm34.7-36.13c-2.37,0-4.33,.75-5.9,2.25-1.57,1.5-2.35,3.38-2.35,5.61s.78,4.11,2.35,5.61c1.57,1.5,3.54,2.26,5.9,2.26s4.33-.75,5.9-2.26c1.57-1.5,2.35-3.37,2.35-5.61s-.78-4.11-2.35-5.61c-1.57-1.5-3.53-2.25-5.9-2.25Zm6.62,22.07h-13.44v53.16h13.44v-53.16Zm64.01,12.04c2.14,4.13,3.21,8.91,3.21,14.35s-1.07,10.25-3.21,14.44c-2.14,4.19-5.05,7.44-8.73,9.74-3.68,2.3-7.79,3.45-12.33,3.45-3.9,0-7.34-.8-10.32-2.4-2.97-1.6-5.39-3.61-7.24-6.05v32.91h-13.44V125.29h13.44v7.68c1.73-2.43,4.11-4.46,7.15-6.09,3.04-1.63,6.51-2.45,10.41-2.45,4.54,0,8.65,1.12,12.33,3.36,3.68,2.24,6.59,5.42,8.73,9.55Zm-10.51,14.35c0-3.2-.66-5.96-1.97-8.3-1.31-2.34-3.04-4.11-5.18-5.33-2.14-1.21-4.46-1.82-6.96-1.82s-4.72,.62-6.86,1.87c-2.14,1.25-3.87,3.05-5.18,5.42-1.31,2.37-1.97,5.15-1.97,8.35s.65,5.98,1.97,8.35c1.31,2.37,3.04,4.17,5.18,5.42,2.14,1.25,4.43,1.87,6.86,1.87s4.81-.64,6.96-1.92c2.14-1.28,3.87-3.1,5.18-5.47,1.31-2.37,1.97-5.18,1.97-8.44Zm-473.38,62.18l24.08,67.07h-14.2l-4.41-12.76h-26.68l-4.41,12.76h-14.11l24.09-67.07h15.64Zm1.82,43.56l-9.69-28.02-9.69,28.02h19.38Zm50.8-19.1c2.69,0,4.94,.66,6.77,1.97,1.82,1.31,3.12,3.12,3.88,5.42h14.49c-1.47-5.95-4.36-10.57-8.68-13.86-4.32-3.29-9.77-4.94-16.36-4.94-5.12,0-9.66,1.14-13.63,3.41-3.97,2.27-7.07,5.47-9.31,9.6-2.24,4.13-3.36,8.94-3.36,14.44s1.12,10.31,3.36,14.44c2.24,4.13,5.34,7.33,9.31,9.6,3.96,2.27,8.51,3.4,13.63,3.4,6.52,0,11.96-1.69,16.31-5.09,4.35-3.39,7.26-7.96,8.73-13.72h-14.49c-1.66,4.86-5.21,7.29-10.65,7.29-3.84,0-6.88-1.39-9.11-4.17-2.24-2.78-3.36-6.7-3.36-11.75s1.12-9.07,3.36-11.85c2.24-2.78,5.28-4.17,9.11-4.17Zm72.23-10.56h13.53v53.16h-13.53v-7.77c-1.73,2.5-4.11,4.56-7.15,6.19-3.04,1.63-6.54,2.45-10.51,2.45-4.48,0-8.55-1.15-12.23-3.45-3.68-2.3-6.59-5.55-8.73-9.74-2.14-4.19-3.21-9-3.21-14.44s1.07-10.14,3.21-14.29c2.14-4.16,5.05-7.36,8.73-9.6,3.68-2.24,7.79-3.36,12.33-3.36,3.96,0,7.44,.8,10.41,2.4,2.97,1.6,5.36,3.61,7.15,6.04v-7.58Zm0,26.58c0-3.26-.64-6.06-1.92-8.4-1.28-2.33-3.01-4.13-5.18-5.37-2.17-1.25-4.51-1.87-7.01-1.87s-4.8,.61-6.91,1.82c-2.11,1.22-3.82,2.99-5.13,5.33-1.31,2.33-1.97,5.1-1.97,8.3s.66,6,1.97,8.4c1.31,2.4,3.04,4.24,5.18,5.52,2.14,1.28,4.43,1.92,6.86,1.92s4.83-.62,7.01-1.87c2.17-1.25,3.9-3.04,5.18-5.37,1.28-2.33,1.92-5.14,1.92-8.4Zm64.19-44.43h13.63v71.01h-13.63v-7.87c-1.67,2.62-4,4.74-7.01,6.33-3.01,1.6-6.49,2.4-10.46,2.4-4.48,0-8.57-1.15-12.28-3.45-3.71-2.3-6.64-5.55-8.78-9.74-2.14-4.19-3.21-9-3.21-14.44s1.07-10.14,3.21-14.29c2.14-4.16,5.07-7.36,8.78-9.6,3.71-2.24,7.83-3.36,12.38-3.36,3.46,0,6.75,.75,9.88,2.25,3.13,1.5,5.63,3.5,7.48,6v-25.24Zm.1,44.43c0-3.26-.64-6.06-1.92-8.4-1.28-2.33-3.01-4.13-5.18-5.37-2.17-1.25-4.51-1.87-7-1.87s-4.8,.61-6.91,1.82c-2.11,1.22-3.82,2.99-5.13,5.33-1.31,2.33-1.97,5.1-1.97,8.3s.66,6,1.97,8.4c1.31,2.4,3.04,4.24,5.18,5.52,2.14,1.28,4.43,1.92,6.86,1.92s4.83-.62,7-1.87c2.17-1.25,3.9-3.04,5.18-5.37,1.28-2.33,1.92-5.14,1.92-8.4Zm71.84-14.92c2.21,4,3.31,8.59,3.31,13.77,0,1.92-.13,3.65-.38,5.18h-38.86c.32,3.84,1.66,6.84,4.03,9.02,2.37,2.18,5.28,3.26,8.73,3.26,4.99,0,8.54-2.14,10.65-6.43h14.49c-1.53,5.12-4.48,9.32-8.83,12.62-4.35,3.3-9.69,4.94-16.02,4.94-5.12,0-9.71-1.14-13.77-3.4-4.06-2.27-7.23-5.49-9.5-9.64-2.27-4.16-3.41-8.96-3.41-14.39s1.12-10.33,3.36-14.49c2.24-4.16,5.37-7.36,9.4-9.6,4.03-2.24,8.67-3.36,13.91-3.36s9.58,1.09,13.58,3.26c4,2.18,7.1,5.26,9.31,9.26Zm-10.6,9.93c-.07-3.45-1.31-6.22-3.74-8.3-2.43-2.08-5.41-3.12-8.92-3.12-3.33,0-6.13,1.01-8.4,3.02-2.27,2.02-3.66,4.82-4.17,8.4h25.24Zm88.77-22.36c-3.84,0-7.4,.93-10.7,2.78-3.29,1.86-5.8,4.32-7.53,7.39-1.79-3.26-4.32-5.77-7.58-7.53-3.26-1.76-6.97-2.64-11.13-2.64-3.26,0-6.25,.64-8.97,1.92-2.72,1.28-4.94,3.04-6.67,5.28v-6.43h-13.43v53.16h13.43v-29.36c0-4.16,1.07-7.34,3.21-9.55,2.14-2.21,5.07-3.31,8.78-3.31s6.52,1.1,8.64,3.31c2.11,2.21,3.17,5.39,3.17,9.55v29.36h13.44v-29.36c0-4.16,1.07-7.34,3.21-9.55,2.14-2.21,5.04-3.31,8.68-3.31s6.52,1.1,8.64,3.31c2.11,2.21,3.17,5.39,3.17,9.55v29.36h13.43v-31.19c0-7.16-2-12.75-6-16.74-4-4-9.26-6-15.79-6Zm53.48,37.9l-13.72-37.14h-15.07l21.3,51.82-11.52,26.48h14.3l32.91-78.3h-14.3l-13.91,37.14Z"/><g><path class="cls-3" d="M7.2,419.57h11.83v5.71H0v-35.89H7.2v30.19Z"/><path class="cls-3" d="M27.95,423.91c-2.19-1.22-3.92-2.94-5.17-5.17-1.25-2.23-1.88-4.8-1.88-7.71s.64-5.48,1.93-7.71c1.28-2.23,3.04-3.95,5.27-5.17,2.23-1.22,4.71-1.83,7.46-1.83s5.23,.61,7.46,1.83c2.23,1.22,3.99,2.94,5.27,5.17,1.29,2.23,1.93,4.8,1.93,7.71s-.66,5.48-1.98,7.71c-1.32,2.23-3.1,3.95-5.35,5.17-2.25,1.22-4.76,1.83-7.53,1.83s-5.21-.61-7.4-1.83Zm11.08-5.4c1.15-.63,2.06-1.58,2.75-2.85,.68-1.27,1.03-2.81,1.03-4.63,0-2.71-.71-4.79-2.13-6.25-1.42-1.46-3.16-2.19-5.22-2.19s-3.78,.73-5.17,2.19c-1.39,1.46-2.08,3.54-2.08,6.25s.68,4.79,2.03,6.25c1.35,1.46,3.06,2.19,5.12,2.19,1.3,0,2.53-.32,3.68-.95Z"/><path class="cls-3" d="M55.12,403.29c1.2-2.21,2.86-3.93,4.99-5.14,2.12-1.22,4.56-1.83,7.3-1.83,3.53,0,6.45,.88,8.77,2.65,2.31,1.77,3.86,4.24,4.65,7.43h-7.77c-.41-1.23-1.1-2.2-2.08-2.9-.98-.7-2.18-1.05-3.63-1.05-2.06,0-3.69,.74-4.89,2.24-1.2,1.49-1.8,3.61-1.8,6.35s.6,4.81,1.8,6.3c1.2,1.49,2.83,2.24,4.89,2.24,2.91,0,4.82-1.3,5.71-3.91h7.77c-.79,3.09-2.35,5.54-4.68,7.35-2.33,1.82-5.24,2.72-8.74,2.72-2.74,0-5.18-.61-7.3-1.83-2.13-1.22-3.79-2.93-4.99-5.14-1.2-2.21-1.8-4.79-1.8-7.74s.6-5.53,1.8-7.74Z"/><path class="cls-3" d="M85.5,403.26c1.15-2.23,2.71-3.94,4.68-5.14,1.97-1.2,4.17-1.8,6.61-1.8,2.13,0,3.99,.43,5.58,1.29s2.87,1.94,3.83,3.24v-4.06h7.25v28.49h-7.25v-4.17c-.92,1.34-2.2,2.44-3.83,3.32-1.63,.87-3.51,1.31-5.63,1.31-2.4,0-4.59-.62-6.56-1.85-1.97-1.23-3.53-2.97-4.68-5.22-1.15-2.24-1.72-4.82-1.72-7.74s.57-5.43,1.72-7.66Zm19.67,3.26c-.69-1.25-1.61-2.21-2.78-2.88-1.16-.67-2.42-1-3.75-1s-2.57,.33-3.7,.98c-1.13,.65-2.05,1.6-2.75,2.85-.7,1.25-1.05,2.73-1.05,4.45s.35,3.21,1.05,4.5c.7,1.29,1.63,2.27,2.78,2.96,1.15,.69,2.37,1.03,3.68,1.03s2.59-.33,3.75-1c1.16-.67,2.09-1.63,2.78-2.88,.68-1.25,1.03-2.75,1.03-4.5s-.34-3.25-1.03-4.5Z"/><path class="cls-3" d="M127.13,387.22v38.05h-7.2v-38.05h7.2Z"/><path class="cls-3" d="M140.82,387.22v38.05h-7.2v-38.05h7.2Z"/><path class="cls-3" d="M174.62,396.79l-17.64,41.96h-7.66l6.17-14.19-11.42-27.77h8.07l7.35,19.9,7.46-19.9h7.66Z"/><path class="cls-3" d="M199.04,403.88v6.07h-21.8v-6.07h21.8Z"/><path class="cls-3" d="M213.18,387.22v38.05h-7.2v-38.05h7.2Z"/><path class="cls-3" d="M246.21,413.19h-20.83c.17,2.06,.89,3.67,2.16,4.83s2.83,1.75,4.68,1.75c2.67,0,4.58-1.15,5.71-3.45h7.76c-.82,2.74-2.4,5-4.73,6.76-2.33,1.77-5.19,2.65-8.59,2.65-2.74,0-5.2-.61-7.38-1.83-2.18-1.22-3.88-2.94-5.09-5.17-1.22-2.23-1.82-4.8-1.82-7.71s.6-5.54,1.8-7.76c1.2-2.23,2.88-3.94,5.04-5.14,2.16-1.2,4.65-1.8,7.46-1.8s5.13,.58,7.28,1.75c2.14,1.17,3.81,2.82,4.99,4.96,1.18,2.14,1.77,4.6,1.77,7.38,0,1.03-.07,1.95-.21,2.78Zm-7.25-4.83c-.03-1.85-.7-3.33-2-4.45-1.3-1.11-2.9-1.67-4.78-1.67-1.78,0-3.28,.54-4.5,1.62-1.22,1.08-1.96,2.58-2.24,4.5h13.52Z"/><path class="cls-3" d="M251.36,403.26c1.15-2.23,2.72-3.94,4.71-5.14,1.99-1.2,4.2-1.8,6.63-1.8,1.85,0,3.62,.4,5.3,1.21,1.68,.81,3.02,1.88,4.01,3.21v-13.52h7.3v38.05h-7.3v-4.22c-.89,1.41-2.14,2.54-3.75,3.39-1.61,.86-3.48,1.28-5.6,1.28-2.4,0-4.59-.62-6.58-1.85-1.99-1.23-3.56-2.97-4.71-5.22-1.15-2.24-1.72-4.82-1.72-7.74s.57-5.43,1.72-7.66Zm19.67,3.26c-.69-1.25-1.61-2.21-2.78-2.88-1.16-.67-2.42-1-3.75-1s-2.57,.33-3.7,.98c-1.13,.65-2.05,1.6-2.75,2.85-.7,1.25-1.05,2.73-1.05,4.45s.35,3.21,1.05,4.5c.7,1.29,1.63,2.27,2.78,2.96,1.15,.69,2.37,1.03,3.68,1.03s2.59-.33,3.75-1c1.16-.67,2.09-1.63,2.78-2.88,.68-1.25,1.03-2.75,1.03-4.5s-.34-3.25-1.03-4.5Z"/><path class="cls-3" d="M305.79,387.22v38.05h-7.2v-38.05h7.2Z"/><path class="cls-3" d="M338.82,413.19h-20.83c.17,2.06,.89,3.67,2.16,4.83,1.27,1.17,2.83,1.75,4.68,1.75,2.67,0,4.58-1.15,5.71-3.45h7.76c-.82,2.74-2.4,5-4.73,6.76-2.33,1.77-5.19,2.65-8.59,2.65-2.74,0-5.2-.61-7.38-1.83-2.18-1.22-3.88-2.94-5.09-5.17-1.22-2.23-1.82-4.8-1.82-7.71s.6-5.54,1.8-7.76c1.2-2.23,2.88-3.94,5.04-5.14,2.16-1.2,4.65-1.8,7.46-1.8s5.13,.58,7.28,1.75c2.14,1.17,3.81,2.82,4.99,4.96,1.18,2.14,1.77,4.6,1.77,7.38,0,1.03-.07,1.95-.21,2.78Zm-7.25-4.83c-.03-1.85-.7-3.33-2-4.45-1.3-1.11-2.9-1.67-4.78-1.67-1.78,0-3.28,.54-4.5,1.62-1.22,1.08-1.96,2.58-2.24,4.5h13.52Z"/><path class="cls-3" d="M343.96,403.26c1.15-2.23,2.71-3.94,4.68-5.14,1.97-1.2,4.17-1.8,6.61-1.8,2.13,0,3.99,.43,5.58,1.29,1.59,.86,2.87,1.94,3.83,3.24v-4.06h7.25v28.49h-7.25v-4.17c-.92,1.34-2.2,2.44-3.83,3.32-1.63,.87-3.51,1.31-5.63,1.31-2.4,0-4.59-.62-6.56-1.85-1.97-1.23-3.53-2.97-4.68-5.22-1.15-2.24-1.72-4.82-1.72-7.74s.57-5.43,1.72-7.66Zm19.67,3.26c-.69-1.25-1.61-2.21-2.78-2.88-1.16-.67-2.42-1-3.75-1s-2.57,.33-3.7,.98c-1.13,.65-2.05,1.6-2.75,2.85-.7,1.25-1.05,2.73-1.05,4.45s.35,3.21,1.05,4.5c.7,1.29,1.63,2.27,2.78,2.96,1.15,.69,2.37,1.03,3.68,1.03s2.59-.33,3.75-1c1.16-.67,2.09-1.63,2.78-2.88,.68-1.25,1.03-2.75,1.03-4.5s-.34-3.25-1.03-4.5Z"/><path class="cls-3" d="M389.21,397.66c1.49-.86,3.2-1.29,5.12-1.29v7.56h-1.9c-2.26,0-3.97,.53-5.12,1.59-1.15,1.06-1.72,2.91-1.72,5.55v14.19h-7.2v-28.49h7.2v4.42c.92-1.51,2.13-2.69,3.62-3.55Z"/><path class="cls-3" d="M422.1,399.59c2.09,2.14,3.14,5.13,3.14,8.97v16.71h-7.2v-15.74c0-2.26-.57-4-1.7-5.22-1.13-1.22-2.67-1.83-4.63-1.83s-3.56,.61-4.71,1.83c-1.15,1.22-1.72,2.96-1.72,5.22v15.74h-7.2v-28.49h7.2v3.55c.96-1.23,2.18-2.2,3.68-2.9,1.49-.7,3.13-1.05,4.91-1.05,3.39,0,6.14,1.07,8.23,3.21Z"/><path class="cls-3" d="M431.9,392.18c-.84-.81-1.26-1.81-1.26-3.01s.42-2.2,1.26-3.01c.84-.8,1.89-1.21,3.16-1.21s2.32,.4,3.16,1.21c.84,.81,1.26,1.81,1.26,3.01s-.42,2.2-1.26,3.01c-.84,.8-1.89,1.21-3.16,1.21s-2.32-.4-3.16-1.21Zm6.71,4.6v28.49h-7.2v-28.49h7.2Z"/><path class="cls-3" d="M469.16,399.59c2.09,2.14,3.14,5.13,3.14,8.97v16.71h-7.2v-15.74c0-2.26-.57-4-1.7-5.22-1.13-1.22-2.67-1.83-4.63-1.83s-3.56,.61-4.71,1.83c-1.15,1.22-1.72,2.96-1.72,5.22v15.74h-7.2v-28.49h7.2v3.55c.96-1.23,2.18-2.2,3.68-2.9,1.49-.7,3.13-1.05,4.91-1.05,3.39,0,6.14,1.07,8.23,3.21Z"/><path class="cls-3" d="M495.54,397.58c1.61,.84,2.88,1.93,3.81,3.27v-4.06h7.25v28.69c0,2.64-.53,5-1.59,7.07-1.06,2.07-2.66,3.72-4.78,4.94-2.13,1.22-4.7,1.82-7.71,1.82-4.05,0-7.36-.94-9.95-2.83-2.59-1.89-4.05-4.46-4.4-7.71h7.15c.38,1.3,1.19,2.34,2.44,3.11,1.25,.77,2.77,1.16,4.55,1.16,2.09,0,3.79-.63,5.09-1.88s1.95-3.14,1.95-5.68v-4.42c-.92,1.34-2.2,2.45-3.83,3.34-1.63,.89-3.49,1.34-5.58,1.34-2.4,0-4.59-.62-6.58-1.85-1.99-1.23-3.56-2.97-4.71-5.22-1.15-2.24-1.72-4.82-1.72-7.74s.57-5.43,1.72-7.66c1.15-2.23,2.71-3.94,4.68-5.14,1.97-1.2,4.17-1.8,6.61-1.8,2.13,0,3.99,.42,5.6,1.26Zm2.78,8.95c-.69-1.25-1.61-2.21-2.78-2.88-1.16-.67-2.42-1-3.75-1s-2.57,.33-3.7,.98c-1.13,.65-2.05,1.6-2.75,2.85-.7,1.25-1.05,2.73-1.05,4.45s.35,3.21,1.05,4.5c.7,1.29,1.63,2.27,2.78,2.96,1.15,.69,2.37,1.03,3.68,1.03s2.59-.33,3.75-1c1.16-.67,2.09-1.63,2.78-2.88,.68-1.25,1.03-2.75,1.03-4.5s-.34-3.25-1.03-4.5Z"/><path class="cls-3" d="M521.24,417.71l-6.02,14.45h-4.63l3.34-14.45h7.3Z"/><path class="cls-3" d="M547.05,402.7v13.78c0,.96,.23,1.65,.69,2.08,.46,.43,1.24,.64,2.34,.64h3.34v6.07h-4.53c-6.07,0-9.1-2.95-9.1-8.85v-13.73h-3.39v-5.91h3.39v-7.05h7.25v7.05h6.38v5.91h-6.38Z"/><path class="cls-3" d="M569.32,397.66c1.49-.86,3.2-1.29,5.12-1.29v7.56h-1.9c-2.26,0-3.97,.53-5.12,1.59-1.15,1.06-1.72,2.91-1.72,5.55v14.19h-7.2v-28.49h7.2v4.42c.92-1.51,2.13-2.69,3.62-3.55Z"/><path class="cls-3" d="M578.48,403.26c1.15-2.23,2.71-3.94,4.68-5.14,1.97-1.2,4.17-1.8,6.61-1.8,2.13,0,3.99,.43,5.58,1.29s2.87,1.94,3.83,3.24v-4.06h7.25v28.49h-7.25v-4.17c-.92,1.34-2.2,2.44-3.83,3.32-1.63,.87-3.51,1.31-5.63,1.31-2.4,0-4.59-.62-6.56-1.85-1.97-1.23-3.53-2.97-4.68-5.22-1.15-2.24-1.72-4.82-1.72-7.74s.57-5.43,1.72-7.66Zm19.67,3.26c-.69-1.25-1.61-2.21-2.78-2.88-1.16-.67-2.42-1-3.75-1s-2.57,.33-3.7,.98c-1.13,.65-2.05,1.6-2.75,2.85-.7,1.25-1.05,2.73-1.05,4.45s.35,3.21,1.05,4.5c.7,1.29,1.63,2.27,2.78,2.96,1.15,.69,2.37,1.03,3.68,1.03s2.59-.33,3.75-1c1.16-.67,2.09-1.63,2.78-2.88,.68-1.25,1.03-2.75,1.03-4.5s-.34-3.25-1.03-4.5Z"/><path class="cls-3" d="M636.93,399.59c2.09,2.14,3.14,5.13,3.14,8.97v16.71h-7.2v-15.74c0-2.26-.57-4-1.7-5.22-1.13-1.22-2.67-1.83-4.63-1.83s-3.56,.61-4.71,1.83c-1.15,1.22-1.72,2.96-1.72,5.22v15.74h-7.2v-28.49h7.2v3.55c.96-1.23,2.18-2.2,3.68-2.9,1.49-.7,3.13-1.05,4.91-1.05,3.39,0,6.14,1.07,8.23,3.21Z"/><path class="cls-3" d="M650.81,424.48c-1.85-.84-3.32-1.98-4.4-3.42-1.08-1.44-1.67-3.03-1.77-4.78h7.25c.14,1.1,.68,2.01,1.62,2.73,.94,.72,2.12,1.08,3.52,1.08s2.44-.27,3.21-.82c.77-.55,1.16-1.25,1.16-2.11,0-.92-.47-1.62-1.41-2.08-.94-.46-2.44-.97-4.5-1.52-2.13-.51-3.87-1.04-5.22-1.59-1.35-.55-2.52-1.39-3.5-2.52-.98-1.13-1.47-2.66-1.47-4.58,0-1.58,.45-3.02,1.36-4.32,.91-1.3,2.21-2.33,3.91-3.09,1.7-.75,3.69-1.13,5.99-1.13,3.39,0,6.1,.85,8.13,2.55,2.02,1.7,3.14,3.99,3.34,6.86h-6.89c-.1-1.13-.57-2.03-1.41-2.7-.84-.67-1.96-1-3.37-1-1.3,0-2.31,.24-3.01,.72-.7,.48-1.05,1.15-1.05,2.01,0,.96,.48,1.69,1.44,2.19,.96,.5,2.45,1,4.47,1.52,2.06,.51,3.75,1.05,5.09,1.59,1.34,.55,2.49,1.4,3.47,2.54,.98,1.15,1.48,2.67,1.52,4.55,0,1.65-.45,3.12-1.36,4.42-.91,1.3-2.21,2.32-3.91,3.06-1.7,.74-3.68,1.1-5.94,1.1s-4.42-.42-6.27-1.26Z"/><path class="cls-3" d="M686.76,402.7h-4.99v22.58h-7.3v-22.58h-3.24v-5.91h3.24v-1.44c0-3.5,.99-6.07,2.98-7.71,1.99-1.64,4.99-2.42,9-2.31v6.07c-1.75-.03-2.97,.26-3.65,.87-.69,.62-1.03,1.73-1.03,3.34v1.18h4.99v5.91Z"/><path class="cls-3" d="M695.74,423.91c-2.19-1.22-3.92-2.94-5.17-5.17-1.25-2.23-1.88-4.8-1.88-7.71s.64-5.48,1.93-7.71c1.28-2.23,3.04-3.95,5.27-5.17,2.23-1.22,4.71-1.83,7.46-1.83s5.23,.61,7.46,1.83c2.23,1.22,3.99,2.94,5.27,5.17,1.29,2.23,1.93,4.8,1.93,7.71s-.66,5.48-1.98,7.71c-1.32,2.23-3.1,3.95-5.35,5.17-2.25,1.22-4.76,1.83-7.53,1.83s-5.21-.61-7.4-1.83Zm11.08-5.4c1.15-.63,2.06-1.58,2.75-2.85,.68-1.27,1.03-2.81,1.03-4.63,0-2.71-.71-4.79-2.13-6.25-1.42-1.46-3.16-2.19-5.22-2.19s-3.78,.73-5.17,2.19c-1.39,1.46-2.08,3.54-2.08,6.25s.68,4.79,2.03,6.25c1.35,1.46,3.06,2.19,5.12,2.19,1.3,0,2.53-.32,3.68-.95Z"/><path class="cls-3" d="M733.63,397.66c1.49-.86,3.2-1.29,5.12-1.29v7.56h-1.9c-2.26,0-3.97,.53-5.12,1.59-1.15,1.06-1.72,2.91-1.72,5.55v14.19h-7.2v-28.49h7.2v4.42c.92-1.51,2.13-2.69,3.62-3.55Z"/><path class="cls-3" d="M786.33,399.59c2.14,2.14,3.21,5.13,3.21,8.97v16.71h-7.2v-15.74c0-2.23-.56-3.93-1.7-5.12-1.13-1.18-2.67-1.77-4.63-1.77s-3.51,.59-4.65,1.77c-1.15,1.18-1.72,2.89-1.72,5.12v15.74h-7.2v-15.74c0-2.23-.57-3.93-1.7-5.12-1.13-1.18-2.67-1.77-4.63-1.77s-3.56,.59-4.71,1.77c-1.15,1.18-1.72,2.89-1.72,5.12v15.74h-7.2v-28.49h7.2v3.45c.92-1.2,2.12-2.14,3.57-2.83,1.46-.68,3.06-1.03,4.81-1.03,2.23,0,4.22,.47,5.97,1.41,1.75,.94,3.1,2.29,4.06,4.04,.92-1.65,2.27-2.97,4.04-3.96,1.76-.99,3.68-1.49,5.73-1.49,3.5,0,6.32,1.07,8.46,3.21Z"/><path class="cls-3" d="M796.21,392.18c-.84-.81-1.26-1.81-1.26-3.01s.42-2.2,1.26-3.01c.84-.8,1.89-1.21,3.16-1.21s2.32,.4,3.16,1.21c.84,.81,1.26,1.81,1.26,3.01s-.42,2.2-1.26,3.01c-.84,.8-1.89,1.21-3.16,1.21s-2.32-.4-3.16-1.21Zm6.71,4.6v28.49h-7.2v-28.49h7.2Z"/><path class="cls-3" d="M833.47,399.59c2.09,2.14,3.14,5.13,3.14,8.97v16.71h-7.2v-15.74c0-2.26-.57-4-1.7-5.22-1.13-1.22-2.67-1.83-4.63-1.83s-3.56,.61-4.71,1.83c-1.15,1.22-1.72,2.96-1.72,5.22v15.74h-7.2v-28.49h7.2v3.55c.96-1.23,2.18-2.2,3.68-2.9,1.49-.7,3.13-1.05,4.91-1.05,3.39,0,6.14,1.07,8.23,3.21Z"/><path class="cls-3" d="M859.85,397.58c1.61,.84,2.88,1.93,3.81,3.27v-4.06h7.25v28.69c0,2.64-.53,5-1.59,7.07-1.06,2.07-2.66,3.72-4.78,4.94-2.13,1.22-4.7,1.82-7.71,1.82-4.05,0-7.36-.94-9.95-2.83-2.59-1.89-4.05-4.46-4.4-7.71h7.15c.38,1.3,1.19,2.34,2.44,3.11,1.25,.77,2.77,1.16,4.55,1.16,2.09,0,3.79-.63,5.09-1.88s1.95-3.14,1.95-5.68v-4.42c-.92,1.34-2.2,2.45-3.83,3.34-1.63,.89-3.49,1.34-5.58,1.34-2.4,0-4.59-.62-6.58-1.85-1.99-1.23-3.56-2.97-4.71-5.22-1.15-2.24-1.72-4.82-1.72-7.74s.57-5.43,1.72-7.66c1.15-2.23,2.71-3.94,4.68-5.14,1.97-1.2,4.17-1.8,6.61-1.8,2.13,0,3.99,.42,5.6,1.26Zm2.78,8.95c-.69-1.25-1.61-2.21-2.78-2.88-1.16-.67-2.42-1-3.75-1s-2.57,.33-3.7,.98c-1.13,.65-2.05,1.6-2.75,2.85-.7,1.25-1.05,2.73-1.05,4.45s.35,3.21,1.05,4.5c.7,1.29,1.63,2.27,2.78,2.96,1.15,.69,2.37,1.03,3.68,1.03s2.59-.33,3.75-1c1.16-.67,2.09-1.63,2.78-2.88,.68-1.25,1.03-2.75,1.03-4.5s-.34-3.25-1.03-4.5Z"/><path class="cls-3" d="M897.39,387.22v38.05h-7.2v-38.05h7.2Z"/><path class="cls-3" d="M904.44,392.18c-.84-.81-1.26-1.81-1.26-3.01s.42-2.2,1.26-3.01c.84-.8,1.89-1.21,3.16-1.21s2.32,.4,3.16,1.21c.84,.81,1.26,1.81,1.26,3.01s-.42,2.2-1.26,3.01c-.84,.8-1.89,1.21-3.16,1.21s-2.32-.4-3.16-1.21Zm6.71,4.6v28.49h-7.2v-28.49h7.2Z"/><path class="cls-3" d="M929.44,418.64l7.2-21.85h7.66l-10.54,28.49h-8.74l-10.49-28.49h7.71l7.2,21.85Z"/><path class="cls-3" d="M973.04,413.19h-20.83c.17,2.06,.89,3.67,2.16,4.83,1.27,1.17,2.83,1.75,4.68,1.75,2.67,0,4.58-1.15,5.71-3.45h7.76c-.82,2.74-2.4,5-4.73,6.76-2.33,1.77-5.19,2.65-8.59,2.65-2.74,0-5.2-.61-7.38-1.83-2.18-1.22-3.88-2.94-5.09-5.17-1.22-2.23-1.82-4.8-1.82-7.71s.6-5.54,1.8-7.76c1.2-2.23,2.88-3.94,5.04-5.14,2.16-1.2,4.65-1.8,7.46-1.8s5.13,.58,7.28,1.75c2.14,1.17,3.81,2.82,4.99,4.96,1.18,2.14,1.77,4.6,1.77,7.38,0,1.03-.07,1.95-.21,2.78Zm-7.25-4.83c-.03-1.85-.7-3.33-2-4.45-1.3-1.11-2.9-1.67-4.78-1.67-1.78,0-3.28,.54-4.5,1.62-1.22,1.08-1.96,2.58-2.24,4.5h13.52Z"/><path class="cls-3" d="M982.52,424.48c-1.85-.84-3.32-1.98-4.4-3.42-1.08-1.44-1.67-3.03-1.77-4.78h7.25c.14,1.1,.68,2.01,1.62,2.73,.94,.72,2.12,1.08,3.52,1.08s2.44-.27,3.21-.82c.77-.55,1.16-1.25,1.16-2.11,0-.92-.47-1.62-1.41-2.08-.94-.46-2.44-.97-4.5-1.52-2.13-.51-3.87-1.04-5.22-1.59-1.35-.55-2.52-1.39-3.5-2.52-.98-1.13-1.47-2.66-1.47-4.58,0-1.58,.45-3.02,1.36-4.32,.91-1.3,2.21-2.33,3.91-3.09,1.7-.75,3.69-1.13,5.99-1.13,3.39,0,6.1,.85,8.13,2.55,2.02,1.7,3.14,3.99,3.34,6.86h-6.89c-.1-1.13-.57-2.03-1.41-2.7-.84-.67-1.96-1-3.37-1-1.3,0-2.31,.24-3.01,.72-.7,.48-1.05,1.15-1.05,2.01,0,.96,.48,1.69,1.44,2.19,.96,.5,2.45,1,4.47,1.52,2.06,.51,3.75,1.05,5.09,1.59,1.34,.55,2.49,1.4,3.47,2.54,.98,1.15,1.48,2.67,1.52,4.55,0,1.65-.45,3.12-1.36,4.42-.91,1.3-2.21,2.32-3.91,3.06-1.7,.74-3.68,1.1-5.94,1.1s-4.42-.42-6.27-1.26Z"/></g><rect class="cls-2" y="348" width="1000" height="7"/><g><path class="cls-2" d="M123.56,119.81c6.01-4.83,13.59-7.49,21.33-7.49s15.32,2.66,21.33,7.49c5.68,4.56,9.77,10.88,11.58,17.87h23.85c-1.98-13.39-8.53-25.69-18.51-34.76-10.46-9.5-24.01-14.73-38.15-14.73s-27.68,5.23-38.14,14.73c-9.98,9.06-16.52,21.36-18.5,34.76h23.63c1.82-6.99,5.9-13.31,11.58-17.87Z"/><path class="cls-2" d="M219.44,137.68h26.29c-1.94-24.91-13.1-48.05-31.53-65.29-18.82-17.6-43.39-27.3-69.19-27.3s-50.37,9.69-69.19,27.3c-18.43,17.24-29.6,40.38-31.53,65.29h26.29c2.07-17.89,10.58-34.4,24.03-46.6,13.82-12.53,31.72-19.43,50.4-19.43s36.59,6.9,50.41,19.43c13.45,12.2,21.96,28.71,24.03,46.6Z"/><path class="cls-1" d="M106.5,154.97H.1c.94,14.93,4.2,29.53,9.68,43.42l96.72-43.42Z"/><path class="cls-2" d="M27.91,137.68c1.95-29.27,14.86-56.51,36.41-76.82,21.9-20.64,50.56-32.01,80.69-32.01s58.78,11.37,80.69,32.01c21.55,20.31,34.45,47.55,36.41,76.82h27.9c-1.65-36.94-17.3-71.41-44.13-97.18C218.67,14.38,182.85,0,145,0S71.33,14.38,44.13,40.5C17.3,66.27,1.65,100.74,0,137.68H27.91Z"/><path class="cls-1" d="M181.28,154.97l97.57,46.67c6.32-14.9,10.03-30.59,11.05-46.67h-108.62Z"/><path class="cls-1" d="M185.6,284.24c13.97-4.03,27.21-10.13,39.41-18.15l-64.41-86.8,24.99,104.95Z"/><path class="cls-1" d="M165.12,288.58l-20.65-105.89-23.17,105.33c8,1.32,15.98,1.98,23.71,1.98,6.55,0,13.31-.48,20.12-1.42Z"/><path class="cls-1" d="M19.03,217.5c7.16,12.38,16.13,23.62,26.66,33.43l69.95-82.12L19.03,217.5Z"/><path class="cls-1" d="M174.08,170.08l67.53,83.3c10.77-9.54,20.01-20.57,27.51-32.81l-95.04-50.49Z"/><path class="cls-1" d="M128.65,178.86l-66.69,85.19c11.97,8.3,25.07,14.73,38.99,19.12l26.09-97.66,1.61-6.64Z"/></g></svg>